M48
;DRILL file {KiCad (2015-06-03 BZR 5697)-product} date Thursday, 18 June 2015 09:42:43
;FORMAT={-:-/ absolute / inch / decimal}
FMAT,2
INCH,TZ
T1C0.040
%
G90
G05
M72
T1
X5.6025Y-4.
X5.6025Y-4.1
X5.6025Y-4.2
X5.6025Y-4.3
X5.6025Y-4.6299
X5.6025Y-4.7299
X5.6025Y-4.8299
X5.6025Y-4.9299
X5.6025Y-5.2598
X5.6025Y-5.3598
X5.6025Y-5.4598
X5.6025Y-5.5598
X5.6025Y-5.8898
X5.6025Y-5.9898
X5.6025Y-6.0898
X5.6025Y-6.1898
X6.1025Y-4.
X6.1025Y-4.1
X6.1025Y-4.2
X6.1025Y-4.3
X6.1025Y-4.6299
X6.1025Y-4.7299
X6.1025Y-4.8299
X6.1025Y-4.9299
X6.1025Y-5.2598
X6.1025Y-5.3598
X6.1025Y-5.4598
X6.1025Y-5.5598
X6.1025Y-5.8898
X6.1025Y-5.9898
X6.1025Y-6.0898
X6.1025Y-6.1898
X6.4293Y-4.
X6.4293Y-4.1
X6.4293Y-4.2
X6.4293Y-4.3
X6.4293Y-4.6299
X6.4293Y-4.7299
X6.4293Y-4.8299
X6.4293Y-4.9299
X6.4293Y-5.2598
X6.4293Y-5.3598
X6.4293Y-5.4598
X6.4293Y-5.5598
X6.4293Y-5.8898
X6.4293Y-5.9898
X6.4293Y-6.0898
X6.4293Y-6.1898
X6.9293Y-4.
X6.9293Y-4.1
X6.9293Y-4.2
X6.9293Y-4.3
X6.9293Y-4.6299
X6.9293Y-4.7299
X6.9293Y-4.8299
X6.9293Y-4.9299
X6.9293Y-5.2598
X6.9293Y-5.3598
X6.9293Y-5.4598
X6.9293Y-5.5598
X6.9293Y-5.8898
X6.9293Y-5.9898
X6.9293Y-6.0898
X6.9293Y-6.1898
X7.256Y-4.
X7.256Y-4.1
X7.256Y-4.2
X7.256Y-4.3
X7.256Y-4.6299
X7.256Y-4.7299
X7.256Y-4.8299
X7.256Y-4.9299
X7.256Y-5.2598
X7.256Y-5.3598
X7.256Y-5.4598
X7.256Y-5.5598
X7.256Y-5.8898
X7.256Y-5.9898
X7.256Y-6.0898
X7.256Y-6.1898
X7.756Y-4.
X7.756Y-4.1
X7.756Y-4.2
X7.756Y-4.3
X7.756Y-4.6299
X7.756Y-4.7299
X7.756Y-4.8299
X7.756Y-4.9299
X7.756Y-5.2598
X7.756Y-5.3598
X7.756Y-5.4598
X7.756Y-5.5598
X7.756Y-5.8898
X7.756Y-5.9898
X7.756Y-6.0898
X7.756Y-6.1898
X8.0828Y-4.
X8.0828Y-4.1
X8.0828Y-4.2
X8.0828Y-4.3
X8.0828Y-4.6299
X8.0828Y-4.7299
X8.0828Y-4.8299
X8.0828Y-4.9299
X8.0828Y-5.2598
X8.0828Y-5.3598
X8.0828Y-5.4598
X8.0828Y-5.5598
X8.0828Y-5.8898
X8.0828Y-5.9898
X8.0828Y-6.0898
X8.0828Y-6.1898
X8.5828Y-4.
X8.5828Y-4.1
X8.5828Y-4.2
X8.5828Y-4.3
X8.5828Y-4.6299
X8.5828Y-4.7299
X8.5828Y-4.8299
X8.5828Y-4.9299
X8.5828Y-5.2598
X8.5828Y-5.3598
X8.5828Y-5.4598
X8.5828Y-5.5598
X8.5828Y-5.8898
X8.5828Y-5.9898
X8.5828Y-6.0898
X8.5828Y-6.1898
T0
M30
