%TF.GenerationSoftware,KiCad,Pcbnew,4.0.7*%
%TF.CreationDate,2018-03-08T20:30:34+00:00*%
%TF.ProjectId,antenna_analyser,616E74656E6E615F616E616C79736572,rev?*%
%TF.FileFunction,Copper,L2,Bot,Signal*%
%FSLAX46Y46*%
G04 Gerber Fmt 4.6, Leading zero omitted, Abs format (unit mm)*
G04 Created by KiCad (PCBNEW 4.0.7) date 2018 March 08, Thursday 20:30:34*
%MOMM*%
%LPD*%
G01*
G04 APERTURE LIST*
%ADD10C,0.100000*%
%ADD11R,2.999740X2.999740*%
%ADD12O,2.000000X1.720000*%
%ADD13R,0.400000X1.350000*%
%ADD14O,1.250000X0.950000*%
%ADD15O,1.000000X1.550000*%
%ADD16C,4.064000*%
%ADD17C,1.501140*%
%ADD18R,1.300000X1.300000*%
%ADD19C,1.300000*%
%ADD20C,1.998980*%
%ADD21R,1.998980X1.998980*%
%ADD22C,1.750000*%
%ADD23O,4.000000X4.000000*%
%ADD24O,1.600000X1.600000*%
%ADD25R,2.286000X1.574800*%
%ADD26O,2.286000X1.574800*%
%ADD27C,3.810000*%
%ADD28C,3.556000*%
%ADD29R,2.032000X1.727200*%
%ADD30O,2.032000X1.727200*%
%ADD31R,3.657600X2.032000*%
%ADD32R,1.016000X2.032000*%
%ADD33C,0.400000*%
%ADD34C,1.500000*%
%ADD35C,0.254000*%
G04 APERTURE END LIST*
D10*
X90000000Y-134000000D02*
X90000000Y-84000000D01*
X190000000Y-134000000D02*
X90000000Y-134000000D01*
X190000000Y-84000000D02*
X190000000Y-134000000D01*
X90000000Y-84000000D02*
X190000000Y-84000000D01*
D11*
X102250000Y-130000000D03*
D12*
X126440000Y-93660000D03*
X126440000Y-96200000D03*
X126440000Y-98740000D03*
X126440000Y-101280000D03*
X126440000Y-106360000D03*
X126440000Y-111440000D03*
X126440000Y-113980000D03*
X126440000Y-116520000D03*
X146760000Y-93660000D03*
X146760000Y-96200000D03*
X146760000Y-98740000D03*
X146760000Y-101280000D03*
X146760000Y-106360000D03*
X146760000Y-108900000D03*
X146760000Y-111440000D03*
X146760000Y-113980000D03*
X146760000Y-116520000D03*
D13*
X107900900Y-127437460D03*
X106600900Y-127437460D03*
X105300900Y-127437460D03*
D14*
X109100900Y-127437460D03*
X104100900Y-127437460D03*
D15*
X110100900Y-130137460D03*
X103100900Y-130137460D03*
D16*
X97000000Y-87000000D03*
X97000000Y-130500000D03*
X173000000Y-87500000D03*
X173000000Y-130500000D03*
D17*
X138240000Y-120700000D03*
X135700000Y-120700000D03*
D18*
X159250000Y-124500000D03*
D19*
X159250000Y-127000000D03*
D18*
X156750000Y-124500000D03*
D19*
X156750000Y-127000000D03*
D18*
X184750000Y-112750000D03*
D19*
X184750000Y-110250000D03*
D18*
X161500000Y-100000000D03*
D19*
X164000000Y-100000000D03*
D18*
X119500000Y-127500000D03*
D19*
X122000000Y-127500000D03*
D20*
X169747460Y-104090000D03*
D21*
X169747460Y-114250000D03*
D20*
X172747460Y-104090000D03*
D21*
X172747460Y-114250000D03*
D22*
X188100000Y-99300000D03*
X188100000Y-94300000D03*
X188100000Y-96800000D03*
X173600000Y-94300000D03*
X173600000Y-99300000D03*
D23*
X180600000Y-90600000D03*
X180600000Y-103000000D03*
D24*
X154000000Y-119500000D03*
X154000000Y-122040000D03*
X154000000Y-124580000D03*
X154000000Y-127120000D03*
X161620000Y-127120000D03*
X161620000Y-124580000D03*
X161620000Y-122040000D03*
X161620000Y-119500000D03*
D25*
X116710000Y-122070000D03*
D26*
X116710000Y-119530000D03*
X116710000Y-116990000D03*
X116710000Y-114450000D03*
X116710000Y-111910000D03*
X116710000Y-109370000D03*
X116710000Y-106830000D03*
X116710000Y-104290000D03*
X116710000Y-101750000D03*
X116710000Y-99210000D03*
X116710000Y-96670000D03*
X116710000Y-94130000D03*
X101470000Y-94130000D03*
X101470000Y-96670000D03*
X101470000Y-99210000D03*
X101470000Y-101750000D03*
X101470000Y-104290000D03*
X101470000Y-106830000D03*
X101470000Y-109370000D03*
X101470000Y-111910000D03*
X101470000Y-114450000D03*
X101470000Y-116990000D03*
X101470000Y-119530000D03*
X101470000Y-122070000D03*
D27*
X154325000Y-89325000D03*
D28*
X157500000Y-92500000D03*
D27*
X160675000Y-89325000D03*
X154325000Y-95675000D03*
X160675000Y-95675000D03*
D29*
X92100000Y-92800000D03*
D30*
X92100000Y-95340000D03*
X92100000Y-97880000D03*
X92100000Y-100420000D03*
X92100000Y-102960000D03*
X92100000Y-105500000D03*
X92100000Y-108040000D03*
X92100000Y-110580000D03*
X92100000Y-113120000D03*
X92100000Y-115660000D03*
X92100000Y-118200000D03*
X92100000Y-120740000D03*
X92100000Y-123280000D03*
X92100000Y-125820000D03*
D29*
X120600000Y-122100000D03*
D30*
X120600000Y-119560000D03*
X120600000Y-117020000D03*
X120600000Y-114480000D03*
D20*
X150920000Y-115000000D03*
X161080000Y-115000000D03*
X175920000Y-107000000D03*
X186080000Y-107000000D03*
X176000000Y-120080000D03*
X176000000Y-109920000D03*
X179500000Y-120080000D03*
X179500000Y-109920000D03*
X152250000Y-100170000D03*
X152250000Y-110330000D03*
X184750000Y-125580000D03*
X184750000Y-115420000D03*
X169420000Y-123250000D03*
X179580000Y-123250000D03*
X155170000Y-104250000D03*
X165330000Y-104250000D03*
X161080000Y-131500000D03*
X150920000Y-131500000D03*
X166800000Y-118120000D03*
X166800000Y-128280000D03*
X151000000Y-117920000D03*
X151000000Y-128080000D03*
D31*
X108800000Y-121902000D03*
D32*
X108800000Y-115298000D03*
X111086000Y-115298000D03*
X106514000Y-115298000D03*
D11*
X111000000Y-130000000D03*
D33*
X178000000Y-117900000D02*
X180700000Y-117900000D01*
X180700000Y-117900000D02*
X184750000Y-121950000D01*
X184750000Y-121950000D02*
X184750000Y-125580000D01*
X176000000Y-119900000D02*
X178000000Y-117900000D01*
X176000000Y-120080000D02*
X176000000Y-119900000D01*
X157850300Y-125050200D02*
X157850300Y-124500000D01*
X158650100Y-125850000D02*
X157850300Y-125050200D01*
X176980000Y-125850000D02*
X158650100Y-125850000D01*
X179580000Y-123250000D02*
X176980000Y-125850000D01*
X156750000Y-124500000D02*
X157850300Y-124500000D01*
X155569700Y-124580000D02*
X155649700Y-124500000D01*
X154000000Y-124580000D02*
X155569700Y-124580000D01*
X156750000Y-124500000D02*
X155649700Y-124500000D01*
X106514000Y-115298000D02*
X106514000Y-116031100D01*
X171000000Y-109920000D02*
X176000000Y-109920000D01*
X165330000Y-104250000D02*
X171000000Y-109920000D01*
X156750000Y-127000000D02*
X159250000Y-127000000D01*
X107247300Y-116764400D02*
X114395600Y-116764400D01*
X106514000Y-116031100D02*
X107247300Y-116764400D01*
X105300900Y-116511100D02*
X106514000Y-115298000D01*
X105300900Y-127437460D02*
X105300900Y-116511100D01*
X122000000Y-126500000D02*
X122500000Y-126000000D01*
X122500000Y-126000000D02*
X122500000Y-116380000D01*
X122500000Y-116380000D02*
X120600000Y-114480000D01*
X122000000Y-127500000D02*
X122000000Y-126500000D01*
X154325000Y-95675000D02*
X153325000Y-95675000D01*
X160675000Y-89325000D02*
X160675000Y-95675000D01*
X154325000Y-89325000D02*
X160675000Y-89325000D01*
X154325000Y-95675000D02*
X154325000Y-89325000D01*
X159250000Y-129670000D02*
X161080000Y-131500000D01*
X159250000Y-127000000D02*
X159250000Y-129670000D01*
X115250000Y-114450000D02*
X114395600Y-115304400D01*
X114395600Y-115304400D02*
X114395600Y-116764400D01*
X116710000Y-114450000D02*
X115250000Y-114450000D01*
X175367300Y-115420000D02*
X184750000Y-115420000D01*
X174197300Y-114250000D02*
X175367300Y-115420000D01*
X172747500Y-114250000D02*
X174197300Y-114250000D01*
D34*
X161330000Y-100170000D02*
X161500000Y-100000000D01*
X157500000Y-100170000D02*
X161330000Y-100170000D01*
X152250000Y-100170000D02*
X157500000Y-100170000D01*
X157500000Y-100170000D02*
X157500000Y-92500000D01*
D33*
X111086000Y-115298000D02*
X111086000Y-113994300D01*
X111900300Y-113180000D02*
X118303400Y-113180000D01*
X111086000Y-113994300D02*
X111900300Y-113180000D01*
X126440000Y-94174300D02*
X126440000Y-93660000D01*
X117594300Y-103020000D02*
X126440000Y-94174300D01*
X115813500Y-103020000D02*
X117594300Y-103020000D01*
X115056300Y-103777200D02*
X115813500Y-103020000D01*
X115056300Y-107310100D02*
X115056300Y-103777200D01*
X115846200Y-108100000D02*
X115056300Y-107310100D01*
X117612400Y-108100000D02*
X115846200Y-108100000D01*
X118303400Y-108791000D02*
X117612400Y-108100000D01*
X118303400Y-113180000D02*
X118303400Y-108791000D01*
X118303400Y-126303400D02*
X119500000Y-127500000D01*
X118303400Y-113180000D02*
X118303400Y-125203100D01*
X118303400Y-125500000D02*
X118303400Y-126303400D01*
X118303400Y-125203100D02*
X118303400Y-125500000D01*
X107900900Y-126099100D02*
X108500000Y-125500000D01*
X108500000Y-125500000D02*
X118303400Y-125500000D01*
X107900900Y-127437460D02*
X107900900Y-126099100D01*
X156850000Y-119500000D02*
X155050000Y-117700000D01*
X155050000Y-117700000D02*
X153650000Y-117700000D01*
X153650000Y-117700000D02*
X141850000Y-129500000D01*
X141850000Y-129500000D02*
X121500000Y-129500000D01*
X121500000Y-129500000D02*
X119500000Y-127500000D01*
X161620000Y-119500000D02*
X156850000Y-119500000D01*
X172747500Y-104090000D02*
X169747500Y-104090000D01*
X130430400Y-85469600D02*
X119200000Y-96700000D01*
X119200000Y-96700000D02*
X119200000Y-99400000D01*
X119200000Y-99400000D02*
X118120000Y-100480000D01*
X118120000Y-100480000D02*
X117642800Y-100480000D01*
X183300000Y-99300000D02*
X188100000Y-99300000D01*
X115116700Y-109370000D02*
X114387300Y-108640600D01*
X114387300Y-108640600D02*
X114387300Y-101935300D01*
X114387300Y-101935300D02*
X115842600Y-100480000D01*
X115842600Y-100480000D02*
X117642800Y-100480000D01*
X132653200Y-85469600D02*
X164719600Y-85469600D01*
X116710000Y-109370000D02*
X115116700Y-109370000D01*
X181250000Y-97250000D02*
X175750000Y-91750000D01*
X175750000Y-91750000D02*
X171000000Y-91750000D01*
X171000000Y-91750000D02*
X164719600Y-85469600D01*
X183300000Y-99300000D02*
X181250000Y-97250000D01*
X132653200Y-85469600D02*
X130430400Y-85469600D01*
X162885700Y-111965700D02*
X162885700Y-122582100D01*
X155170000Y-104250000D02*
X162885700Y-111965700D01*
X162885700Y-124014300D02*
X162885700Y-122582100D01*
X162320000Y-124580000D02*
X162885700Y-124014300D01*
X161620000Y-124580000D02*
X162320000Y-124580000D01*
X151000000Y-131420000D02*
X150920000Y-131500000D01*
X151000000Y-128080000D02*
X151000000Y-131420000D01*
X151000000Y-122800000D02*
X151760000Y-122040000D01*
X151760000Y-122040000D02*
X154000000Y-122040000D01*
X151000000Y-128080000D02*
X151000000Y-122800000D01*
X116710000Y-104290000D02*
X116710000Y-104736900D01*
X116710000Y-104736900D02*
X117156900Y-104736900D01*
X118690000Y-104290000D02*
X122350000Y-107950000D01*
X122350000Y-107950000D02*
X138350000Y-107950000D01*
X138350000Y-107950000D02*
X144380000Y-113980000D01*
X144380000Y-113980000D02*
X146760000Y-113980000D01*
X116710000Y-104290000D02*
X118690000Y-104290000D01*
X98730000Y-96670000D02*
X94100000Y-101300000D01*
X94100000Y-101300000D02*
X94100000Y-103500000D01*
X94100000Y-103500000D02*
X92100000Y-105500000D01*
X101470000Y-96670000D02*
X98730000Y-96670000D01*
X98390000Y-101750000D02*
X101470000Y-101750000D01*
X92100000Y-108040000D02*
X98390000Y-101750000D01*
X103097600Y-96124800D02*
X103097600Y-107373200D01*
X102372800Y-95400000D02*
X103097600Y-96124800D01*
X97120000Y-95400000D02*
X102372800Y-95400000D01*
X92100000Y-100420000D02*
X97120000Y-95400000D01*
X103097600Y-108602400D02*
X103097600Y-107373200D01*
X102330000Y-109370000D02*
X103097600Y-108602400D01*
X101470000Y-109370000D02*
X102330000Y-109370000D01*
X103681600Y-113831700D02*
X108800000Y-113831700D01*
X103063300Y-114450000D02*
X103681600Y-113831700D01*
X108800000Y-115298000D02*
X108800000Y-113831700D01*
X101917000Y-114450000D02*
X103063300Y-114450000D01*
X101917000Y-114450000D02*
X101470000Y-114450000D01*
X95970000Y-114450000D02*
X92100000Y-110580000D01*
X101470000Y-114450000D02*
X95970000Y-114450000D01*
X163750000Y-108750000D02*
X162250000Y-107250000D01*
X162250000Y-107250000D02*
X162250000Y-103500000D01*
X162250000Y-103500000D02*
X164000000Y-101750000D01*
X164000000Y-101750000D02*
X164000000Y-100000000D01*
X169747500Y-114250000D02*
X169747500Y-112589800D01*
X169747500Y-112589800D02*
X165907700Y-108750000D01*
X165907700Y-108750000D02*
X164752800Y-108750000D01*
X164752800Y-108750000D02*
X163750000Y-108750000D01*
D35*
G36*
X170409566Y-92340434D02*
X170680459Y-92521439D01*
X171000000Y-92585000D01*
X175404132Y-92585000D01*
X182709566Y-99890434D01*
X182980459Y-100071439D01*
X183300000Y-100135000D01*
X186811193Y-100135000D01*
X186819138Y-100154229D01*
X187243537Y-100579370D01*
X187798325Y-100809738D01*
X188399040Y-100810262D01*
X188954229Y-100580862D01*
X189315000Y-100220721D01*
X189315000Y-133315000D01*
X90685000Y-133315000D01*
X90685000Y-131028172D01*
X94332538Y-131028172D01*
X94737709Y-132008761D01*
X95487293Y-132759655D01*
X96467173Y-133166536D01*
X97528172Y-133167462D01*
X98508761Y-132762291D01*
X99259655Y-132012707D01*
X99666536Y-131032827D01*
X99667462Y-129971828D01*
X99262291Y-128991239D01*
X98772039Y-128500130D01*
X100102690Y-128500130D01*
X100102690Y-131499870D01*
X100146968Y-131735187D01*
X100286040Y-131951311D01*
X100498240Y-132096301D01*
X100750130Y-132147310D01*
X103749870Y-132147310D01*
X103985187Y-132103032D01*
X104201311Y-131963960D01*
X104346301Y-131751760D01*
X104397310Y-131499870D01*
X104397310Y-128523247D01*
X104577767Y-128487352D01*
X104741201Y-128650787D01*
X104974590Y-128747460D01*
X105042150Y-128747460D01*
X105200900Y-128588710D01*
X105200900Y-128012186D01*
X105301091Y-127862239D01*
X105385585Y-127437460D01*
X105301091Y-127012681D01*
X105200900Y-126862734D01*
X105200900Y-126286210D01*
X105042150Y-126127460D01*
X104974590Y-126127460D01*
X104741201Y-126224133D01*
X104577767Y-126387568D01*
X104275585Y-126327460D01*
X103926215Y-126327460D01*
X103501436Y-126411954D01*
X103141326Y-126652571D01*
X102900709Y-127012681D01*
X102816215Y-127437460D01*
X102898810Y-127852690D01*
X100750130Y-127852690D01*
X100514813Y-127896968D01*
X100298689Y-128036040D01*
X100153699Y-128248240D01*
X100102690Y-128500130D01*
X98772039Y-128500130D01*
X98512707Y-128240345D01*
X97532827Y-127833464D01*
X96471828Y-127832538D01*
X95491239Y-128237709D01*
X94740345Y-128987293D01*
X94333464Y-129967173D01*
X94332538Y-131028172D01*
X90685000Y-131028172D01*
X90685000Y-126624372D01*
X90855585Y-126879670D01*
X91341766Y-127204526D01*
X91915255Y-127318600D01*
X92284745Y-127318600D01*
X92858234Y-127204526D01*
X93344415Y-126879670D01*
X93669271Y-126393489D01*
X93783345Y-125820000D01*
X93669271Y-125246511D01*
X93344415Y-124760330D01*
X93029634Y-124550000D01*
X93344415Y-124339670D01*
X93669271Y-123853489D01*
X93783345Y-123280000D01*
X93669271Y-122706511D01*
X93344415Y-122220330D01*
X93029634Y-122010000D01*
X93344415Y-121799670D01*
X93669271Y-121313489D01*
X93783345Y-120740000D01*
X93669271Y-120166511D01*
X93344415Y-119680330D01*
X93029634Y-119470000D01*
X93344415Y-119259670D01*
X93669271Y-118773489D01*
X93783345Y-118200000D01*
X93669271Y-117626511D01*
X93344415Y-117140330D01*
X93029634Y-116930000D01*
X93344415Y-116719670D01*
X93669271Y-116233489D01*
X93783345Y-115660000D01*
X93669271Y-115086511D01*
X93344415Y-114600330D01*
X93029634Y-114390000D01*
X93344415Y-114179670D01*
X93669271Y-113693489D01*
X93729555Y-113390423D01*
X95379565Y-115040434D01*
X95469401Y-115100460D01*
X95650459Y-115221439D01*
X95970000Y-115285000D01*
X99959661Y-115285000D01*
X100073778Y-115455789D01*
X100469199Y-115720000D01*
X100073778Y-115984211D01*
X99765441Y-116445671D01*
X99657167Y-116990000D01*
X99765441Y-117534329D01*
X100073778Y-117995789D01*
X100469199Y-118260000D01*
X100073778Y-118524211D01*
X99765441Y-118985671D01*
X99657167Y-119530000D01*
X99765441Y-120074329D01*
X100073778Y-120535789D01*
X100469199Y-120800000D01*
X100073778Y-121064211D01*
X99765441Y-121525671D01*
X99657167Y-122070000D01*
X99765441Y-122614329D01*
X100073778Y-123075789D01*
X100535238Y-123384126D01*
X101079567Y-123492400D01*
X101860433Y-123492400D01*
X102404762Y-123384126D01*
X102866222Y-123075789D01*
X103174559Y-122614329D01*
X103282833Y-122070000D01*
X103174559Y-121525671D01*
X102866222Y-121064211D01*
X102599510Y-120886000D01*
X106323760Y-120886000D01*
X106323760Y-122918000D01*
X106368038Y-123153317D01*
X106507110Y-123369441D01*
X106719310Y-123514431D01*
X106971200Y-123565440D01*
X110628800Y-123565440D01*
X110864117Y-123521162D01*
X111080241Y-123382090D01*
X111225231Y-123169890D01*
X111276240Y-122918000D01*
X111276240Y-120886000D01*
X111231962Y-120650683D01*
X111092890Y-120434559D01*
X110880690Y-120289569D01*
X110628800Y-120238560D01*
X106971200Y-120238560D01*
X106735883Y-120282838D01*
X106519759Y-120421910D01*
X106374769Y-120634110D01*
X106323760Y-120886000D01*
X102599510Y-120886000D01*
X102470801Y-120800000D01*
X102866222Y-120535789D01*
X103174559Y-120074329D01*
X103282833Y-119530000D01*
X103174559Y-118985671D01*
X102866222Y-118524211D01*
X102470801Y-118260000D01*
X102866222Y-117995789D01*
X103174559Y-117534329D01*
X103282833Y-116990000D01*
X103174559Y-116445671D01*
X102866222Y-115984211D01*
X102470801Y-115720000D01*
X102674714Y-115583750D01*
X105371000Y-115583750D01*
X105371000Y-116440310D01*
X105467673Y-116673699D01*
X105646302Y-116852327D01*
X105879691Y-116949000D01*
X106228250Y-116949000D01*
X106387000Y-116790250D01*
X106387000Y-115425000D01*
X105529750Y-115425000D01*
X105371000Y-115583750D01*
X102674714Y-115583750D01*
X102866222Y-115455789D01*
X102980339Y-115285000D01*
X103063300Y-115285000D01*
X103382841Y-115221439D01*
X103653734Y-115040434D01*
X104027468Y-114666700D01*
X105371000Y-114666700D01*
X105371000Y-115012250D01*
X105529750Y-115171000D01*
X106387000Y-115171000D01*
X106387000Y-115151000D01*
X106641000Y-115151000D01*
X106641000Y-115171000D01*
X106661000Y-115171000D01*
X106661000Y-115425000D01*
X106641000Y-115425000D01*
X106641000Y-116790250D01*
X106799750Y-116949000D01*
X107148309Y-116949000D01*
X107381698Y-116852327D01*
X107560327Y-116673699D01*
X107657000Y-116440310D01*
X107657000Y-116380113D01*
X107688838Y-116549317D01*
X107827910Y-116765441D01*
X108040110Y-116910431D01*
X108292000Y-116961440D01*
X109308000Y-116961440D01*
X109543317Y-116917162D01*
X109759441Y-116778090D01*
X109904431Y-116565890D01*
X109942543Y-116377686D01*
X109974838Y-116549317D01*
X110113910Y-116765441D01*
X110326110Y-116910431D01*
X110578000Y-116961440D01*
X111594000Y-116961440D01*
X111829317Y-116917162D01*
X112045441Y-116778090D01*
X112190431Y-116565890D01*
X112241440Y-116314000D01*
X112241440Y-114282000D01*
X112199905Y-114061263D01*
X112246168Y-114015000D01*
X114996046Y-114015000D01*
X114991673Y-114023004D01*
X114974990Y-114102940D01*
X115097148Y-114323000D01*
X116583000Y-114323000D01*
X116583000Y-114303000D01*
X116837000Y-114303000D01*
X116837000Y-114323000D01*
X116857000Y-114323000D01*
X116857000Y-114577000D01*
X116837000Y-114577000D01*
X116837000Y-114597000D01*
X116583000Y-114597000D01*
X116583000Y-114577000D01*
X115097148Y-114577000D01*
X114974990Y-114797060D01*
X114991673Y-114876996D01*
X115258809Y-115365986D01*
X115692738Y-115715525D01*
X115708830Y-115720246D01*
X115313778Y-115984211D01*
X115005441Y-116445671D01*
X114897167Y-116990000D01*
X115005441Y-117534329D01*
X115313778Y-117995789D01*
X115709199Y-118260000D01*
X115313778Y-118524211D01*
X115005441Y-118985671D01*
X114897167Y-119530000D01*
X115005441Y-120074329D01*
X115313778Y-120535789D01*
X115485460Y-120650503D01*
X115331683Y-120679438D01*
X115115559Y-120818510D01*
X114970569Y-121030710D01*
X114919560Y-121282600D01*
X114919560Y-122857400D01*
X114963838Y-123092717D01*
X115102910Y-123308841D01*
X115315110Y-123453831D01*
X115567000Y-123504840D01*
X117468400Y-123504840D01*
X117468400Y-124665000D01*
X108500000Y-124665000D01*
X108180459Y-124728561D01*
X107909566Y-124909566D01*
X107310466Y-125508666D01*
X107129461Y-125779559D01*
X107065900Y-126099100D01*
X107065900Y-126174987D01*
X107052790Y-126166029D01*
X106800900Y-126115020D01*
X106400900Y-126115020D01*
X106165583Y-126159298D01*
X105949459Y-126298370D01*
X105943523Y-126307058D01*
X105860599Y-126224133D01*
X105627210Y-126127460D01*
X105559650Y-126127460D01*
X105400900Y-126286210D01*
X105400900Y-127310460D01*
X105447900Y-127310460D01*
X105447900Y-127564460D01*
X105400900Y-127564460D01*
X105400900Y-128588710D01*
X105559650Y-128747460D01*
X105627210Y-128747460D01*
X105860599Y-128650787D01*
X105943152Y-128568234D01*
X106149010Y-128708891D01*
X106400900Y-128759900D01*
X106800900Y-128759900D01*
X107036217Y-128715622D01*
X107252341Y-128576550D01*
X107253290Y-128575161D01*
X107449010Y-128708891D01*
X107700900Y-128759900D01*
X108100900Y-128759900D01*
X108336217Y-128715622D01*
X108552341Y-128576550D01*
X108614573Y-128485470D01*
X108852690Y-128532835D01*
X108852690Y-131499870D01*
X108896968Y-131735187D01*
X109036040Y-131951311D01*
X109248240Y-132096301D01*
X109500130Y-132147310D01*
X112499870Y-132147310D01*
X112735187Y-132103032D01*
X112951311Y-131963960D01*
X113096301Y-131751760D01*
X113147310Y-131499870D01*
X113147310Y-128500130D01*
X113103032Y-128264813D01*
X112963960Y-128048689D01*
X112751760Y-127903699D01*
X112499870Y-127852690D01*
X110302990Y-127852690D01*
X110385585Y-127437460D01*
X110301091Y-127012681D01*
X110060474Y-126652571D01*
X109700364Y-126411954D01*
X109313491Y-126335000D01*
X117474686Y-126335000D01*
X117531961Y-126622941D01*
X117602534Y-126728561D01*
X117712966Y-126893834D01*
X118202560Y-127383428D01*
X118202560Y-128150000D01*
X118246838Y-128385317D01*
X118385910Y-128601441D01*
X118598110Y-128746431D01*
X118850000Y-128797440D01*
X119616572Y-128797440D01*
X120909566Y-130090434D01*
X121180459Y-130271439D01*
X121500000Y-130335000D01*
X141850000Y-130335000D01*
X142169541Y-130271439D01*
X142440434Y-130090434D01*
X152618844Y-119912024D01*
X152646120Y-120049151D01*
X152957189Y-120514698D01*
X153339275Y-120770000D01*
X152957189Y-121025302D01*
X152837118Y-121205000D01*
X151760000Y-121205000D01*
X151440459Y-121268561D01*
X151169566Y-121449566D01*
X150409566Y-122209566D01*
X150228561Y-122480459D01*
X150165000Y-122800000D01*
X150165000Y-126656493D01*
X150075345Y-126693538D01*
X149615154Y-127152927D01*
X149365794Y-127753453D01*
X149365226Y-128403694D01*
X149613538Y-129004655D01*
X150072927Y-129464846D01*
X150165000Y-129503078D01*
X150165000Y-130043438D01*
X149995345Y-130113538D01*
X149535154Y-130572927D01*
X149285794Y-131173453D01*
X149285226Y-131823694D01*
X149533538Y-132424655D01*
X149992927Y-132884846D01*
X150593453Y-133134206D01*
X151243694Y-133134774D01*
X151844655Y-132886462D01*
X152079363Y-132652163D01*
X160107443Y-132652163D01*
X160206042Y-132918965D01*
X160815582Y-133145401D01*
X161465377Y-133121341D01*
X161953958Y-132918965D01*
X162052557Y-132652163D01*
X161080000Y-131679605D01*
X160107443Y-132652163D01*
X152079363Y-132652163D01*
X152304846Y-132427073D01*
X152554206Y-131826547D01*
X152554722Y-131235582D01*
X159434599Y-131235582D01*
X159458659Y-131885377D01*
X159661035Y-132373958D01*
X159927837Y-132472557D01*
X160900395Y-131500000D01*
X161259605Y-131500000D01*
X162232163Y-132472557D01*
X162498965Y-132373958D01*
X162725401Y-131764418D01*
X162701341Y-131114623D01*
X162665532Y-131028172D01*
X170332538Y-131028172D01*
X170737709Y-132008761D01*
X171487293Y-132759655D01*
X172467173Y-133166536D01*
X173528172Y-133167462D01*
X174508761Y-132762291D01*
X175259655Y-132012707D01*
X175666536Y-131032827D01*
X175667462Y-129971828D01*
X175262291Y-128991239D01*
X174512707Y-128240345D01*
X173532827Y-127833464D01*
X172471828Y-127832538D01*
X171491239Y-128237709D01*
X170740345Y-128987293D01*
X170333464Y-129967173D01*
X170332538Y-131028172D01*
X162665532Y-131028172D01*
X162498965Y-130626042D01*
X162232163Y-130527443D01*
X161259605Y-131500000D01*
X160900395Y-131500000D01*
X159927837Y-130527443D01*
X159661035Y-130626042D01*
X159434599Y-131235582D01*
X152554722Y-131235582D01*
X152554774Y-131176306D01*
X152306462Y-130575345D01*
X152079351Y-130347837D01*
X160107443Y-130347837D01*
X161080000Y-131320395D01*
X162052557Y-130347837D01*
X161953958Y-130081035D01*
X161344418Y-129854599D01*
X160694623Y-129878659D01*
X160206042Y-130081035D01*
X160107443Y-130347837D01*
X152079351Y-130347837D01*
X151847073Y-130115154D01*
X151835000Y-130110141D01*
X151835000Y-129503507D01*
X151924655Y-129466462D01*
X152384846Y-129007073D01*
X152634206Y-128406547D01*
X152634774Y-127756306D01*
X152516078Y-127469039D01*
X152608096Y-127469039D01*
X152768959Y-127857423D01*
X153144866Y-128272389D01*
X153650959Y-128511914D01*
X153873000Y-128390629D01*
X153873000Y-127247000D01*
X154127000Y-127247000D01*
X154127000Y-128390629D01*
X154349041Y-128511914D01*
X154855134Y-128272389D01*
X155193362Y-127899016D01*
X156030590Y-127899016D01*
X156086271Y-128129611D01*
X156569078Y-128297622D01*
X157079428Y-128268083D01*
X157413729Y-128129611D01*
X157469410Y-127899016D01*
X158530590Y-127899016D01*
X158586271Y-128129611D01*
X159069078Y-128297622D01*
X159579428Y-128268083D01*
X159913729Y-128129611D01*
X159969410Y-127899016D01*
X159250000Y-127179605D01*
X158530590Y-127899016D01*
X157469410Y-127899016D01*
X156750000Y-127179605D01*
X156030590Y-127899016D01*
X155193362Y-127899016D01*
X155231041Y-127857423D01*
X155391904Y-127469039D01*
X155269915Y-127247000D01*
X154127000Y-127247000D01*
X153873000Y-127247000D01*
X152730085Y-127247000D01*
X152608096Y-127469039D01*
X152516078Y-127469039D01*
X152386462Y-127155345D01*
X151927073Y-126695154D01*
X151835000Y-126656922D01*
X151835000Y-123145868D01*
X152105868Y-122875000D01*
X152837118Y-122875000D01*
X152957189Y-123054698D01*
X153339275Y-123310000D01*
X152957189Y-123565302D01*
X152646120Y-124030849D01*
X152536887Y-124580000D01*
X152646120Y-125129151D01*
X152957189Y-125594698D01*
X153361703Y-125864986D01*
X153144866Y-125967611D01*
X152768959Y-126382577D01*
X152608096Y-126770961D01*
X152730085Y-126993000D01*
X153873000Y-126993000D01*
X153873000Y-126973000D01*
X154127000Y-126973000D01*
X154127000Y-126993000D01*
X155269915Y-126993000D01*
X155365468Y-126819078D01*
X155452378Y-126819078D01*
X155481917Y-127329428D01*
X155620389Y-127663729D01*
X155850984Y-127719410D01*
X156570395Y-127000000D01*
X155850984Y-126280590D01*
X155620389Y-126336271D01*
X155452378Y-126819078D01*
X155365468Y-126819078D01*
X155391904Y-126770961D01*
X155231041Y-126382577D01*
X154855134Y-125967611D01*
X154638297Y-125864986D01*
X155042811Y-125594698D01*
X155162882Y-125415000D01*
X155515938Y-125415000D01*
X155635910Y-125601441D01*
X155848110Y-125746431D01*
X156100000Y-125797440D01*
X156262385Y-125797440D01*
X156086271Y-125870389D01*
X156030590Y-126100984D01*
X156750000Y-126820395D01*
X157469410Y-126100984D01*
X157413729Y-125870389D01*
X157204098Y-125797440D01*
X157400000Y-125797440D01*
X157414032Y-125794800D01*
X158059666Y-126440434D01*
X158079524Y-126453703D01*
X158010460Y-126652169D01*
X157879611Y-126336271D01*
X157649016Y-126280590D01*
X156929605Y-127000000D01*
X157649016Y-127719410D01*
X157879611Y-127663729D01*
X157989540Y-127347831D01*
X158120389Y-127663729D01*
X158350984Y-127719410D01*
X159070395Y-127000000D01*
X159056253Y-126985858D01*
X159235858Y-126806253D01*
X159250000Y-126820395D01*
X159264143Y-126806253D01*
X159443748Y-126985858D01*
X159429605Y-127000000D01*
X160149016Y-127719410D01*
X160278768Y-127688079D01*
X160577189Y-128134698D01*
X161042736Y-128445767D01*
X161591887Y-128555000D01*
X161648113Y-128555000D01*
X162197264Y-128445767D01*
X162662811Y-128134698D01*
X162973880Y-127669151D01*
X163083113Y-127120000D01*
X162996586Y-126685000D01*
X166380046Y-126685000D01*
X165875345Y-126893538D01*
X165415154Y-127352927D01*
X165165794Y-127953453D01*
X165165226Y-128603694D01*
X165413538Y-129204655D01*
X165872927Y-129664846D01*
X166473453Y-129914206D01*
X167123694Y-129914774D01*
X167724655Y-129666462D01*
X168184846Y-129207073D01*
X168434206Y-128606547D01*
X168434774Y-127956306D01*
X168186462Y-127355345D01*
X167727073Y-126895154D01*
X167220966Y-126685000D01*
X176980000Y-126685000D01*
X177299541Y-126621439D01*
X177570434Y-126440434D01*
X179163863Y-124847005D01*
X179253453Y-124884206D01*
X179903694Y-124884774D01*
X180504655Y-124636462D01*
X180964846Y-124177073D01*
X181214206Y-123576547D01*
X181214774Y-122926306D01*
X180966462Y-122325345D01*
X180507073Y-121865154D01*
X179984702Y-121648247D01*
X180424655Y-121466462D01*
X180884846Y-121007073D01*
X181134206Y-120406547D01*
X181134774Y-119756306D01*
X180965314Y-119346182D01*
X183915000Y-122295868D01*
X183915000Y-124156493D01*
X183825345Y-124193538D01*
X183365154Y-124652927D01*
X183115794Y-125253453D01*
X183115226Y-125903694D01*
X183363538Y-126504655D01*
X183822927Y-126964846D01*
X184423453Y-127214206D01*
X185073694Y-127214774D01*
X185674655Y-126966462D01*
X186134846Y-126507073D01*
X186384206Y-125906547D01*
X186384774Y-125256306D01*
X186136462Y-124655345D01*
X185677073Y-124195154D01*
X185585000Y-124156922D01*
X185585000Y-121950000D01*
X185521439Y-121630459D01*
X185340434Y-121359566D01*
X181290434Y-117309566D01*
X181115871Y-117192927D01*
X181019541Y-117128561D01*
X180700000Y-117065000D01*
X178000000Y-117065000D01*
X177680459Y-117128561D01*
X177584129Y-117192927D01*
X177409566Y-117309566D01*
X176273384Y-118445748D01*
X175676306Y-118445226D01*
X175075345Y-118693538D01*
X174615154Y-119152927D01*
X174365794Y-119753453D01*
X174365226Y-120403694D01*
X174613538Y-121004655D01*
X175072927Y-121464846D01*
X175673453Y-121714206D01*
X176323694Y-121714774D01*
X176924655Y-121466462D01*
X177384846Y-121007073D01*
X177634206Y-120406547D01*
X177634774Y-119756306D01*
X177544074Y-119536794D01*
X178345868Y-118735000D01*
X178533811Y-118735000D01*
X178115154Y-119152927D01*
X177865794Y-119753453D01*
X177865226Y-120403694D01*
X178113538Y-121004655D01*
X178572927Y-121464846D01*
X179095298Y-121681753D01*
X178655345Y-121863538D01*
X178195154Y-122322927D01*
X177945794Y-122923453D01*
X177945226Y-123573694D01*
X177983298Y-123665834D01*
X176634132Y-125015000D01*
X163065868Y-125015000D01*
X163476134Y-124604734D01*
X163657140Y-124333840D01*
X163720700Y-124014300D01*
X163720700Y-123573694D01*
X167785226Y-123573694D01*
X168033538Y-124174655D01*
X168492927Y-124634846D01*
X169093453Y-124884206D01*
X169743694Y-124884774D01*
X170344655Y-124636462D01*
X170804846Y-124177073D01*
X171054206Y-123576547D01*
X171054774Y-122926306D01*
X170806462Y-122325345D01*
X170347073Y-121865154D01*
X169746547Y-121615794D01*
X169096306Y-121615226D01*
X168495345Y-121863538D01*
X168035154Y-122322927D01*
X167785794Y-122923453D01*
X167785226Y-123573694D01*
X163720700Y-123573694D01*
X163720700Y-118443694D01*
X165165226Y-118443694D01*
X165413538Y-119044655D01*
X165872927Y-119504846D01*
X166473453Y-119754206D01*
X167123694Y-119754774D01*
X167724655Y-119506462D01*
X168184846Y-119047073D01*
X168434206Y-118446547D01*
X168434774Y-117796306D01*
X168186462Y-117195345D01*
X167727073Y-116735154D01*
X167126547Y-116485794D01*
X166476306Y-116485226D01*
X165875345Y-116733538D01*
X165415154Y-117192927D01*
X165165794Y-117793453D01*
X165165226Y-118443694D01*
X163720700Y-118443694D01*
X163720700Y-111965700D01*
X163709621Y-111910000D01*
X163657140Y-111646160D01*
X163476134Y-111375266D01*
X156767005Y-104666137D01*
X156804206Y-104576547D01*
X156804774Y-103926306D01*
X156556462Y-103325345D01*
X156097073Y-102865154D01*
X155496547Y-102615794D01*
X154846306Y-102615226D01*
X154245345Y-102863538D01*
X153785154Y-103322927D01*
X153535794Y-103923453D01*
X153535226Y-104573694D01*
X153783538Y-105174655D01*
X154242927Y-105634846D01*
X154843453Y-105884206D01*
X155493694Y-105884774D01*
X155585834Y-105846702D01*
X162050700Y-112311568D01*
X162050700Y-113658857D01*
X162007073Y-113615154D01*
X161406547Y-113365794D01*
X160756306Y-113365226D01*
X160155345Y-113613538D01*
X159695154Y-114072927D01*
X159445794Y-114673453D01*
X159445226Y-115323694D01*
X159693538Y-115924655D01*
X160152927Y-116384846D01*
X160753453Y-116634206D01*
X161403694Y-116634774D01*
X162004655Y-116386462D01*
X162050700Y-116340497D01*
X162050700Y-118145080D01*
X161648113Y-118065000D01*
X161591887Y-118065000D01*
X161042736Y-118174233D01*
X160577189Y-118485302D01*
X160457118Y-118665000D01*
X157195868Y-118665000D01*
X155640434Y-117109566D01*
X155557582Y-117054206D01*
X155369541Y-116928561D01*
X155050000Y-116865000D01*
X153650000Y-116865000D01*
X153330459Y-116928561D01*
X153142418Y-117054206D01*
X153059566Y-117109566D01*
X152616662Y-117552470D01*
X152386462Y-116995345D01*
X151927073Y-116535154D01*
X151706479Y-116443555D01*
X151844655Y-116386462D01*
X152304846Y-115927073D01*
X152554206Y-115326547D01*
X152554774Y-114676306D01*
X152306462Y-114075345D01*
X151847073Y-113615154D01*
X151246547Y-113365794D01*
X150596306Y-113365226D01*
X149995345Y-113613538D01*
X149535154Y-114072927D01*
X149285794Y-114673453D01*
X149285226Y-115323694D01*
X149533538Y-115924655D01*
X149992927Y-116384846D01*
X150213521Y-116476445D01*
X150075345Y-116533538D01*
X149615154Y-116992927D01*
X149365794Y-117593453D01*
X149365226Y-118243694D01*
X149613538Y-118844655D01*
X150072927Y-119304846D01*
X150632098Y-119537034D01*
X141504132Y-128665000D01*
X122578292Y-128665000D01*
X122663729Y-128629611D01*
X122719410Y-128399016D01*
X122000000Y-127679605D01*
X121985858Y-127693748D01*
X121806252Y-127514142D01*
X121820395Y-127500000D01*
X122179605Y-127500000D01*
X122899016Y-128219410D01*
X123129611Y-128163729D01*
X123297622Y-127680922D01*
X123268083Y-127170572D01*
X123129611Y-126836271D01*
X122899016Y-126780590D01*
X122179605Y-127500000D01*
X121820395Y-127500000D01*
X121100984Y-126780590D01*
X120870389Y-126836271D01*
X120797440Y-127045902D01*
X120797440Y-126850000D01*
X120753162Y-126614683D01*
X120744347Y-126600984D01*
X121280590Y-126600984D01*
X122000000Y-127320395D01*
X122719410Y-126600984D01*
X122663729Y-126370389D01*
X122180922Y-126202378D01*
X121670572Y-126231917D01*
X121336271Y-126370389D01*
X121280590Y-126600984D01*
X120744347Y-126600984D01*
X120614090Y-126398559D01*
X120401890Y-126253569D01*
X120150000Y-126202560D01*
X119383428Y-126202560D01*
X119138400Y-125957532D01*
X119138400Y-123427675D01*
X119332110Y-123560031D01*
X119584000Y-123611040D01*
X121616000Y-123611040D01*
X121851317Y-123566762D01*
X122067441Y-123427690D01*
X122212431Y-123215490D01*
X122263440Y-122963600D01*
X122263440Y-121236400D01*
X122219162Y-121001083D01*
X122201991Y-120974398D01*
X134314190Y-120974398D01*
X134524686Y-121483837D01*
X134914113Y-121873944D01*
X135423184Y-122085329D01*
X135974398Y-122085810D01*
X136483837Y-121875314D01*
X136873944Y-121485887D01*
X136969975Y-121254619D01*
X137064686Y-121483837D01*
X137454113Y-121873944D01*
X137963184Y-122085329D01*
X138514398Y-122085810D01*
X139023837Y-121875314D01*
X139413944Y-121485887D01*
X139625329Y-120976816D01*
X139625810Y-120425602D01*
X139415314Y-119916163D01*
X139025887Y-119526056D01*
X138516816Y-119314671D01*
X137965602Y-119314190D01*
X137456163Y-119524686D01*
X137066056Y-119914113D01*
X136970025Y-120145381D01*
X136875314Y-119916163D01*
X136485887Y-119526056D01*
X135976816Y-119314671D01*
X135425602Y-119314190D01*
X134916163Y-119524686D01*
X134526056Y-119914113D01*
X134314671Y-120423184D01*
X134314190Y-120974398D01*
X122201991Y-120974398D01*
X122080090Y-120784959D01*
X121867890Y-120639969D01*
X121826561Y-120631600D01*
X121844415Y-120619670D01*
X122169271Y-120133489D01*
X122283345Y-119560000D01*
X122169271Y-118986511D01*
X121844415Y-118500330D01*
X121529634Y-118290000D01*
X121844415Y-118079670D01*
X122169271Y-117593489D01*
X122283345Y-117020000D01*
X122169271Y-116446511D01*
X121844415Y-115960330D01*
X121534931Y-115753539D01*
X121950732Y-115382036D01*
X122204709Y-114854791D01*
X122207358Y-114839026D01*
X122086217Y-114607000D01*
X120727000Y-114607000D01*
X120727000Y-114627000D01*
X120473000Y-114627000D01*
X120473000Y-114607000D01*
X120453000Y-114607000D01*
X120453000Y-114353000D01*
X120473000Y-114353000D01*
X120473000Y-113139076D01*
X120727000Y-113139076D01*
X120727000Y-114353000D01*
X122086217Y-114353000D01*
X122207358Y-114120974D01*
X122204709Y-114105209D01*
X121950732Y-113577964D01*
X121514320Y-113188046D01*
X120961913Y-112994816D01*
X120727000Y-113139076D01*
X120473000Y-113139076D01*
X120238087Y-112994816D01*
X119685680Y-113188046D01*
X119249268Y-113577964D01*
X119138400Y-113808121D01*
X119138400Y-111440000D01*
X124772968Y-111440000D01*
X124886768Y-112012112D01*
X125210843Y-112497125D01*
X125529433Y-112710000D01*
X125210843Y-112922875D01*
X124886768Y-113407888D01*
X124772968Y-113980000D01*
X124886768Y-114552112D01*
X125210843Y-115037125D01*
X125529433Y-115250000D01*
X125210843Y-115462875D01*
X124886768Y-115947888D01*
X124772968Y-116520000D01*
X124886768Y-117092112D01*
X125210843Y-117577125D01*
X125695856Y-117901200D01*
X126267968Y-118015000D01*
X126612032Y-118015000D01*
X127184144Y-117901200D01*
X127669157Y-117577125D01*
X127993232Y-117092112D01*
X128107032Y-116520000D01*
X127993232Y-115947888D01*
X127669157Y-115462875D01*
X127350567Y-115250000D01*
X127669157Y-115037125D01*
X127993232Y-114552112D01*
X128107032Y-113980000D01*
X127993232Y-113407888D01*
X127669157Y-112922875D01*
X127350567Y-112710000D01*
X127669157Y-112497125D01*
X127993232Y-112012112D01*
X128107032Y-111440000D01*
X127993232Y-110867888D01*
X127669157Y-110382875D01*
X127184144Y-110058800D01*
X126612032Y-109945000D01*
X126267968Y-109945000D01*
X125695856Y-110058800D01*
X125210843Y-110382875D01*
X124886768Y-110867888D01*
X124772968Y-111440000D01*
X119138400Y-111440000D01*
X119138400Y-108791000D01*
X119124564Y-108721440D01*
X119074840Y-108471460D01*
X118893834Y-108200566D01*
X118275586Y-107582318D01*
X118414559Y-107374329D01*
X118522833Y-106830000D01*
X118414559Y-106285671D01*
X118106222Y-105824211D01*
X117710801Y-105560000D01*
X118106222Y-105295789D01*
X118220339Y-105125000D01*
X118344132Y-105125000D01*
X121759566Y-108540434D01*
X122030460Y-108721440D01*
X122350000Y-108785000D01*
X138004132Y-108785000D01*
X143789566Y-114570434D01*
X144060460Y-114751440D01*
X144380000Y-114815000D01*
X145382424Y-114815000D01*
X145530843Y-115037125D01*
X145849433Y-115250000D01*
X145530843Y-115462875D01*
X145206768Y-115947888D01*
X145092968Y-116520000D01*
X145206768Y-117092112D01*
X145530843Y-117577125D01*
X146015856Y-117901200D01*
X146587968Y-118015000D01*
X146932032Y-118015000D01*
X147504144Y-117901200D01*
X147989157Y-117577125D01*
X148313232Y-117092112D01*
X148427032Y-116520000D01*
X148313232Y-115947888D01*
X147989157Y-115462875D01*
X147670567Y-115250000D01*
X147989157Y-115037125D01*
X148313232Y-114552112D01*
X148427032Y-113980000D01*
X148313232Y-113407888D01*
X147989157Y-112922875D01*
X147670567Y-112710000D01*
X147989157Y-112497125D01*
X148313232Y-112012112D01*
X148427032Y-111440000D01*
X148313232Y-110867888D01*
X148170113Y-110653694D01*
X150615226Y-110653694D01*
X150863538Y-111254655D01*
X151322927Y-111714846D01*
X151923453Y-111964206D01*
X152573694Y-111964774D01*
X153174655Y-111716462D01*
X153634846Y-111257073D01*
X153884206Y-110656547D01*
X153884774Y-110006306D01*
X153636462Y-109405345D01*
X153177073Y-108945154D01*
X152576547Y-108695794D01*
X151926306Y-108695226D01*
X151325345Y-108943538D01*
X150865154Y-109402927D01*
X150615794Y-110003453D01*
X150615226Y-110653694D01*
X148170113Y-110653694D01*
X147989157Y-110382875D01*
X147670567Y-110170000D01*
X147989157Y-109957125D01*
X148313232Y-109472112D01*
X148427032Y-108900000D01*
X148313232Y-108327888D01*
X147989157Y-107842875D01*
X147670567Y-107630000D01*
X147989157Y-107417125D01*
X148313232Y-106932112D01*
X148427032Y-106360000D01*
X148313232Y-105787888D01*
X147989157Y-105302875D01*
X147504144Y-104978800D01*
X146932032Y-104865000D01*
X146587968Y-104865000D01*
X146015856Y-104978800D01*
X145530843Y-105302875D01*
X145206768Y-105787888D01*
X145092968Y-106360000D01*
X145206768Y-106932112D01*
X145530843Y-107417125D01*
X145849433Y-107630000D01*
X145530843Y-107842875D01*
X145206768Y-108327888D01*
X145092968Y-108900000D01*
X145206768Y-109472112D01*
X145530843Y-109957125D01*
X145849433Y-110170000D01*
X145530843Y-110382875D01*
X145206768Y-110867888D01*
X145092968Y-111440000D01*
X145206768Y-112012112D01*
X145530843Y-112497125D01*
X145849433Y-112710000D01*
X145530843Y-112922875D01*
X145382424Y-113145000D01*
X144725868Y-113145000D01*
X138940434Y-107359566D01*
X138894032Y-107328561D01*
X138669541Y-107178561D01*
X138350000Y-107115000D01*
X127845751Y-107115000D01*
X128031194Y-106721770D01*
X128031389Y-106718461D01*
X127910201Y-106487000D01*
X126567000Y-106487000D01*
X126567000Y-106507000D01*
X126313000Y-106507000D01*
X126313000Y-106487000D01*
X124969799Y-106487000D01*
X124848611Y-106718461D01*
X124848806Y-106721770D01*
X125034249Y-107115000D01*
X122695868Y-107115000D01*
X121582407Y-106001539D01*
X124848611Y-106001539D01*
X124969799Y-106233000D01*
X126313000Y-106233000D01*
X126313000Y-105023199D01*
X126567000Y-105023199D01*
X126567000Y-106233000D01*
X127910201Y-106233000D01*
X128031389Y-106001539D01*
X128031194Y-105998230D01*
X127782285Y-105470420D01*
X127350339Y-105078041D01*
X126801116Y-104880828D01*
X126567000Y-105023199D01*
X126313000Y-105023199D01*
X126078884Y-104880828D01*
X125529661Y-105078041D01*
X125097715Y-105470420D01*
X124848806Y-105998230D01*
X124848611Y-106001539D01*
X121582407Y-106001539D01*
X119280434Y-103699566D01*
X119220570Y-103659566D01*
X119009541Y-103518561D01*
X118690000Y-103455000D01*
X118340168Y-103455000D01*
X124941357Y-96853811D01*
X125210843Y-97257125D01*
X125529433Y-97470000D01*
X125210843Y-97682875D01*
X124886768Y-98167888D01*
X124772968Y-98740000D01*
X124886768Y-99312112D01*
X125210843Y-99797125D01*
X125529433Y-100010000D01*
X125210843Y-100222875D01*
X124886768Y-100707888D01*
X124772968Y-101280000D01*
X124886768Y-101852112D01*
X125210843Y-102337125D01*
X125695856Y-102661200D01*
X126267968Y-102775000D01*
X126612032Y-102775000D01*
X127184144Y-102661200D01*
X127669157Y-102337125D01*
X127993232Y-101852112D01*
X128107032Y-101280000D01*
X127993232Y-100707888D01*
X127669157Y-100222875D01*
X127350567Y-100010000D01*
X127669157Y-99797125D01*
X127993232Y-99312112D01*
X128107032Y-98740000D01*
X127993232Y-98167888D01*
X127669157Y-97682875D01*
X127350567Y-97470000D01*
X127669157Y-97257125D01*
X127993232Y-96772112D01*
X128107032Y-96200000D01*
X127993232Y-95627888D01*
X127669157Y-95142875D01*
X127350567Y-94930000D01*
X127669157Y-94717125D01*
X127993232Y-94232112D01*
X128107032Y-93660000D01*
X145092968Y-93660000D01*
X145206768Y-94232112D01*
X145530843Y-94717125D01*
X145849433Y-94930000D01*
X145530843Y-95142875D01*
X145206768Y-95627888D01*
X145092968Y-96200000D01*
X145206768Y-96772112D01*
X145530843Y-97257125D01*
X145849433Y-97470000D01*
X145530843Y-97682875D01*
X145206768Y-98167888D01*
X145092968Y-98740000D01*
X145206768Y-99312112D01*
X145530843Y-99797125D01*
X145849433Y-100010000D01*
X145530843Y-100222875D01*
X145206768Y-100707888D01*
X145092968Y-101280000D01*
X145206768Y-101852112D01*
X145530843Y-102337125D01*
X146015856Y-102661200D01*
X146587968Y-102775000D01*
X146932032Y-102775000D01*
X147504144Y-102661200D01*
X147989157Y-102337125D01*
X148313232Y-101852112D01*
X148427032Y-101280000D01*
X148313232Y-100707888D01*
X148170113Y-100493694D01*
X150615226Y-100493694D01*
X150863538Y-101094655D01*
X151322927Y-101554846D01*
X151923453Y-101804206D01*
X152573694Y-101804774D01*
X153174655Y-101556462D01*
X153176120Y-101555000D01*
X161330000Y-101555000D01*
X161860017Y-101449573D01*
X162087700Y-101297440D01*
X162150000Y-101297440D01*
X162385317Y-101253162D01*
X162601441Y-101114090D01*
X162746431Y-100901890D01*
X162797440Y-100650000D01*
X162797440Y-100454540D01*
X162909995Y-100726943D01*
X163165000Y-100982394D01*
X163165000Y-101404132D01*
X161659566Y-102909566D01*
X161478561Y-103180459D01*
X161415000Y-103500000D01*
X161415000Y-107250000D01*
X161478561Y-107569541D01*
X161579402Y-107720460D01*
X161659566Y-107840434D01*
X163159566Y-109340434D01*
X163430459Y-109521439D01*
X163750000Y-109585000D01*
X165561832Y-109585000D01*
X168606518Y-112629686D01*
X168512653Y-112647348D01*
X168296529Y-112786420D01*
X168151539Y-112998620D01*
X168100530Y-113250510D01*
X168100530Y-115249490D01*
X168144808Y-115484807D01*
X168283880Y-115700931D01*
X168496080Y-115845921D01*
X168747970Y-115896930D01*
X170746950Y-115896930D01*
X170982267Y-115852652D01*
X171198391Y-115713580D01*
X171246609Y-115643010D01*
X171283880Y-115700931D01*
X171496080Y-115845921D01*
X171747970Y-115896930D01*
X173746950Y-115896930D01*
X173982267Y-115852652D01*
X174198391Y-115713580D01*
X174312706Y-115546274D01*
X174776866Y-116010434D01*
X175047759Y-116191439D01*
X175367300Y-116255000D01*
X183326493Y-116255000D01*
X183363538Y-116344655D01*
X183822927Y-116804846D01*
X184423453Y-117054206D01*
X185073694Y-117054774D01*
X185674655Y-116806462D01*
X186134846Y-116347073D01*
X186384206Y-115746547D01*
X186384774Y-115096306D01*
X186136462Y-114495345D01*
X185677073Y-114035154D01*
X185611032Y-114007731D01*
X185635317Y-114003162D01*
X185851441Y-113864090D01*
X185996431Y-113651890D01*
X186047440Y-113400000D01*
X186047440Y-112100000D01*
X186003162Y-111864683D01*
X185864090Y-111648559D01*
X185651890Y-111503569D01*
X185400000Y-111452560D01*
X185237615Y-111452560D01*
X185413729Y-111379611D01*
X185469410Y-111149016D01*
X184750000Y-110429605D01*
X184030590Y-111149016D01*
X184086271Y-111379611D01*
X184295902Y-111452560D01*
X184100000Y-111452560D01*
X183864683Y-111496838D01*
X183648559Y-111635910D01*
X183503569Y-111848110D01*
X183452560Y-112100000D01*
X183452560Y-113400000D01*
X183496838Y-113635317D01*
X183635910Y-113851441D01*
X183848110Y-113996431D01*
X183893101Y-114005542D01*
X183825345Y-114033538D01*
X183365154Y-114492927D01*
X183326922Y-114585000D01*
X175713168Y-114585000D01*
X174787734Y-113659566D01*
X174567125Y-113512160D01*
X174516841Y-113478561D01*
X174394390Y-113454204D01*
X174394390Y-113250510D01*
X174350112Y-113015193D01*
X174211040Y-112799069D01*
X173998840Y-112654079D01*
X173746950Y-112603070D01*
X171747970Y-112603070D01*
X171512653Y-112647348D01*
X171296529Y-112786420D01*
X171248311Y-112856990D01*
X171211040Y-112799069D01*
X170998840Y-112654079D01*
X170746950Y-112603070D01*
X170582500Y-112603070D01*
X170582500Y-112589800D01*
X170518939Y-112270259D01*
X170337934Y-111999366D01*
X169410731Y-111072163D01*
X175027443Y-111072163D01*
X175126042Y-111338965D01*
X175735582Y-111565401D01*
X176385377Y-111541341D01*
X176873958Y-111338965D01*
X176972557Y-111072163D01*
X178527443Y-111072163D01*
X178626042Y-111338965D01*
X179235582Y-111565401D01*
X179885377Y-111541341D01*
X180373958Y-111338965D01*
X180472557Y-111072163D01*
X179500000Y-110099605D01*
X178527443Y-111072163D01*
X176972557Y-111072163D01*
X176000000Y-110099605D01*
X175027443Y-111072163D01*
X169410731Y-111072163D01*
X167994150Y-109655582D01*
X174354599Y-109655582D01*
X174378659Y-110305377D01*
X174581035Y-110793958D01*
X174847837Y-110892557D01*
X175820395Y-109920000D01*
X176179605Y-109920000D01*
X177152163Y-110892557D01*
X177418965Y-110793958D01*
X177645401Y-110184418D01*
X177625820Y-109655582D01*
X177854599Y-109655582D01*
X177878659Y-110305377D01*
X178081035Y-110793958D01*
X178347837Y-110892557D01*
X179320395Y-109920000D01*
X179679605Y-109920000D01*
X180652163Y-110892557D01*
X180918965Y-110793958D01*
X181145401Y-110184418D01*
X181141131Y-110069078D01*
X183452378Y-110069078D01*
X183481917Y-110579428D01*
X183620389Y-110913729D01*
X183850984Y-110969410D01*
X184570395Y-110250000D01*
X184929605Y-110250000D01*
X185649016Y-110969410D01*
X185879611Y-110913729D01*
X186047622Y-110430922D01*
X186018083Y-109920572D01*
X185879611Y-109586271D01*
X185649016Y-109530590D01*
X184929605Y-110250000D01*
X184570395Y-110250000D01*
X183850984Y-109530590D01*
X183620389Y-109586271D01*
X183452378Y-110069078D01*
X181141131Y-110069078D01*
X181121341Y-109534623D01*
X181045276Y-109350984D01*
X184030590Y-109350984D01*
X184750000Y-110070395D01*
X185469410Y-109350984D01*
X185413729Y-109120389D01*
X184930922Y-108952378D01*
X184420572Y-108981917D01*
X184086271Y-109120389D01*
X184030590Y-109350984D01*
X181045276Y-109350984D01*
X180918965Y-109046042D01*
X180652163Y-108947443D01*
X179679605Y-109920000D01*
X179320395Y-109920000D01*
X178347837Y-108947443D01*
X178081035Y-109046042D01*
X177854599Y-109655582D01*
X177625820Y-109655582D01*
X177621341Y-109534623D01*
X177418965Y-109046042D01*
X177152163Y-108947443D01*
X176179605Y-109920000D01*
X175820395Y-109920000D01*
X174847837Y-108947443D01*
X174581035Y-109046042D01*
X174354599Y-109655582D01*
X167994150Y-109655582D01*
X166498134Y-108159566D01*
X166381358Y-108081539D01*
X166227241Y-107978561D01*
X165907700Y-107915000D01*
X164095868Y-107915000D01*
X163504562Y-107323694D01*
X174285226Y-107323694D01*
X174533538Y-107924655D01*
X174992927Y-108384846D01*
X175199482Y-108470615D01*
X175126042Y-108501035D01*
X175027443Y-108767837D01*
X176000000Y-109740395D01*
X176972557Y-108767837D01*
X178527443Y-108767837D01*
X179500000Y-109740395D01*
X180472557Y-108767837D01*
X180373958Y-108501035D01*
X179764418Y-108274599D01*
X179114623Y-108298659D01*
X178626042Y-108501035D01*
X178527443Y-108767837D01*
X176972557Y-108767837D01*
X176873958Y-108501035D01*
X176712515Y-108441061D01*
X176844655Y-108386462D01*
X177079363Y-108152163D01*
X185107443Y-108152163D01*
X185206042Y-108418965D01*
X185815582Y-108645401D01*
X186465377Y-108621341D01*
X186953958Y-108418965D01*
X187052557Y-108152163D01*
X186080000Y-107179605D01*
X185107443Y-108152163D01*
X177079363Y-108152163D01*
X177304846Y-107927073D01*
X177554206Y-107326547D01*
X177554722Y-106735582D01*
X184434599Y-106735582D01*
X184458659Y-107385377D01*
X184661035Y-107873958D01*
X184927837Y-107972557D01*
X185900395Y-107000000D01*
X186259605Y-107000000D01*
X187232163Y-107972557D01*
X187498965Y-107873958D01*
X187725401Y-107264418D01*
X187701341Y-106614623D01*
X187498965Y-106126042D01*
X187232163Y-106027443D01*
X186259605Y-107000000D01*
X185900395Y-107000000D01*
X184927837Y-106027443D01*
X184661035Y-106126042D01*
X184434599Y-106735582D01*
X177554722Y-106735582D01*
X177554774Y-106676306D01*
X177306462Y-106075345D01*
X177079351Y-105847837D01*
X185107443Y-105847837D01*
X186080000Y-106820395D01*
X187052557Y-105847837D01*
X186953958Y-105581035D01*
X186344418Y-105354599D01*
X185694623Y-105378659D01*
X185206042Y-105581035D01*
X185107443Y-105847837D01*
X177079351Y-105847837D01*
X176847073Y-105615154D01*
X176246547Y-105365794D01*
X175596306Y-105365226D01*
X174995345Y-105613538D01*
X174535154Y-106072927D01*
X174285794Y-106673453D01*
X174285226Y-107323694D01*
X163504562Y-107323694D01*
X163085000Y-106904132D01*
X163085000Y-105402163D01*
X164357443Y-105402163D01*
X164456042Y-105668965D01*
X165065582Y-105895401D01*
X165715377Y-105871341D01*
X166203958Y-105668965D01*
X166302557Y-105402163D01*
X165330000Y-104429605D01*
X164357443Y-105402163D01*
X163085000Y-105402163D01*
X163085000Y-103985582D01*
X163684599Y-103985582D01*
X163708659Y-104635377D01*
X163911035Y-105123958D01*
X164177837Y-105222557D01*
X165150395Y-104250000D01*
X165509605Y-104250000D01*
X166482163Y-105222557D01*
X166748965Y-105123958D01*
X166975401Y-104514418D01*
X166971672Y-104413694D01*
X168112686Y-104413694D01*
X168360998Y-105014655D01*
X168820387Y-105474846D01*
X169420913Y-105724206D01*
X170071154Y-105724774D01*
X170672115Y-105476462D01*
X171132306Y-105017073D01*
X171170538Y-104925000D01*
X171323953Y-104925000D01*
X171360998Y-105014655D01*
X171820387Y-105474846D01*
X172420913Y-105724206D01*
X173071154Y-105724774D01*
X173672115Y-105476462D01*
X174132306Y-105017073D01*
X174381666Y-104416547D01*
X174382234Y-103766306D01*
X174133922Y-103165345D01*
X173917333Y-102948377D01*
X177965000Y-102948377D01*
X177965000Y-103051623D01*
X178165577Y-104059994D01*
X178736774Y-104914849D01*
X179591629Y-105486046D01*
X180600000Y-105686623D01*
X181608371Y-105486046D01*
X182463226Y-104914849D01*
X183034423Y-104059994D01*
X183235000Y-103051623D01*
X183235000Y-102948377D01*
X183034423Y-101940006D01*
X182463226Y-101085151D01*
X181608371Y-100513954D01*
X180600000Y-100313377D01*
X179591629Y-100513954D01*
X178736774Y-101085151D01*
X178165577Y-101940006D01*
X177965000Y-102948377D01*
X173917333Y-102948377D01*
X173674533Y-102705154D01*
X173074007Y-102455794D01*
X172423766Y-102455226D01*
X171822805Y-102703538D01*
X171362614Y-103162927D01*
X171324382Y-103255000D01*
X171170967Y-103255000D01*
X171133922Y-103165345D01*
X170674533Y-102705154D01*
X170074007Y-102455794D01*
X169423766Y-102455226D01*
X168822805Y-102703538D01*
X168362614Y-103162927D01*
X168113254Y-103763453D01*
X168112686Y-104413694D01*
X166971672Y-104413694D01*
X166951341Y-103864623D01*
X166748965Y-103376042D01*
X166482163Y-103277443D01*
X165509605Y-104250000D01*
X165150395Y-104250000D01*
X164177837Y-103277443D01*
X163911035Y-103376042D01*
X163684599Y-103985582D01*
X163085000Y-103985582D01*
X163085000Y-103845868D01*
X163833031Y-103097837D01*
X164357443Y-103097837D01*
X165330000Y-104070395D01*
X166302557Y-103097837D01*
X166203958Y-102831035D01*
X165594418Y-102604599D01*
X164944623Y-102628659D01*
X164456042Y-102831035D01*
X164357443Y-103097837D01*
X163833031Y-103097837D01*
X164590434Y-102340434D01*
X164771440Y-102069540D01*
X164835000Y-101750000D01*
X164835000Y-100982137D01*
X165088735Y-100728845D01*
X165241037Y-100362060D01*
X172717545Y-100362060D01*
X172800884Y-100615953D01*
X173365306Y-100821590D01*
X173965458Y-100795579D01*
X174399116Y-100615953D01*
X174482455Y-100362060D01*
X173600000Y-99479605D01*
X172717545Y-100362060D01*
X165241037Y-100362060D01*
X165284777Y-100256724D01*
X165285223Y-99745519D01*
X165090005Y-99273057D01*
X164882617Y-99065306D01*
X172078410Y-99065306D01*
X172104421Y-99665458D01*
X172284047Y-100099116D01*
X172537940Y-100182455D01*
X173420395Y-99300000D01*
X173779605Y-99300000D01*
X174662060Y-100182455D01*
X174915953Y-100099116D01*
X175121590Y-99534694D01*
X175095579Y-98934542D01*
X174915953Y-98500884D01*
X174662060Y-98417545D01*
X173779605Y-99300000D01*
X173420395Y-99300000D01*
X172537940Y-98417545D01*
X172284047Y-98500884D01*
X172078410Y-99065306D01*
X164882617Y-99065306D01*
X164728845Y-98911265D01*
X164256724Y-98715223D01*
X163745519Y-98714777D01*
X163273057Y-98909995D01*
X162911265Y-99271155D01*
X162797440Y-99545276D01*
X162797440Y-99350000D01*
X162753162Y-99114683D01*
X162614090Y-98898559D01*
X162401890Y-98753569D01*
X162150000Y-98702560D01*
X161940193Y-98702560D01*
X161500000Y-98615000D01*
X161059807Y-98702560D01*
X160850000Y-98702560D01*
X160614683Y-98746838D01*
X160555378Y-98785000D01*
X158885000Y-98785000D01*
X158885000Y-98237940D01*
X172717545Y-98237940D01*
X173600000Y-99120395D01*
X174482455Y-98237940D01*
X174399116Y-97984047D01*
X173834694Y-97778410D01*
X173234542Y-97804421D01*
X172800884Y-97984047D01*
X172717545Y-98237940D01*
X158885000Y-98237940D01*
X158885000Y-97543956D01*
X158935326Y-97594282D01*
X159048166Y-97481442D01*
X159257353Y-97842289D01*
X160194650Y-98219824D01*
X161205077Y-98209933D01*
X162092647Y-97842289D01*
X162301835Y-97481440D01*
X160675000Y-95854605D01*
X160660858Y-95868748D01*
X160481253Y-95689143D01*
X160495395Y-95675000D01*
X160854605Y-95675000D01*
X162481440Y-97301835D01*
X162842289Y-97092647D01*
X163219824Y-96155350D01*
X163209933Y-95144923D01*
X162983821Y-94599040D01*
X172089738Y-94599040D01*
X172319138Y-95154229D01*
X172743537Y-95579370D01*
X173298325Y-95809738D01*
X173899040Y-95810262D01*
X174454229Y-95580862D01*
X174879370Y-95156463D01*
X175109738Y-94601675D01*
X175110262Y-94000960D01*
X174880862Y-93445771D01*
X174456463Y-93020630D01*
X173901675Y-92790262D01*
X173300960Y-92789738D01*
X172745771Y-93019138D01*
X172320630Y-93443537D01*
X172090262Y-93998325D01*
X172089738Y-94599040D01*
X162983821Y-94599040D01*
X162842289Y-94257353D01*
X162481440Y-94048165D01*
X160854605Y-95675000D01*
X160495395Y-95675000D01*
X160481253Y-95660858D01*
X160660858Y-95481253D01*
X160675000Y-95495395D01*
X162301835Y-93868560D01*
X162092647Y-93507711D01*
X161155350Y-93130176D01*
X160144923Y-93140067D01*
X159785088Y-93289116D01*
X159912580Y-92982081D01*
X159913417Y-92022130D01*
X159781770Y-91703520D01*
X160194650Y-91869824D01*
X161205077Y-91859933D01*
X162092647Y-91492289D01*
X162301835Y-91131440D01*
X160675000Y-89504605D01*
X160660858Y-89518748D01*
X160481253Y-89339143D01*
X160495395Y-89325000D01*
X160854605Y-89325000D01*
X162481440Y-90951835D01*
X162842289Y-90742647D01*
X163219824Y-89805350D01*
X163209933Y-88794923D01*
X162842289Y-87907353D01*
X162481440Y-87698165D01*
X160854605Y-89325000D01*
X160495395Y-89325000D01*
X158868560Y-87698165D01*
X158507711Y-87907353D01*
X158130176Y-88844650D01*
X158140067Y-89855077D01*
X158289116Y-90214912D01*
X157982081Y-90087420D01*
X157022130Y-90086583D01*
X156703520Y-90218230D01*
X156869824Y-89805350D01*
X156859933Y-88794923D01*
X156492289Y-87907353D01*
X156131440Y-87698165D01*
X154504605Y-89325000D01*
X154518748Y-89339143D01*
X154339143Y-89518748D01*
X154325000Y-89504605D01*
X152698165Y-91131440D01*
X152907353Y-91492289D01*
X153844650Y-91869824D01*
X154855077Y-91859933D01*
X155214912Y-91710884D01*
X155087420Y-92017919D01*
X155086583Y-92977870D01*
X155218230Y-93296480D01*
X154805350Y-93130176D01*
X153794923Y-93140067D01*
X152907353Y-93507711D01*
X152698165Y-93868560D01*
X154325000Y-95495395D01*
X154339143Y-95481253D01*
X154518748Y-95660858D01*
X154504605Y-95675000D01*
X154518748Y-95689143D01*
X154339143Y-95868748D01*
X154325000Y-95854605D01*
X152698165Y-97481440D01*
X152907353Y-97842289D01*
X153844650Y-98219824D01*
X154855077Y-98209933D01*
X155742647Y-97842289D01*
X155951834Y-97481442D01*
X156064674Y-97594282D01*
X156115000Y-97543956D01*
X156115000Y-98785000D01*
X153176702Y-98785000D01*
X152576547Y-98535794D01*
X151926306Y-98535226D01*
X151325345Y-98783538D01*
X150865154Y-99242927D01*
X150615794Y-99843453D01*
X150615226Y-100493694D01*
X148170113Y-100493694D01*
X147989157Y-100222875D01*
X147670567Y-100010000D01*
X147989157Y-99797125D01*
X148313232Y-99312112D01*
X148427032Y-98740000D01*
X148313232Y-98167888D01*
X147989157Y-97682875D01*
X147670567Y-97470000D01*
X147989157Y-97257125D01*
X148313232Y-96772112D01*
X148427032Y-96200000D01*
X148313232Y-95627888D01*
X148023752Y-95194650D01*
X151780176Y-95194650D01*
X151790067Y-96205077D01*
X152157711Y-97092647D01*
X152518560Y-97301835D01*
X154145395Y-95675000D01*
X152518560Y-94048165D01*
X152157711Y-94257353D01*
X151780176Y-95194650D01*
X148023752Y-95194650D01*
X147989157Y-95142875D01*
X147670567Y-94930000D01*
X147989157Y-94717125D01*
X148313232Y-94232112D01*
X148427032Y-93660000D01*
X148313232Y-93087888D01*
X147989157Y-92602875D01*
X147504144Y-92278800D01*
X146932032Y-92165000D01*
X146587968Y-92165000D01*
X146015856Y-92278800D01*
X145530843Y-92602875D01*
X145206768Y-93087888D01*
X145092968Y-93660000D01*
X128107032Y-93660000D01*
X127993232Y-93087888D01*
X127669157Y-92602875D01*
X127184144Y-92278800D01*
X126612032Y-92165000D01*
X126267968Y-92165000D01*
X125695856Y-92278800D01*
X125210843Y-92602875D01*
X124886768Y-93087888D01*
X124772968Y-93660000D01*
X124886768Y-94232112D01*
X125012760Y-94420672D01*
X120035000Y-99398432D01*
X120035000Y-97045868D01*
X128236218Y-88844650D01*
X151780176Y-88844650D01*
X151790067Y-89855077D01*
X152157711Y-90742647D01*
X152518560Y-90951835D01*
X154145395Y-89325000D01*
X152518560Y-87698165D01*
X152157711Y-87907353D01*
X151780176Y-88844650D01*
X128236218Y-88844650D01*
X129562308Y-87518560D01*
X152698165Y-87518560D01*
X154325000Y-89145395D01*
X155951835Y-87518560D01*
X159048165Y-87518560D01*
X160675000Y-89145395D01*
X162301835Y-87518560D01*
X162092647Y-87157711D01*
X161155350Y-86780176D01*
X160144923Y-86790067D01*
X159257353Y-87157711D01*
X159048165Y-87518560D01*
X155951835Y-87518560D01*
X155742647Y-87157711D01*
X154805350Y-86780176D01*
X153794923Y-86790067D01*
X152907353Y-87157711D01*
X152698165Y-87518560D01*
X129562308Y-87518560D01*
X130776268Y-86304600D01*
X164373732Y-86304600D01*
X170409566Y-92340434D01*
X170409566Y-92340434D01*
G37*
X170409566Y-92340434D02*
X170680459Y-92521439D01*
X171000000Y-92585000D01*
X175404132Y-92585000D01*
X182709566Y-99890434D01*
X182980459Y-100071439D01*
X183300000Y-100135000D01*
X186811193Y-100135000D01*
X186819138Y-100154229D01*
X187243537Y-100579370D01*
X187798325Y-100809738D01*
X188399040Y-100810262D01*
X188954229Y-100580862D01*
X189315000Y-100220721D01*
X189315000Y-133315000D01*
X90685000Y-133315000D01*
X90685000Y-131028172D01*
X94332538Y-131028172D01*
X94737709Y-132008761D01*
X95487293Y-132759655D01*
X96467173Y-133166536D01*
X97528172Y-133167462D01*
X98508761Y-132762291D01*
X99259655Y-132012707D01*
X99666536Y-131032827D01*
X99667462Y-129971828D01*
X99262291Y-128991239D01*
X98772039Y-128500130D01*
X100102690Y-128500130D01*
X100102690Y-131499870D01*
X100146968Y-131735187D01*
X100286040Y-131951311D01*
X100498240Y-132096301D01*
X100750130Y-132147310D01*
X103749870Y-132147310D01*
X103985187Y-132103032D01*
X104201311Y-131963960D01*
X104346301Y-131751760D01*
X104397310Y-131499870D01*
X104397310Y-128523247D01*
X104577767Y-128487352D01*
X104741201Y-128650787D01*
X104974590Y-128747460D01*
X105042150Y-128747460D01*
X105200900Y-128588710D01*
X105200900Y-128012186D01*
X105301091Y-127862239D01*
X105385585Y-127437460D01*
X105301091Y-127012681D01*
X105200900Y-126862734D01*
X105200900Y-126286210D01*
X105042150Y-126127460D01*
X104974590Y-126127460D01*
X104741201Y-126224133D01*
X104577767Y-126387568D01*
X104275585Y-126327460D01*
X103926215Y-126327460D01*
X103501436Y-126411954D01*
X103141326Y-126652571D01*
X102900709Y-127012681D01*
X102816215Y-127437460D01*
X102898810Y-127852690D01*
X100750130Y-127852690D01*
X100514813Y-127896968D01*
X100298689Y-128036040D01*
X100153699Y-128248240D01*
X100102690Y-128500130D01*
X98772039Y-128500130D01*
X98512707Y-128240345D01*
X97532827Y-127833464D01*
X96471828Y-127832538D01*
X95491239Y-128237709D01*
X94740345Y-128987293D01*
X94333464Y-129967173D01*
X94332538Y-131028172D01*
X90685000Y-131028172D01*
X90685000Y-126624372D01*
X90855585Y-126879670D01*
X91341766Y-127204526D01*
X91915255Y-127318600D01*
X92284745Y-127318600D01*
X92858234Y-127204526D01*
X93344415Y-126879670D01*
X93669271Y-126393489D01*
X93783345Y-125820000D01*
X93669271Y-125246511D01*
X93344415Y-124760330D01*
X93029634Y-124550000D01*
X93344415Y-124339670D01*
X93669271Y-123853489D01*
X93783345Y-123280000D01*
X93669271Y-122706511D01*
X93344415Y-122220330D01*
X93029634Y-122010000D01*
X93344415Y-121799670D01*
X93669271Y-121313489D01*
X93783345Y-120740000D01*
X93669271Y-120166511D01*
X93344415Y-119680330D01*
X93029634Y-119470000D01*
X93344415Y-119259670D01*
X93669271Y-118773489D01*
X93783345Y-118200000D01*
X93669271Y-117626511D01*
X93344415Y-117140330D01*
X93029634Y-116930000D01*
X93344415Y-116719670D01*
X93669271Y-116233489D01*
X93783345Y-115660000D01*
X93669271Y-115086511D01*
X93344415Y-114600330D01*
X93029634Y-114390000D01*
X93344415Y-114179670D01*
X93669271Y-113693489D01*
X93729555Y-113390423D01*
X95379565Y-115040434D01*
X95469401Y-115100460D01*
X95650459Y-115221439D01*
X95970000Y-115285000D01*
X99959661Y-115285000D01*
X100073778Y-115455789D01*
X100469199Y-115720000D01*
X100073778Y-115984211D01*
X99765441Y-116445671D01*
X99657167Y-116990000D01*
X99765441Y-117534329D01*
X100073778Y-117995789D01*
X100469199Y-118260000D01*
X100073778Y-118524211D01*
X99765441Y-118985671D01*
X99657167Y-119530000D01*
X99765441Y-120074329D01*
X100073778Y-120535789D01*
X100469199Y-120800000D01*
X100073778Y-121064211D01*
X99765441Y-121525671D01*
X99657167Y-122070000D01*
X99765441Y-122614329D01*
X100073778Y-123075789D01*
X100535238Y-123384126D01*
X101079567Y-123492400D01*
X101860433Y-123492400D01*
X102404762Y-123384126D01*
X102866222Y-123075789D01*
X103174559Y-122614329D01*
X103282833Y-122070000D01*
X103174559Y-121525671D01*
X102866222Y-121064211D01*
X102599510Y-120886000D01*
X106323760Y-120886000D01*
X106323760Y-122918000D01*
X106368038Y-123153317D01*
X106507110Y-123369441D01*
X106719310Y-123514431D01*
X106971200Y-123565440D01*
X110628800Y-123565440D01*
X110864117Y-123521162D01*
X111080241Y-123382090D01*
X111225231Y-123169890D01*
X111276240Y-122918000D01*
X111276240Y-120886000D01*
X111231962Y-120650683D01*
X111092890Y-120434559D01*
X110880690Y-120289569D01*
X110628800Y-120238560D01*
X106971200Y-120238560D01*
X106735883Y-120282838D01*
X106519759Y-120421910D01*
X106374769Y-120634110D01*
X106323760Y-120886000D01*
X102599510Y-120886000D01*
X102470801Y-120800000D01*
X102866222Y-120535789D01*
X103174559Y-120074329D01*
X103282833Y-119530000D01*
X103174559Y-118985671D01*
X102866222Y-118524211D01*
X102470801Y-118260000D01*
X102866222Y-117995789D01*
X103174559Y-117534329D01*
X103282833Y-116990000D01*
X103174559Y-116445671D01*
X102866222Y-115984211D01*
X102470801Y-115720000D01*
X102674714Y-115583750D01*
X105371000Y-115583750D01*
X105371000Y-116440310D01*
X105467673Y-116673699D01*
X105646302Y-116852327D01*
X105879691Y-116949000D01*
X106228250Y-116949000D01*
X106387000Y-116790250D01*
X106387000Y-115425000D01*
X105529750Y-115425000D01*
X105371000Y-115583750D01*
X102674714Y-115583750D01*
X102866222Y-115455789D01*
X102980339Y-115285000D01*
X103063300Y-115285000D01*
X103382841Y-115221439D01*
X103653734Y-115040434D01*
X104027468Y-114666700D01*
X105371000Y-114666700D01*
X105371000Y-115012250D01*
X105529750Y-115171000D01*
X106387000Y-115171000D01*
X106387000Y-115151000D01*
X106641000Y-115151000D01*
X106641000Y-115171000D01*
X106661000Y-115171000D01*
X106661000Y-115425000D01*
X106641000Y-115425000D01*
X106641000Y-116790250D01*
X106799750Y-116949000D01*
X107148309Y-116949000D01*
X107381698Y-116852327D01*
X107560327Y-116673699D01*
X107657000Y-116440310D01*
X107657000Y-116380113D01*
X107688838Y-116549317D01*
X107827910Y-116765441D01*
X108040110Y-116910431D01*
X108292000Y-116961440D01*
X109308000Y-116961440D01*
X109543317Y-116917162D01*
X109759441Y-116778090D01*
X109904431Y-116565890D01*
X109942543Y-116377686D01*
X109974838Y-116549317D01*
X110113910Y-116765441D01*
X110326110Y-116910431D01*
X110578000Y-116961440D01*
X111594000Y-116961440D01*
X111829317Y-116917162D01*
X112045441Y-116778090D01*
X112190431Y-116565890D01*
X112241440Y-116314000D01*
X112241440Y-114282000D01*
X112199905Y-114061263D01*
X112246168Y-114015000D01*
X114996046Y-114015000D01*
X114991673Y-114023004D01*
X114974990Y-114102940D01*
X115097148Y-114323000D01*
X116583000Y-114323000D01*
X116583000Y-114303000D01*
X116837000Y-114303000D01*
X116837000Y-114323000D01*
X116857000Y-114323000D01*
X116857000Y-114577000D01*
X116837000Y-114577000D01*
X116837000Y-114597000D01*
X116583000Y-114597000D01*
X116583000Y-114577000D01*
X115097148Y-114577000D01*
X114974990Y-114797060D01*
X114991673Y-114876996D01*
X115258809Y-115365986D01*
X115692738Y-115715525D01*
X115708830Y-115720246D01*
X115313778Y-115984211D01*
X115005441Y-116445671D01*
X114897167Y-116990000D01*
X115005441Y-117534329D01*
X115313778Y-117995789D01*
X115709199Y-118260000D01*
X115313778Y-118524211D01*
X115005441Y-118985671D01*
X114897167Y-119530000D01*
X115005441Y-120074329D01*
X115313778Y-120535789D01*
X115485460Y-120650503D01*
X115331683Y-120679438D01*
X115115559Y-120818510D01*
X114970569Y-121030710D01*
X114919560Y-121282600D01*
X114919560Y-122857400D01*
X114963838Y-123092717D01*
X115102910Y-123308841D01*
X115315110Y-123453831D01*
X115567000Y-123504840D01*
X117468400Y-123504840D01*
X117468400Y-124665000D01*
X108500000Y-124665000D01*
X108180459Y-124728561D01*
X107909566Y-124909566D01*
X107310466Y-125508666D01*
X107129461Y-125779559D01*
X107065900Y-126099100D01*
X107065900Y-126174987D01*
X107052790Y-126166029D01*
X106800900Y-126115020D01*
X106400900Y-126115020D01*
X106165583Y-126159298D01*
X105949459Y-126298370D01*
X105943523Y-126307058D01*
X105860599Y-126224133D01*
X105627210Y-126127460D01*
X105559650Y-126127460D01*
X105400900Y-126286210D01*
X105400900Y-127310460D01*
X105447900Y-127310460D01*
X105447900Y-127564460D01*
X105400900Y-127564460D01*
X105400900Y-128588710D01*
X105559650Y-128747460D01*
X105627210Y-128747460D01*
X105860599Y-128650787D01*
X105943152Y-128568234D01*
X106149010Y-128708891D01*
X106400900Y-128759900D01*
X106800900Y-128759900D01*
X107036217Y-128715622D01*
X107252341Y-128576550D01*
X107253290Y-128575161D01*
X107449010Y-128708891D01*
X107700900Y-128759900D01*
X108100900Y-128759900D01*
X108336217Y-128715622D01*
X108552341Y-128576550D01*
X108614573Y-128485470D01*
X108852690Y-128532835D01*
X108852690Y-131499870D01*
X108896968Y-131735187D01*
X109036040Y-131951311D01*
X109248240Y-132096301D01*
X109500130Y-132147310D01*
X112499870Y-132147310D01*
X112735187Y-132103032D01*
X112951311Y-131963960D01*
X113096301Y-131751760D01*
X113147310Y-131499870D01*
X113147310Y-128500130D01*
X113103032Y-128264813D01*
X112963960Y-128048689D01*
X112751760Y-127903699D01*
X112499870Y-127852690D01*
X110302990Y-127852690D01*
X110385585Y-127437460D01*
X110301091Y-127012681D01*
X110060474Y-126652571D01*
X109700364Y-126411954D01*
X109313491Y-126335000D01*
X117474686Y-126335000D01*
X117531961Y-126622941D01*
X117602534Y-126728561D01*
X117712966Y-126893834D01*
X118202560Y-127383428D01*
X118202560Y-128150000D01*
X118246838Y-128385317D01*
X118385910Y-128601441D01*
X118598110Y-128746431D01*
X118850000Y-128797440D01*
X119616572Y-128797440D01*
X120909566Y-130090434D01*
X121180459Y-130271439D01*
X121500000Y-130335000D01*
X141850000Y-130335000D01*
X142169541Y-130271439D01*
X142440434Y-130090434D01*
X152618844Y-119912024D01*
X152646120Y-120049151D01*
X152957189Y-120514698D01*
X153339275Y-120770000D01*
X152957189Y-121025302D01*
X152837118Y-121205000D01*
X151760000Y-121205000D01*
X151440459Y-121268561D01*
X151169566Y-121449566D01*
X150409566Y-122209566D01*
X150228561Y-122480459D01*
X150165000Y-122800000D01*
X150165000Y-126656493D01*
X150075345Y-126693538D01*
X149615154Y-127152927D01*
X149365794Y-127753453D01*
X149365226Y-128403694D01*
X149613538Y-129004655D01*
X150072927Y-129464846D01*
X150165000Y-129503078D01*
X150165000Y-130043438D01*
X149995345Y-130113538D01*
X149535154Y-130572927D01*
X149285794Y-131173453D01*
X149285226Y-131823694D01*
X149533538Y-132424655D01*
X149992927Y-132884846D01*
X150593453Y-133134206D01*
X151243694Y-133134774D01*
X151844655Y-132886462D01*
X152079363Y-132652163D01*
X160107443Y-132652163D01*
X160206042Y-132918965D01*
X160815582Y-133145401D01*
X161465377Y-133121341D01*
X161953958Y-132918965D01*
X162052557Y-132652163D01*
X161080000Y-131679605D01*
X160107443Y-132652163D01*
X152079363Y-132652163D01*
X152304846Y-132427073D01*
X152554206Y-131826547D01*
X152554722Y-131235582D01*
X159434599Y-131235582D01*
X159458659Y-131885377D01*
X159661035Y-132373958D01*
X159927837Y-132472557D01*
X160900395Y-131500000D01*
X161259605Y-131500000D01*
X162232163Y-132472557D01*
X162498965Y-132373958D01*
X162725401Y-131764418D01*
X162701341Y-131114623D01*
X162665532Y-131028172D01*
X170332538Y-131028172D01*
X170737709Y-132008761D01*
X171487293Y-132759655D01*
X172467173Y-133166536D01*
X173528172Y-133167462D01*
X174508761Y-132762291D01*
X175259655Y-132012707D01*
X175666536Y-131032827D01*
X175667462Y-129971828D01*
X175262291Y-128991239D01*
X174512707Y-128240345D01*
X173532827Y-127833464D01*
X172471828Y-127832538D01*
X171491239Y-128237709D01*
X170740345Y-128987293D01*
X170333464Y-129967173D01*
X170332538Y-131028172D01*
X162665532Y-131028172D01*
X162498965Y-130626042D01*
X162232163Y-130527443D01*
X161259605Y-131500000D01*
X160900395Y-131500000D01*
X159927837Y-130527443D01*
X159661035Y-130626042D01*
X159434599Y-131235582D01*
X152554722Y-131235582D01*
X152554774Y-131176306D01*
X152306462Y-130575345D01*
X152079351Y-130347837D01*
X160107443Y-130347837D01*
X161080000Y-131320395D01*
X162052557Y-130347837D01*
X161953958Y-130081035D01*
X161344418Y-129854599D01*
X160694623Y-129878659D01*
X160206042Y-130081035D01*
X160107443Y-130347837D01*
X152079351Y-130347837D01*
X151847073Y-130115154D01*
X151835000Y-130110141D01*
X151835000Y-129503507D01*
X151924655Y-129466462D01*
X152384846Y-129007073D01*
X152634206Y-128406547D01*
X152634774Y-127756306D01*
X152516078Y-127469039D01*
X152608096Y-127469039D01*
X152768959Y-127857423D01*
X153144866Y-128272389D01*
X153650959Y-128511914D01*
X153873000Y-128390629D01*
X153873000Y-127247000D01*
X154127000Y-127247000D01*
X154127000Y-128390629D01*
X154349041Y-128511914D01*
X154855134Y-128272389D01*
X155193362Y-127899016D01*
X156030590Y-127899016D01*
X156086271Y-128129611D01*
X156569078Y-128297622D01*
X157079428Y-128268083D01*
X157413729Y-128129611D01*
X157469410Y-127899016D01*
X158530590Y-127899016D01*
X158586271Y-128129611D01*
X159069078Y-128297622D01*
X159579428Y-128268083D01*
X159913729Y-128129611D01*
X159969410Y-127899016D01*
X159250000Y-127179605D01*
X158530590Y-127899016D01*
X157469410Y-127899016D01*
X156750000Y-127179605D01*
X156030590Y-127899016D01*
X155193362Y-127899016D01*
X155231041Y-127857423D01*
X155391904Y-127469039D01*
X155269915Y-127247000D01*
X154127000Y-127247000D01*
X153873000Y-127247000D01*
X152730085Y-127247000D01*
X152608096Y-127469039D01*
X152516078Y-127469039D01*
X152386462Y-127155345D01*
X151927073Y-126695154D01*
X151835000Y-126656922D01*
X151835000Y-123145868D01*
X152105868Y-122875000D01*
X152837118Y-122875000D01*
X152957189Y-123054698D01*
X153339275Y-123310000D01*
X152957189Y-123565302D01*
X152646120Y-124030849D01*
X152536887Y-124580000D01*
X152646120Y-125129151D01*
X152957189Y-125594698D01*
X153361703Y-125864986D01*
X153144866Y-125967611D01*
X152768959Y-126382577D01*
X152608096Y-126770961D01*
X152730085Y-126993000D01*
X153873000Y-126993000D01*
X153873000Y-126973000D01*
X154127000Y-126973000D01*
X154127000Y-126993000D01*
X155269915Y-126993000D01*
X155365468Y-126819078D01*
X155452378Y-126819078D01*
X155481917Y-127329428D01*
X155620389Y-127663729D01*
X155850984Y-127719410D01*
X156570395Y-127000000D01*
X155850984Y-126280590D01*
X155620389Y-126336271D01*
X155452378Y-126819078D01*
X155365468Y-126819078D01*
X155391904Y-126770961D01*
X155231041Y-126382577D01*
X154855134Y-125967611D01*
X154638297Y-125864986D01*
X155042811Y-125594698D01*
X155162882Y-125415000D01*
X155515938Y-125415000D01*
X155635910Y-125601441D01*
X155848110Y-125746431D01*
X156100000Y-125797440D01*
X156262385Y-125797440D01*
X156086271Y-125870389D01*
X156030590Y-126100984D01*
X156750000Y-126820395D01*
X157469410Y-126100984D01*
X157413729Y-125870389D01*
X157204098Y-125797440D01*
X157400000Y-125797440D01*
X157414032Y-125794800D01*
X158059666Y-126440434D01*
X158079524Y-126453703D01*
X158010460Y-126652169D01*
X157879611Y-126336271D01*
X157649016Y-126280590D01*
X156929605Y-127000000D01*
X157649016Y-127719410D01*
X157879611Y-127663729D01*
X157989540Y-127347831D01*
X158120389Y-127663729D01*
X158350984Y-127719410D01*
X159070395Y-127000000D01*
X159056253Y-126985858D01*
X159235858Y-126806253D01*
X159250000Y-126820395D01*
X159264143Y-126806253D01*
X159443748Y-126985858D01*
X159429605Y-127000000D01*
X160149016Y-127719410D01*
X160278768Y-127688079D01*
X160577189Y-128134698D01*
X161042736Y-128445767D01*
X161591887Y-128555000D01*
X161648113Y-128555000D01*
X162197264Y-128445767D01*
X162662811Y-128134698D01*
X162973880Y-127669151D01*
X163083113Y-127120000D01*
X162996586Y-126685000D01*
X166380046Y-126685000D01*
X165875345Y-126893538D01*
X165415154Y-127352927D01*
X165165794Y-127953453D01*
X165165226Y-128603694D01*
X165413538Y-129204655D01*
X165872927Y-129664846D01*
X166473453Y-129914206D01*
X167123694Y-129914774D01*
X167724655Y-129666462D01*
X168184846Y-129207073D01*
X168434206Y-128606547D01*
X168434774Y-127956306D01*
X168186462Y-127355345D01*
X167727073Y-126895154D01*
X167220966Y-126685000D01*
X176980000Y-126685000D01*
X177299541Y-126621439D01*
X177570434Y-126440434D01*
X179163863Y-124847005D01*
X179253453Y-124884206D01*
X179903694Y-124884774D01*
X180504655Y-124636462D01*
X180964846Y-124177073D01*
X181214206Y-123576547D01*
X181214774Y-122926306D01*
X180966462Y-122325345D01*
X180507073Y-121865154D01*
X179984702Y-121648247D01*
X180424655Y-121466462D01*
X180884846Y-121007073D01*
X181134206Y-120406547D01*
X181134774Y-119756306D01*
X180965314Y-119346182D01*
X183915000Y-122295868D01*
X183915000Y-124156493D01*
X183825345Y-124193538D01*
X183365154Y-124652927D01*
X183115794Y-125253453D01*
X183115226Y-125903694D01*
X183363538Y-126504655D01*
X183822927Y-126964846D01*
X184423453Y-127214206D01*
X185073694Y-127214774D01*
X185674655Y-126966462D01*
X186134846Y-126507073D01*
X186384206Y-125906547D01*
X186384774Y-125256306D01*
X186136462Y-124655345D01*
X185677073Y-124195154D01*
X185585000Y-124156922D01*
X185585000Y-121950000D01*
X185521439Y-121630459D01*
X185340434Y-121359566D01*
X181290434Y-117309566D01*
X181115871Y-117192927D01*
X181019541Y-117128561D01*
X180700000Y-117065000D01*
X178000000Y-117065000D01*
X177680459Y-117128561D01*
X177584129Y-117192927D01*
X177409566Y-117309566D01*
X176273384Y-118445748D01*
X175676306Y-118445226D01*
X175075345Y-118693538D01*
X174615154Y-119152927D01*
X174365794Y-119753453D01*
X174365226Y-120403694D01*
X174613538Y-121004655D01*
X175072927Y-121464846D01*
X175673453Y-121714206D01*
X176323694Y-121714774D01*
X176924655Y-121466462D01*
X177384846Y-121007073D01*
X177634206Y-120406547D01*
X177634774Y-119756306D01*
X177544074Y-119536794D01*
X178345868Y-118735000D01*
X178533811Y-118735000D01*
X178115154Y-119152927D01*
X177865794Y-119753453D01*
X177865226Y-120403694D01*
X178113538Y-121004655D01*
X178572927Y-121464846D01*
X179095298Y-121681753D01*
X178655345Y-121863538D01*
X178195154Y-122322927D01*
X177945794Y-122923453D01*
X177945226Y-123573694D01*
X177983298Y-123665834D01*
X176634132Y-125015000D01*
X163065868Y-125015000D01*
X163476134Y-124604734D01*
X163657140Y-124333840D01*
X163720700Y-124014300D01*
X163720700Y-123573694D01*
X167785226Y-123573694D01*
X168033538Y-124174655D01*
X168492927Y-124634846D01*
X169093453Y-124884206D01*
X169743694Y-124884774D01*
X170344655Y-124636462D01*
X170804846Y-124177073D01*
X171054206Y-123576547D01*
X171054774Y-122926306D01*
X170806462Y-122325345D01*
X170347073Y-121865154D01*
X169746547Y-121615794D01*
X169096306Y-121615226D01*
X168495345Y-121863538D01*
X168035154Y-122322927D01*
X167785794Y-122923453D01*
X167785226Y-123573694D01*
X163720700Y-123573694D01*
X163720700Y-118443694D01*
X165165226Y-118443694D01*
X165413538Y-119044655D01*
X165872927Y-119504846D01*
X166473453Y-119754206D01*
X167123694Y-119754774D01*
X167724655Y-119506462D01*
X168184846Y-119047073D01*
X168434206Y-118446547D01*
X168434774Y-117796306D01*
X168186462Y-117195345D01*
X167727073Y-116735154D01*
X167126547Y-116485794D01*
X166476306Y-116485226D01*
X165875345Y-116733538D01*
X165415154Y-117192927D01*
X165165794Y-117793453D01*
X165165226Y-118443694D01*
X163720700Y-118443694D01*
X163720700Y-111965700D01*
X163709621Y-111910000D01*
X163657140Y-111646160D01*
X163476134Y-111375266D01*
X156767005Y-104666137D01*
X156804206Y-104576547D01*
X156804774Y-103926306D01*
X156556462Y-103325345D01*
X156097073Y-102865154D01*
X155496547Y-102615794D01*
X154846306Y-102615226D01*
X154245345Y-102863538D01*
X153785154Y-103322927D01*
X153535794Y-103923453D01*
X153535226Y-104573694D01*
X153783538Y-105174655D01*
X154242927Y-105634846D01*
X154843453Y-105884206D01*
X155493694Y-105884774D01*
X155585834Y-105846702D01*
X162050700Y-112311568D01*
X162050700Y-113658857D01*
X162007073Y-113615154D01*
X161406547Y-113365794D01*
X160756306Y-113365226D01*
X160155345Y-113613538D01*
X159695154Y-114072927D01*
X159445794Y-114673453D01*
X159445226Y-115323694D01*
X159693538Y-115924655D01*
X160152927Y-116384846D01*
X160753453Y-116634206D01*
X161403694Y-116634774D01*
X162004655Y-116386462D01*
X162050700Y-116340497D01*
X162050700Y-118145080D01*
X161648113Y-118065000D01*
X161591887Y-118065000D01*
X161042736Y-118174233D01*
X160577189Y-118485302D01*
X160457118Y-118665000D01*
X157195868Y-118665000D01*
X155640434Y-117109566D01*
X155557582Y-117054206D01*
X155369541Y-116928561D01*
X155050000Y-116865000D01*
X153650000Y-116865000D01*
X153330459Y-116928561D01*
X153142418Y-117054206D01*
X153059566Y-117109566D01*
X152616662Y-117552470D01*
X152386462Y-116995345D01*
X151927073Y-116535154D01*
X151706479Y-116443555D01*
X151844655Y-116386462D01*
X152304846Y-115927073D01*
X152554206Y-115326547D01*
X152554774Y-114676306D01*
X152306462Y-114075345D01*
X151847073Y-113615154D01*
X151246547Y-113365794D01*
X150596306Y-113365226D01*
X149995345Y-113613538D01*
X149535154Y-114072927D01*
X149285794Y-114673453D01*
X149285226Y-115323694D01*
X149533538Y-115924655D01*
X149992927Y-116384846D01*
X150213521Y-116476445D01*
X150075345Y-116533538D01*
X149615154Y-116992927D01*
X149365794Y-117593453D01*
X149365226Y-118243694D01*
X149613538Y-118844655D01*
X150072927Y-119304846D01*
X150632098Y-119537034D01*
X141504132Y-128665000D01*
X122578292Y-128665000D01*
X122663729Y-128629611D01*
X122719410Y-128399016D01*
X122000000Y-127679605D01*
X121985858Y-127693748D01*
X121806252Y-127514142D01*
X121820395Y-127500000D01*
X122179605Y-127500000D01*
X122899016Y-128219410D01*
X123129611Y-128163729D01*
X123297622Y-127680922D01*
X123268083Y-127170572D01*
X123129611Y-126836271D01*
X122899016Y-126780590D01*
X122179605Y-127500000D01*
X121820395Y-127500000D01*
X121100984Y-126780590D01*
X120870389Y-126836271D01*
X120797440Y-127045902D01*
X120797440Y-126850000D01*
X120753162Y-126614683D01*
X120744347Y-126600984D01*
X121280590Y-126600984D01*
X122000000Y-127320395D01*
X122719410Y-126600984D01*
X122663729Y-126370389D01*
X122180922Y-126202378D01*
X121670572Y-126231917D01*
X121336271Y-126370389D01*
X121280590Y-126600984D01*
X120744347Y-126600984D01*
X120614090Y-126398559D01*
X120401890Y-126253569D01*
X120150000Y-126202560D01*
X119383428Y-126202560D01*
X119138400Y-125957532D01*
X119138400Y-123427675D01*
X119332110Y-123560031D01*
X119584000Y-123611040D01*
X121616000Y-123611040D01*
X121851317Y-123566762D01*
X122067441Y-123427690D01*
X122212431Y-123215490D01*
X122263440Y-122963600D01*
X122263440Y-121236400D01*
X122219162Y-121001083D01*
X122201991Y-120974398D01*
X134314190Y-120974398D01*
X134524686Y-121483837D01*
X134914113Y-121873944D01*
X135423184Y-122085329D01*
X135974398Y-122085810D01*
X136483837Y-121875314D01*
X136873944Y-121485887D01*
X136969975Y-121254619D01*
X137064686Y-121483837D01*
X137454113Y-121873944D01*
X137963184Y-122085329D01*
X138514398Y-122085810D01*
X139023837Y-121875314D01*
X139413944Y-121485887D01*
X139625329Y-120976816D01*
X139625810Y-120425602D01*
X139415314Y-119916163D01*
X139025887Y-119526056D01*
X138516816Y-119314671D01*
X137965602Y-119314190D01*
X137456163Y-119524686D01*
X137066056Y-119914113D01*
X136970025Y-120145381D01*
X136875314Y-119916163D01*
X136485887Y-119526056D01*
X135976816Y-119314671D01*
X135425602Y-119314190D01*
X134916163Y-119524686D01*
X134526056Y-119914113D01*
X134314671Y-120423184D01*
X134314190Y-120974398D01*
X122201991Y-120974398D01*
X122080090Y-120784959D01*
X121867890Y-120639969D01*
X121826561Y-120631600D01*
X121844415Y-120619670D01*
X122169271Y-120133489D01*
X122283345Y-119560000D01*
X122169271Y-118986511D01*
X121844415Y-118500330D01*
X121529634Y-118290000D01*
X121844415Y-118079670D01*
X122169271Y-117593489D01*
X122283345Y-117020000D01*
X122169271Y-116446511D01*
X121844415Y-115960330D01*
X121534931Y-115753539D01*
X121950732Y-115382036D01*
X122204709Y-114854791D01*
X122207358Y-114839026D01*
X122086217Y-114607000D01*
X120727000Y-114607000D01*
X120727000Y-114627000D01*
X120473000Y-114627000D01*
X120473000Y-114607000D01*
X120453000Y-114607000D01*
X120453000Y-114353000D01*
X120473000Y-114353000D01*
X120473000Y-113139076D01*
X120727000Y-113139076D01*
X120727000Y-114353000D01*
X122086217Y-114353000D01*
X122207358Y-114120974D01*
X122204709Y-114105209D01*
X121950732Y-113577964D01*
X121514320Y-113188046D01*
X120961913Y-112994816D01*
X120727000Y-113139076D01*
X120473000Y-113139076D01*
X120238087Y-112994816D01*
X119685680Y-113188046D01*
X119249268Y-113577964D01*
X119138400Y-113808121D01*
X119138400Y-111440000D01*
X124772968Y-111440000D01*
X124886768Y-112012112D01*
X125210843Y-112497125D01*
X125529433Y-112710000D01*
X125210843Y-112922875D01*
X124886768Y-113407888D01*
X124772968Y-113980000D01*
X124886768Y-114552112D01*
X125210843Y-115037125D01*
X125529433Y-115250000D01*
X125210843Y-115462875D01*
X124886768Y-115947888D01*
X124772968Y-116520000D01*
X124886768Y-117092112D01*
X125210843Y-117577125D01*
X125695856Y-117901200D01*
X126267968Y-118015000D01*
X126612032Y-118015000D01*
X127184144Y-117901200D01*
X127669157Y-117577125D01*
X127993232Y-117092112D01*
X128107032Y-116520000D01*
X127993232Y-115947888D01*
X127669157Y-115462875D01*
X127350567Y-115250000D01*
X127669157Y-115037125D01*
X127993232Y-114552112D01*
X128107032Y-113980000D01*
X127993232Y-113407888D01*
X127669157Y-112922875D01*
X127350567Y-112710000D01*
X127669157Y-112497125D01*
X127993232Y-112012112D01*
X128107032Y-111440000D01*
X127993232Y-110867888D01*
X127669157Y-110382875D01*
X127184144Y-110058800D01*
X126612032Y-109945000D01*
X126267968Y-109945000D01*
X125695856Y-110058800D01*
X125210843Y-110382875D01*
X124886768Y-110867888D01*
X124772968Y-111440000D01*
X119138400Y-111440000D01*
X119138400Y-108791000D01*
X119124564Y-108721440D01*
X119074840Y-108471460D01*
X118893834Y-108200566D01*
X118275586Y-107582318D01*
X118414559Y-107374329D01*
X118522833Y-106830000D01*
X118414559Y-106285671D01*
X118106222Y-105824211D01*
X117710801Y-105560000D01*
X118106222Y-105295789D01*
X118220339Y-105125000D01*
X118344132Y-105125000D01*
X121759566Y-108540434D01*
X122030460Y-108721440D01*
X122350000Y-108785000D01*
X138004132Y-108785000D01*
X143789566Y-114570434D01*
X144060460Y-114751440D01*
X144380000Y-114815000D01*
X145382424Y-114815000D01*
X145530843Y-115037125D01*
X145849433Y-115250000D01*
X145530843Y-115462875D01*
X145206768Y-115947888D01*
X145092968Y-116520000D01*
X145206768Y-117092112D01*
X145530843Y-117577125D01*
X146015856Y-117901200D01*
X146587968Y-118015000D01*
X146932032Y-118015000D01*
X147504144Y-117901200D01*
X147989157Y-117577125D01*
X148313232Y-117092112D01*
X148427032Y-116520000D01*
X148313232Y-115947888D01*
X147989157Y-115462875D01*
X147670567Y-115250000D01*
X147989157Y-115037125D01*
X148313232Y-114552112D01*
X148427032Y-113980000D01*
X148313232Y-113407888D01*
X147989157Y-112922875D01*
X147670567Y-112710000D01*
X147989157Y-112497125D01*
X148313232Y-112012112D01*
X148427032Y-111440000D01*
X148313232Y-110867888D01*
X148170113Y-110653694D01*
X150615226Y-110653694D01*
X150863538Y-111254655D01*
X151322927Y-111714846D01*
X151923453Y-111964206D01*
X152573694Y-111964774D01*
X153174655Y-111716462D01*
X153634846Y-111257073D01*
X153884206Y-110656547D01*
X153884774Y-110006306D01*
X153636462Y-109405345D01*
X153177073Y-108945154D01*
X152576547Y-108695794D01*
X151926306Y-108695226D01*
X151325345Y-108943538D01*
X150865154Y-109402927D01*
X150615794Y-110003453D01*
X150615226Y-110653694D01*
X148170113Y-110653694D01*
X147989157Y-110382875D01*
X147670567Y-110170000D01*
X147989157Y-109957125D01*
X148313232Y-109472112D01*
X148427032Y-108900000D01*
X148313232Y-108327888D01*
X147989157Y-107842875D01*
X147670567Y-107630000D01*
X147989157Y-107417125D01*
X148313232Y-106932112D01*
X148427032Y-106360000D01*
X148313232Y-105787888D01*
X147989157Y-105302875D01*
X147504144Y-104978800D01*
X146932032Y-104865000D01*
X146587968Y-104865000D01*
X146015856Y-104978800D01*
X145530843Y-105302875D01*
X145206768Y-105787888D01*
X145092968Y-106360000D01*
X145206768Y-106932112D01*
X145530843Y-107417125D01*
X145849433Y-107630000D01*
X145530843Y-107842875D01*
X145206768Y-108327888D01*
X145092968Y-108900000D01*
X145206768Y-109472112D01*
X145530843Y-109957125D01*
X145849433Y-110170000D01*
X145530843Y-110382875D01*
X145206768Y-110867888D01*
X145092968Y-111440000D01*
X145206768Y-112012112D01*
X145530843Y-112497125D01*
X145849433Y-112710000D01*
X145530843Y-112922875D01*
X145382424Y-113145000D01*
X144725868Y-113145000D01*
X138940434Y-107359566D01*
X138894032Y-107328561D01*
X138669541Y-107178561D01*
X138350000Y-107115000D01*
X127845751Y-107115000D01*
X128031194Y-106721770D01*
X128031389Y-106718461D01*
X127910201Y-106487000D01*
X126567000Y-106487000D01*
X126567000Y-106507000D01*
X126313000Y-106507000D01*
X126313000Y-106487000D01*
X124969799Y-106487000D01*
X124848611Y-106718461D01*
X124848806Y-106721770D01*
X125034249Y-107115000D01*
X122695868Y-107115000D01*
X121582407Y-106001539D01*
X124848611Y-106001539D01*
X124969799Y-106233000D01*
X126313000Y-106233000D01*
X126313000Y-105023199D01*
X126567000Y-105023199D01*
X126567000Y-106233000D01*
X127910201Y-106233000D01*
X128031389Y-106001539D01*
X128031194Y-105998230D01*
X127782285Y-105470420D01*
X127350339Y-105078041D01*
X126801116Y-104880828D01*
X126567000Y-105023199D01*
X126313000Y-105023199D01*
X126078884Y-104880828D01*
X125529661Y-105078041D01*
X125097715Y-105470420D01*
X124848806Y-105998230D01*
X124848611Y-106001539D01*
X121582407Y-106001539D01*
X119280434Y-103699566D01*
X119220570Y-103659566D01*
X119009541Y-103518561D01*
X118690000Y-103455000D01*
X118340168Y-103455000D01*
X124941357Y-96853811D01*
X125210843Y-97257125D01*
X125529433Y-97470000D01*
X125210843Y-97682875D01*
X124886768Y-98167888D01*
X124772968Y-98740000D01*
X124886768Y-99312112D01*
X125210843Y-99797125D01*
X125529433Y-100010000D01*
X125210843Y-100222875D01*
X124886768Y-100707888D01*
X124772968Y-101280000D01*
X124886768Y-101852112D01*
X125210843Y-102337125D01*
X125695856Y-102661200D01*
X126267968Y-102775000D01*
X126612032Y-102775000D01*
X127184144Y-102661200D01*
X127669157Y-102337125D01*
X127993232Y-101852112D01*
X128107032Y-101280000D01*
X127993232Y-100707888D01*
X127669157Y-100222875D01*
X127350567Y-100010000D01*
X127669157Y-99797125D01*
X127993232Y-99312112D01*
X128107032Y-98740000D01*
X127993232Y-98167888D01*
X127669157Y-97682875D01*
X127350567Y-97470000D01*
X127669157Y-97257125D01*
X127993232Y-96772112D01*
X128107032Y-96200000D01*
X127993232Y-95627888D01*
X127669157Y-95142875D01*
X127350567Y-94930000D01*
X127669157Y-94717125D01*
X127993232Y-94232112D01*
X128107032Y-93660000D01*
X145092968Y-93660000D01*
X145206768Y-94232112D01*
X145530843Y-94717125D01*
X145849433Y-94930000D01*
X145530843Y-95142875D01*
X145206768Y-95627888D01*
X145092968Y-96200000D01*
X145206768Y-96772112D01*
X145530843Y-97257125D01*
X145849433Y-97470000D01*
X145530843Y-97682875D01*
X145206768Y-98167888D01*
X145092968Y-98740000D01*
X145206768Y-99312112D01*
X145530843Y-99797125D01*
X145849433Y-100010000D01*
X145530843Y-100222875D01*
X145206768Y-100707888D01*
X145092968Y-101280000D01*
X145206768Y-101852112D01*
X145530843Y-102337125D01*
X146015856Y-102661200D01*
X146587968Y-102775000D01*
X146932032Y-102775000D01*
X147504144Y-102661200D01*
X147989157Y-102337125D01*
X148313232Y-101852112D01*
X148427032Y-101280000D01*
X148313232Y-100707888D01*
X148170113Y-100493694D01*
X150615226Y-100493694D01*
X150863538Y-101094655D01*
X151322927Y-101554846D01*
X151923453Y-101804206D01*
X152573694Y-101804774D01*
X153174655Y-101556462D01*
X153176120Y-101555000D01*
X161330000Y-101555000D01*
X161860017Y-101449573D01*
X162087700Y-101297440D01*
X162150000Y-101297440D01*
X162385317Y-101253162D01*
X162601441Y-101114090D01*
X162746431Y-100901890D01*
X162797440Y-100650000D01*
X162797440Y-100454540D01*
X162909995Y-100726943D01*
X163165000Y-100982394D01*
X163165000Y-101404132D01*
X161659566Y-102909566D01*
X161478561Y-103180459D01*
X161415000Y-103500000D01*
X161415000Y-107250000D01*
X161478561Y-107569541D01*
X161579402Y-107720460D01*
X161659566Y-107840434D01*
X163159566Y-109340434D01*
X163430459Y-109521439D01*
X163750000Y-109585000D01*
X165561832Y-109585000D01*
X168606518Y-112629686D01*
X168512653Y-112647348D01*
X168296529Y-112786420D01*
X168151539Y-112998620D01*
X168100530Y-113250510D01*
X168100530Y-115249490D01*
X168144808Y-115484807D01*
X168283880Y-115700931D01*
X168496080Y-115845921D01*
X168747970Y-115896930D01*
X170746950Y-115896930D01*
X170982267Y-115852652D01*
X171198391Y-115713580D01*
X171246609Y-115643010D01*
X171283880Y-115700931D01*
X171496080Y-115845921D01*
X171747970Y-115896930D01*
X173746950Y-115896930D01*
X173982267Y-115852652D01*
X174198391Y-115713580D01*
X174312706Y-115546274D01*
X174776866Y-116010434D01*
X175047759Y-116191439D01*
X175367300Y-116255000D01*
X183326493Y-116255000D01*
X183363538Y-116344655D01*
X183822927Y-116804846D01*
X184423453Y-117054206D01*
X185073694Y-117054774D01*
X185674655Y-116806462D01*
X186134846Y-116347073D01*
X186384206Y-115746547D01*
X186384774Y-115096306D01*
X186136462Y-114495345D01*
X185677073Y-114035154D01*
X185611032Y-114007731D01*
X185635317Y-114003162D01*
X185851441Y-113864090D01*
X185996431Y-113651890D01*
X186047440Y-113400000D01*
X186047440Y-112100000D01*
X186003162Y-111864683D01*
X185864090Y-111648559D01*
X185651890Y-111503569D01*
X185400000Y-111452560D01*
X185237615Y-111452560D01*
X185413729Y-111379611D01*
X185469410Y-111149016D01*
X184750000Y-110429605D01*
X184030590Y-111149016D01*
X184086271Y-111379611D01*
X184295902Y-111452560D01*
X184100000Y-111452560D01*
X183864683Y-111496838D01*
X183648559Y-111635910D01*
X183503569Y-111848110D01*
X183452560Y-112100000D01*
X183452560Y-113400000D01*
X183496838Y-113635317D01*
X183635910Y-113851441D01*
X183848110Y-113996431D01*
X183893101Y-114005542D01*
X183825345Y-114033538D01*
X183365154Y-114492927D01*
X183326922Y-114585000D01*
X175713168Y-114585000D01*
X174787734Y-113659566D01*
X174567125Y-113512160D01*
X174516841Y-113478561D01*
X174394390Y-113454204D01*
X174394390Y-113250510D01*
X174350112Y-113015193D01*
X174211040Y-112799069D01*
X173998840Y-112654079D01*
X173746950Y-112603070D01*
X171747970Y-112603070D01*
X171512653Y-112647348D01*
X171296529Y-112786420D01*
X171248311Y-112856990D01*
X171211040Y-112799069D01*
X170998840Y-112654079D01*
X170746950Y-112603070D01*
X170582500Y-112603070D01*
X170582500Y-112589800D01*
X170518939Y-112270259D01*
X170337934Y-111999366D01*
X169410731Y-111072163D01*
X175027443Y-111072163D01*
X175126042Y-111338965D01*
X175735582Y-111565401D01*
X176385377Y-111541341D01*
X176873958Y-111338965D01*
X176972557Y-111072163D01*
X178527443Y-111072163D01*
X178626042Y-111338965D01*
X179235582Y-111565401D01*
X179885377Y-111541341D01*
X180373958Y-111338965D01*
X180472557Y-111072163D01*
X179500000Y-110099605D01*
X178527443Y-111072163D01*
X176972557Y-111072163D01*
X176000000Y-110099605D01*
X175027443Y-111072163D01*
X169410731Y-111072163D01*
X167994150Y-109655582D01*
X174354599Y-109655582D01*
X174378659Y-110305377D01*
X174581035Y-110793958D01*
X174847837Y-110892557D01*
X175820395Y-109920000D01*
X176179605Y-109920000D01*
X177152163Y-110892557D01*
X177418965Y-110793958D01*
X177645401Y-110184418D01*
X177625820Y-109655582D01*
X177854599Y-109655582D01*
X177878659Y-110305377D01*
X178081035Y-110793958D01*
X178347837Y-110892557D01*
X179320395Y-109920000D01*
X179679605Y-109920000D01*
X180652163Y-110892557D01*
X180918965Y-110793958D01*
X181145401Y-110184418D01*
X181141131Y-110069078D01*
X183452378Y-110069078D01*
X183481917Y-110579428D01*
X183620389Y-110913729D01*
X183850984Y-110969410D01*
X184570395Y-110250000D01*
X184929605Y-110250000D01*
X185649016Y-110969410D01*
X185879611Y-110913729D01*
X186047622Y-110430922D01*
X186018083Y-109920572D01*
X185879611Y-109586271D01*
X185649016Y-109530590D01*
X184929605Y-110250000D01*
X184570395Y-110250000D01*
X183850984Y-109530590D01*
X183620389Y-109586271D01*
X183452378Y-110069078D01*
X181141131Y-110069078D01*
X181121341Y-109534623D01*
X181045276Y-109350984D01*
X184030590Y-109350984D01*
X184750000Y-110070395D01*
X185469410Y-109350984D01*
X185413729Y-109120389D01*
X184930922Y-108952378D01*
X184420572Y-108981917D01*
X184086271Y-109120389D01*
X184030590Y-109350984D01*
X181045276Y-109350984D01*
X180918965Y-109046042D01*
X180652163Y-108947443D01*
X179679605Y-109920000D01*
X179320395Y-109920000D01*
X178347837Y-108947443D01*
X178081035Y-109046042D01*
X177854599Y-109655582D01*
X177625820Y-109655582D01*
X177621341Y-109534623D01*
X177418965Y-109046042D01*
X177152163Y-108947443D01*
X176179605Y-109920000D01*
X175820395Y-109920000D01*
X174847837Y-108947443D01*
X174581035Y-109046042D01*
X174354599Y-109655582D01*
X167994150Y-109655582D01*
X166498134Y-108159566D01*
X166381358Y-108081539D01*
X166227241Y-107978561D01*
X165907700Y-107915000D01*
X164095868Y-107915000D01*
X163504562Y-107323694D01*
X174285226Y-107323694D01*
X174533538Y-107924655D01*
X174992927Y-108384846D01*
X175199482Y-108470615D01*
X175126042Y-108501035D01*
X175027443Y-108767837D01*
X176000000Y-109740395D01*
X176972557Y-108767837D01*
X178527443Y-108767837D01*
X179500000Y-109740395D01*
X180472557Y-108767837D01*
X180373958Y-108501035D01*
X179764418Y-108274599D01*
X179114623Y-108298659D01*
X178626042Y-108501035D01*
X178527443Y-108767837D01*
X176972557Y-108767837D01*
X176873958Y-108501035D01*
X176712515Y-108441061D01*
X176844655Y-108386462D01*
X177079363Y-108152163D01*
X185107443Y-108152163D01*
X185206042Y-108418965D01*
X185815582Y-108645401D01*
X186465377Y-108621341D01*
X186953958Y-108418965D01*
X187052557Y-108152163D01*
X186080000Y-107179605D01*
X185107443Y-108152163D01*
X177079363Y-108152163D01*
X177304846Y-107927073D01*
X177554206Y-107326547D01*
X177554722Y-106735582D01*
X184434599Y-106735582D01*
X184458659Y-107385377D01*
X184661035Y-107873958D01*
X184927837Y-107972557D01*
X185900395Y-107000000D01*
X186259605Y-107000000D01*
X187232163Y-107972557D01*
X187498965Y-107873958D01*
X187725401Y-107264418D01*
X187701341Y-106614623D01*
X187498965Y-106126042D01*
X187232163Y-106027443D01*
X186259605Y-107000000D01*
X185900395Y-107000000D01*
X184927837Y-106027443D01*
X184661035Y-106126042D01*
X184434599Y-106735582D01*
X177554722Y-106735582D01*
X177554774Y-106676306D01*
X177306462Y-106075345D01*
X177079351Y-105847837D01*
X185107443Y-105847837D01*
X186080000Y-106820395D01*
X187052557Y-105847837D01*
X186953958Y-105581035D01*
X186344418Y-105354599D01*
X185694623Y-105378659D01*
X185206042Y-105581035D01*
X185107443Y-105847837D01*
X177079351Y-105847837D01*
X176847073Y-105615154D01*
X176246547Y-105365794D01*
X175596306Y-105365226D01*
X174995345Y-105613538D01*
X174535154Y-106072927D01*
X174285794Y-106673453D01*
X174285226Y-107323694D01*
X163504562Y-107323694D01*
X163085000Y-106904132D01*
X163085000Y-105402163D01*
X164357443Y-105402163D01*
X164456042Y-105668965D01*
X165065582Y-105895401D01*
X165715377Y-105871341D01*
X166203958Y-105668965D01*
X166302557Y-105402163D01*
X165330000Y-104429605D01*
X164357443Y-105402163D01*
X163085000Y-105402163D01*
X163085000Y-103985582D01*
X163684599Y-103985582D01*
X163708659Y-104635377D01*
X163911035Y-105123958D01*
X164177837Y-105222557D01*
X165150395Y-104250000D01*
X165509605Y-104250000D01*
X166482163Y-105222557D01*
X166748965Y-105123958D01*
X166975401Y-104514418D01*
X166971672Y-104413694D01*
X168112686Y-104413694D01*
X168360998Y-105014655D01*
X168820387Y-105474846D01*
X169420913Y-105724206D01*
X170071154Y-105724774D01*
X170672115Y-105476462D01*
X171132306Y-105017073D01*
X171170538Y-104925000D01*
X171323953Y-104925000D01*
X171360998Y-105014655D01*
X171820387Y-105474846D01*
X172420913Y-105724206D01*
X173071154Y-105724774D01*
X173672115Y-105476462D01*
X174132306Y-105017073D01*
X174381666Y-104416547D01*
X174382234Y-103766306D01*
X174133922Y-103165345D01*
X173917333Y-102948377D01*
X177965000Y-102948377D01*
X177965000Y-103051623D01*
X178165577Y-104059994D01*
X178736774Y-104914849D01*
X179591629Y-105486046D01*
X180600000Y-105686623D01*
X181608371Y-105486046D01*
X182463226Y-104914849D01*
X183034423Y-104059994D01*
X183235000Y-103051623D01*
X183235000Y-102948377D01*
X183034423Y-101940006D01*
X182463226Y-101085151D01*
X181608371Y-100513954D01*
X180600000Y-100313377D01*
X179591629Y-100513954D01*
X178736774Y-101085151D01*
X178165577Y-101940006D01*
X177965000Y-102948377D01*
X173917333Y-102948377D01*
X173674533Y-102705154D01*
X173074007Y-102455794D01*
X172423766Y-102455226D01*
X171822805Y-102703538D01*
X171362614Y-103162927D01*
X171324382Y-103255000D01*
X171170967Y-103255000D01*
X171133922Y-103165345D01*
X170674533Y-102705154D01*
X170074007Y-102455794D01*
X169423766Y-102455226D01*
X168822805Y-102703538D01*
X168362614Y-103162927D01*
X168113254Y-103763453D01*
X168112686Y-104413694D01*
X166971672Y-104413694D01*
X166951341Y-103864623D01*
X166748965Y-103376042D01*
X166482163Y-103277443D01*
X165509605Y-104250000D01*
X165150395Y-104250000D01*
X164177837Y-103277443D01*
X163911035Y-103376042D01*
X163684599Y-103985582D01*
X163085000Y-103985582D01*
X163085000Y-103845868D01*
X163833031Y-103097837D01*
X164357443Y-103097837D01*
X165330000Y-104070395D01*
X166302557Y-103097837D01*
X166203958Y-102831035D01*
X165594418Y-102604599D01*
X164944623Y-102628659D01*
X164456042Y-102831035D01*
X164357443Y-103097837D01*
X163833031Y-103097837D01*
X164590434Y-102340434D01*
X164771440Y-102069540D01*
X164835000Y-101750000D01*
X164835000Y-100982137D01*
X165088735Y-100728845D01*
X165241037Y-100362060D01*
X172717545Y-100362060D01*
X172800884Y-100615953D01*
X173365306Y-100821590D01*
X173965458Y-100795579D01*
X174399116Y-100615953D01*
X174482455Y-100362060D01*
X173600000Y-99479605D01*
X172717545Y-100362060D01*
X165241037Y-100362060D01*
X165284777Y-100256724D01*
X165285223Y-99745519D01*
X165090005Y-99273057D01*
X164882617Y-99065306D01*
X172078410Y-99065306D01*
X172104421Y-99665458D01*
X172284047Y-100099116D01*
X172537940Y-100182455D01*
X173420395Y-99300000D01*
X173779605Y-99300000D01*
X174662060Y-100182455D01*
X174915953Y-100099116D01*
X175121590Y-99534694D01*
X175095579Y-98934542D01*
X174915953Y-98500884D01*
X174662060Y-98417545D01*
X173779605Y-99300000D01*
X173420395Y-99300000D01*
X172537940Y-98417545D01*
X172284047Y-98500884D01*
X172078410Y-99065306D01*
X164882617Y-99065306D01*
X164728845Y-98911265D01*
X164256724Y-98715223D01*
X163745519Y-98714777D01*
X163273057Y-98909995D01*
X162911265Y-99271155D01*
X162797440Y-99545276D01*
X162797440Y-99350000D01*
X162753162Y-99114683D01*
X162614090Y-98898559D01*
X162401890Y-98753569D01*
X162150000Y-98702560D01*
X161940193Y-98702560D01*
X161500000Y-98615000D01*
X161059807Y-98702560D01*
X160850000Y-98702560D01*
X160614683Y-98746838D01*
X160555378Y-98785000D01*
X158885000Y-98785000D01*
X158885000Y-98237940D01*
X172717545Y-98237940D01*
X173600000Y-99120395D01*
X174482455Y-98237940D01*
X174399116Y-97984047D01*
X173834694Y-97778410D01*
X173234542Y-97804421D01*
X172800884Y-97984047D01*
X172717545Y-98237940D01*
X158885000Y-98237940D01*
X158885000Y-97543956D01*
X158935326Y-97594282D01*
X159048166Y-97481442D01*
X159257353Y-97842289D01*
X160194650Y-98219824D01*
X161205077Y-98209933D01*
X162092647Y-97842289D01*
X162301835Y-97481440D01*
X160675000Y-95854605D01*
X160660858Y-95868748D01*
X160481253Y-95689143D01*
X160495395Y-95675000D01*
X160854605Y-95675000D01*
X162481440Y-97301835D01*
X162842289Y-97092647D01*
X163219824Y-96155350D01*
X163209933Y-95144923D01*
X162983821Y-94599040D01*
X172089738Y-94599040D01*
X172319138Y-95154229D01*
X172743537Y-95579370D01*
X173298325Y-95809738D01*
X173899040Y-95810262D01*
X174454229Y-95580862D01*
X174879370Y-95156463D01*
X175109738Y-94601675D01*
X175110262Y-94000960D01*
X174880862Y-93445771D01*
X174456463Y-93020630D01*
X173901675Y-92790262D01*
X173300960Y-92789738D01*
X172745771Y-93019138D01*
X172320630Y-93443537D01*
X172090262Y-93998325D01*
X172089738Y-94599040D01*
X162983821Y-94599040D01*
X162842289Y-94257353D01*
X162481440Y-94048165D01*
X160854605Y-95675000D01*
X160495395Y-95675000D01*
X160481253Y-95660858D01*
X160660858Y-95481253D01*
X160675000Y-95495395D01*
X162301835Y-93868560D01*
X162092647Y-93507711D01*
X161155350Y-93130176D01*
X160144923Y-93140067D01*
X159785088Y-93289116D01*
X159912580Y-92982081D01*
X159913417Y-92022130D01*
X159781770Y-91703520D01*
X160194650Y-91869824D01*
X161205077Y-91859933D01*
X162092647Y-91492289D01*
X162301835Y-91131440D01*
X160675000Y-89504605D01*
X160660858Y-89518748D01*
X160481253Y-89339143D01*
X160495395Y-89325000D01*
X160854605Y-89325000D01*
X162481440Y-90951835D01*
X162842289Y-90742647D01*
X163219824Y-89805350D01*
X163209933Y-88794923D01*
X162842289Y-87907353D01*
X162481440Y-87698165D01*
X160854605Y-89325000D01*
X160495395Y-89325000D01*
X158868560Y-87698165D01*
X158507711Y-87907353D01*
X158130176Y-88844650D01*
X158140067Y-89855077D01*
X158289116Y-90214912D01*
X157982081Y-90087420D01*
X157022130Y-90086583D01*
X156703520Y-90218230D01*
X156869824Y-89805350D01*
X156859933Y-88794923D01*
X156492289Y-87907353D01*
X156131440Y-87698165D01*
X154504605Y-89325000D01*
X154518748Y-89339143D01*
X154339143Y-89518748D01*
X154325000Y-89504605D01*
X152698165Y-91131440D01*
X152907353Y-91492289D01*
X153844650Y-91869824D01*
X154855077Y-91859933D01*
X155214912Y-91710884D01*
X155087420Y-92017919D01*
X155086583Y-92977870D01*
X155218230Y-93296480D01*
X154805350Y-93130176D01*
X153794923Y-93140067D01*
X152907353Y-93507711D01*
X152698165Y-93868560D01*
X154325000Y-95495395D01*
X154339143Y-95481253D01*
X154518748Y-95660858D01*
X154504605Y-95675000D01*
X154518748Y-95689143D01*
X154339143Y-95868748D01*
X154325000Y-95854605D01*
X152698165Y-97481440D01*
X152907353Y-97842289D01*
X153844650Y-98219824D01*
X154855077Y-98209933D01*
X155742647Y-97842289D01*
X155951834Y-97481442D01*
X156064674Y-97594282D01*
X156115000Y-97543956D01*
X156115000Y-98785000D01*
X153176702Y-98785000D01*
X152576547Y-98535794D01*
X151926306Y-98535226D01*
X151325345Y-98783538D01*
X150865154Y-99242927D01*
X150615794Y-99843453D01*
X150615226Y-100493694D01*
X148170113Y-100493694D01*
X147989157Y-100222875D01*
X147670567Y-100010000D01*
X147989157Y-99797125D01*
X148313232Y-99312112D01*
X148427032Y-98740000D01*
X148313232Y-98167888D01*
X147989157Y-97682875D01*
X147670567Y-97470000D01*
X147989157Y-97257125D01*
X148313232Y-96772112D01*
X148427032Y-96200000D01*
X148313232Y-95627888D01*
X148023752Y-95194650D01*
X151780176Y-95194650D01*
X151790067Y-96205077D01*
X152157711Y-97092647D01*
X152518560Y-97301835D01*
X154145395Y-95675000D01*
X152518560Y-94048165D01*
X152157711Y-94257353D01*
X151780176Y-95194650D01*
X148023752Y-95194650D01*
X147989157Y-95142875D01*
X147670567Y-94930000D01*
X147989157Y-94717125D01*
X148313232Y-94232112D01*
X148427032Y-93660000D01*
X148313232Y-93087888D01*
X147989157Y-92602875D01*
X147504144Y-92278800D01*
X146932032Y-92165000D01*
X146587968Y-92165000D01*
X146015856Y-92278800D01*
X145530843Y-92602875D01*
X145206768Y-93087888D01*
X145092968Y-93660000D01*
X128107032Y-93660000D01*
X127993232Y-93087888D01*
X127669157Y-92602875D01*
X127184144Y-92278800D01*
X126612032Y-92165000D01*
X126267968Y-92165000D01*
X125695856Y-92278800D01*
X125210843Y-92602875D01*
X124886768Y-93087888D01*
X124772968Y-93660000D01*
X124886768Y-94232112D01*
X125012760Y-94420672D01*
X120035000Y-99398432D01*
X120035000Y-97045868D01*
X128236218Y-88844650D01*
X151780176Y-88844650D01*
X151790067Y-89855077D01*
X152157711Y-90742647D01*
X152518560Y-90951835D01*
X154145395Y-89325000D01*
X152518560Y-87698165D01*
X152157711Y-87907353D01*
X151780176Y-88844650D01*
X128236218Y-88844650D01*
X129562308Y-87518560D01*
X152698165Y-87518560D01*
X154325000Y-89145395D01*
X155951835Y-87518560D01*
X159048165Y-87518560D01*
X160675000Y-89145395D01*
X162301835Y-87518560D01*
X162092647Y-87157711D01*
X161155350Y-86780176D01*
X160144923Y-86790067D01*
X159257353Y-87157711D01*
X159048165Y-87518560D01*
X155951835Y-87518560D01*
X155742647Y-87157711D01*
X154805350Y-86780176D01*
X153794923Y-86790067D01*
X152907353Y-87157711D01*
X152698165Y-87518560D01*
X129562308Y-87518560D01*
X130776268Y-86304600D01*
X164373732Y-86304600D01*
X170409566Y-92340434D01*
G36*
X95491239Y-84737709D02*
X94740345Y-85487293D01*
X94333464Y-86467173D01*
X94332538Y-87528172D01*
X94737709Y-88508761D01*
X95487293Y-89259655D01*
X96467173Y-89666536D01*
X97528172Y-89667462D01*
X98508761Y-89262291D01*
X99259655Y-88512707D01*
X99666536Y-87532827D01*
X99667462Y-86471828D01*
X99262291Y-85491239D01*
X98512707Y-84740345D01*
X98379421Y-84685000D01*
X130177023Y-84685000D01*
X130110859Y-84698161D01*
X129909750Y-84832538D01*
X129839966Y-84879166D01*
X118609566Y-96109566D01*
X118456825Y-96338158D01*
X118414559Y-96125671D01*
X118106222Y-95664211D01*
X117710801Y-95400000D01*
X118106222Y-95135789D01*
X118414559Y-94674329D01*
X118522833Y-94130000D01*
X118414559Y-93585671D01*
X118106222Y-93124211D01*
X117644762Y-92815874D01*
X117100433Y-92707600D01*
X116319567Y-92707600D01*
X115775238Y-92815874D01*
X115313778Y-93124211D01*
X115005441Y-93585671D01*
X114897167Y-94130000D01*
X115005441Y-94674329D01*
X115313778Y-95135789D01*
X115709199Y-95400000D01*
X115313778Y-95664211D01*
X115005441Y-96125671D01*
X114897167Y-96670000D01*
X115005441Y-97214329D01*
X115313778Y-97675789D01*
X115709199Y-97940000D01*
X115313778Y-98204211D01*
X115005441Y-98665671D01*
X114897167Y-99210000D01*
X115005441Y-99754329D01*
X115158433Y-99983299D01*
X113796866Y-101344866D01*
X113615861Y-101615759D01*
X113552300Y-101935300D01*
X113552300Y-108640600D01*
X113615861Y-108960141D01*
X113771342Y-109192834D01*
X113796866Y-109231034D01*
X114526266Y-109960434D01*
X114797159Y-110141439D01*
X115116700Y-110205000D01*
X115199661Y-110205000D01*
X115313778Y-110375789D01*
X115709199Y-110640000D01*
X115313778Y-110904211D01*
X115005441Y-111365671D01*
X114897167Y-111910000D01*
X114983694Y-112345000D01*
X111900300Y-112345000D01*
X111580759Y-112408561D01*
X111359901Y-112556134D01*
X111309866Y-112589566D01*
X110495566Y-113403866D01*
X110314561Y-113674759D01*
X110309503Y-113700189D01*
X110126559Y-113817910D01*
X109981569Y-114030110D01*
X109943457Y-114218314D01*
X109911162Y-114046683D01*
X109772090Y-113830559D01*
X109613175Y-113721977D01*
X109571439Y-113512159D01*
X109390434Y-113241266D01*
X109119541Y-113060261D01*
X108800000Y-112996700D01*
X103681600Y-112996700D01*
X103362059Y-113060261D01*
X103118711Y-113222861D01*
X103091166Y-113241266D01*
X102875034Y-113457398D01*
X102866222Y-113444211D01*
X102470801Y-113180000D01*
X102866222Y-112915789D01*
X103174559Y-112454329D01*
X103282833Y-111910000D01*
X103174559Y-111365671D01*
X102866222Y-110904211D01*
X102470801Y-110640000D01*
X102866222Y-110375789D01*
X103174559Y-109914329D01*
X103226211Y-109654657D01*
X103688034Y-109192834D01*
X103762492Y-109081400D01*
X103869039Y-108921941D01*
X103932600Y-108602400D01*
X103932600Y-96124800D01*
X103869039Y-95805259D01*
X103688034Y-95534366D01*
X103035746Y-94882078D01*
X103174559Y-94674329D01*
X103282833Y-94130000D01*
X103174559Y-93585671D01*
X102866222Y-93124211D01*
X102404762Y-92815874D01*
X101860433Y-92707600D01*
X101079567Y-92707600D01*
X100535238Y-92815874D01*
X100073778Y-93124211D01*
X99765441Y-93585671D01*
X99657167Y-94130000D01*
X99743694Y-94565000D01*
X97120000Y-94565000D01*
X96800459Y-94628561D01*
X96667914Y-94717125D01*
X96529566Y-94809566D01*
X93729555Y-97609577D01*
X93669271Y-97306511D01*
X93344415Y-96820330D01*
X93034931Y-96613539D01*
X93450732Y-96242036D01*
X93704709Y-95714791D01*
X93707358Y-95699026D01*
X93586217Y-95467000D01*
X92227000Y-95467000D01*
X92227000Y-95487000D01*
X91973000Y-95487000D01*
X91973000Y-95467000D01*
X91953000Y-95467000D01*
X91953000Y-95213000D01*
X91973000Y-95213000D01*
X91973000Y-95193000D01*
X92227000Y-95193000D01*
X92227000Y-95213000D01*
X93586217Y-95213000D01*
X93707358Y-94980974D01*
X93704709Y-94965209D01*
X93450732Y-94437964D01*
X93275155Y-94281093D01*
X93351317Y-94266762D01*
X93567441Y-94127690D01*
X93712431Y-93915490D01*
X93763440Y-93663600D01*
X93763440Y-91936400D01*
X93719162Y-91701083D01*
X93580090Y-91484959D01*
X93367890Y-91339969D01*
X93116000Y-91288960D01*
X91084000Y-91288960D01*
X90848683Y-91333238D01*
X90685000Y-91438565D01*
X90685000Y-84685000D01*
X95618805Y-84685000D01*
X95491239Y-84737709D01*
X95491239Y-84737709D01*
G37*
X95491239Y-84737709D02*
X94740345Y-85487293D01*
X94333464Y-86467173D01*
X94332538Y-87528172D01*
X94737709Y-88508761D01*
X95487293Y-89259655D01*
X96467173Y-89666536D01*
X97528172Y-89667462D01*
X98508761Y-89262291D01*
X99259655Y-88512707D01*
X99666536Y-87532827D01*
X99667462Y-86471828D01*
X99262291Y-85491239D01*
X98512707Y-84740345D01*
X98379421Y-84685000D01*
X130177023Y-84685000D01*
X130110859Y-84698161D01*
X129909750Y-84832538D01*
X129839966Y-84879166D01*
X118609566Y-96109566D01*
X118456825Y-96338158D01*
X118414559Y-96125671D01*
X118106222Y-95664211D01*
X117710801Y-95400000D01*
X118106222Y-95135789D01*
X118414559Y-94674329D01*
X118522833Y-94130000D01*
X118414559Y-93585671D01*
X118106222Y-93124211D01*
X117644762Y-92815874D01*
X117100433Y-92707600D01*
X116319567Y-92707600D01*
X115775238Y-92815874D01*
X115313778Y-93124211D01*
X115005441Y-93585671D01*
X114897167Y-94130000D01*
X115005441Y-94674329D01*
X115313778Y-95135789D01*
X115709199Y-95400000D01*
X115313778Y-95664211D01*
X115005441Y-96125671D01*
X114897167Y-96670000D01*
X115005441Y-97214329D01*
X115313778Y-97675789D01*
X115709199Y-97940000D01*
X115313778Y-98204211D01*
X115005441Y-98665671D01*
X114897167Y-99210000D01*
X115005441Y-99754329D01*
X115158433Y-99983299D01*
X113796866Y-101344866D01*
X113615861Y-101615759D01*
X113552300Y-101935300D01*
X113552300Y-108640600D01*
X113615861Y-108960141D01*
X113771342Y-109192834D01*
X113796866Y-109231034D01*
X114526266Y-109960434D01*
X114797159Y-110141439D01*
X115116700Y-110205000D01*
X115199661Y-110205000D01*
X115313778Y-110375789D01*
X115709199Y-110640000D01*
X115313778Y-110904211D01*
X115005441Y-111365671D01*
X114897167Y-111910000D01*
X114983694Y-112345000D01*
X111900300Y-112345000D01*
X111580759Y-112408561D01*
X111359901Y-112556134D01*
X111309866Y-112589566D01*
X110495566Y-113403866D01*
X110314561Y-113674759D01*
X110309503Y-113700189D01*
X110126559Y-113817910D01*
X109981569Y-114030110D01*
X109943457Y-114218314D01*
X109911162Y-114046683D01*
X109772090Y-113830559D01*
X109613175Y-113721977D01*
X109571439Y-113512159D01*
X109390434Y-113241266D01*
X109119541Y-113060261D01*
X108800000Y-112996700D01*
X103681600Y-112996700D01*
X103362059Y-113060261D01*
X103118711Y-113222861D01*
X103091166Y-113241266D01*
X102875034Y-113457398D01*
X102866222Y-113444211D01*
X102470801Y-113180000D01*
X102866222Y-112915789D01*
X103174559Y-112454329D01*
X103282833Y-111910000D01*
X103174559Y-111365671D01*
X102866222Y-110904211D01*
X102470801Y-110640000D01*
X102866222Y-110375789D01*
X103174559Y-109914329D01*
X103226211Y-109654657D01*
X103688034Y-109192834D01*
X103762492Y-109081400D01*
X103869039Y-108921941D01*
X103932600Y-108602400D01*
X103932600Y-96124800D01*
X103869039Y-95805259D01*
X103688034Y-95534366D01*
X103035746Y-94882078D01*
X103174559Y-94674329D01*
X103282833Y-94130000D01*
X103174559Y-93585671D01*
X102866222Y-93124211D01*
X102404762Y-92815874D01*
X101860433Y-92707600D01*
X101079567Y-92707600D01*
X100535238Y-92815874D01*
X100073778Y-93124211D01*
X99765441Y-93585671D01*
X99657167Y-94130000D01*
X99743694Y-94565000D01*
X97120000Y-94565000D01*
X96800459Y-94628561D01*
X96667914Y-94717125D01*
X96529566Y-94809566D01*
X93729555Y-97609577D01*
X93669271Y-97306511D01*
X93344415Y-96820330D01*
X93034931Y-96613539D01*
X93450732Y-96242036D01*
X93704709Y-95714791D01*
X93707358Y-95699026D01*
X93586217Y-95467000D01*
X92227000Y-95467000D01*
X92227000Y-95487000D01*
X91973000Y-95487000D01*
X91973000Y-95467000D01*
X91953000Y-95467000D01*
X91953000Y-95213000D01*
X91973000Y-95213000D01*
X91973000Y-95193000D01*
X92227000Y-95193000D01*
X92227000Y-95213000D01*
X93586217Y-95213000D01*
X93707358Y-94980974D01*
X93704709Y-94965209D01*
X93450732Y-94437964D01*
X93275155Y-94281093D01*
X93351317Y-94266762D01*
X93567441Y-94127690D01*
X93712431Y-93915490D01*
X93763440Y-93663600D01*
X93763440Y-91936400D01*
X93719162Y-91701083D01*
X93580090Y-91484959D01*
X93367890Y-91339969D01*
X93116000Y-91288960D01*
X91084000Y-91288960D01*
X90848683Y-91333238D01*
X90685000Y-91438565D01*
X90685000Y-84685000D01*
X95618805Y-84685000D01*
X95491239Y-84737709D01*
G36*
X189315000Y-93379794D02*
X188956463Y-93020630D01*
X188401675Y-92790262D01*
X187800960Y-92789738D01*
X187245771Y-93019138D01*
X186820630Y-93443537D01*
X186590262Y-93998325D01*
X186589738Y-94599040D01*
X186819138Y-95154229D01*
X187243537Y-95579370D01*
X187266469Y-95588892D01*
X187217545Y-95737940D01*
X188100000Y-96620395D01*
X188982455Y-95737940D01*
X188933682Y-95589352D01*
X188954229Y-95580862D01*
X189315000Y-95220721D01*
X189315000Y-95967747D01*
X189162060Y-95917545D01*
X188279605Y-96800000D01*
X189162060Y-97682455D01*
X189315000Y-97632253D01*
X189315000Y-98379794D01*
X188956463Y-98020630D01*
X188933531Y-98011108D01*
X188982455Y-97862060D01*
X188100000Y-96979605D01*
X187217545Y-97862060D01*
X187266318Y-98010648D01*
X187245771Y-98019138D01*
X186820630Y-98443537D01*
X186811718Y-98465000D01*
X183645868Y-98465000D01*
X181746174Y-96565306D01*
X186578410Y-96565306D01*
X186604421Y-97165458D01*
X186784047Y-97599116D01*
X187037940Y-97682455D01*
X187920395Y-96800000D01*
X187037940Y-95917545D01*
X186784047Y-96000884D01*
X186578410Y-96565306D01*
X181746174Y-96565306D01*
X176340434Y-91159566D01*
X176273736Y-91115000D01*
X176069541Y-90978561D01*
X175750000Y-90915000D01*
X171345868Y-90915000D01*
X170979245Y-90548377D01*
X177965000Y-90548377D01*
X177965000Y-90651623D01*
X178165577Y-91659994D01*
X178736774Y-92514849D01*
X179591629Y-93086046D01*
X180600000Y-93286623D01*
X181608371Y-93086046D01*
X182463226Y-92514849D01*
X183034423Y-91659994D01*
X183235000Y-90651623D01*
X183235000Y-90548377D01*
X183034423Y-89540006D01*
X182463226Y-88685151D01*
X181608371Y-88113954D01*
X180600000Y-87913377D01*
X179591629Y-88113954D01*
X178736774Y-88685151D01*
X178165577Y-89540006D01*
X177965000Y-90548377D01*
X170979245Y-90548377D01*
X168459040Y-88028172D01*
X170332538Y-88028172D01*
X170737709Y-89008761D01*
X171487293Y-89759655D01*
X172467173Y-90166536D01*
X173528172Y-90167462D01*
X174508761Y-89762291D01*
X175259655Y-89012707D01*
X175666536Y-88032827D01*
X175667462Y-86971828D01*
X175262291Y-85991239D01*
X174512707Y-85240345D01*
X173532827Y-84833464D01*
X172471828Y-84832538D01*
X171491239Y-85237709D01*
X170740345Y-85987293D01*
X170333464Y-86967173D01*
X170332538Y-88028172D01*
X168459040Y-88028172D01*
X165310034Y-84879166D01*
X165240250Y-84832538D01*
X165039141Y-84698161D01*
X164972977Y-84685000D01*
X189315000Y-84685000D01*
X189315000Y-93379794D01*
X189315000Y-93379794D01*
G37*
X189315000Y-93379794D02*
X188956463Y-93020630D01*
X188401675Y-92790262D01*
X187800960Y-92789738D01*
X187245771Y-93019138D01*
X186820630Y-93443537D01*
X186590262Y-93998325D01*
X186589738Y-94599040D01*
X186819138Y-95154229D01*
X187243537Y-95579370D01*
X187266469Y-95588892D01*
X187217545Y-95737940D01*
X188100000Y-96620395D01*
X188982455Y-95737940D01*
X188933682Y-95589352D01*
X188954229Y-95580862D01*
X189315000Y-95220721D01*
X189315000Y-95967747D01*
X189162060Y-95917545D01*
X188279605Y-96800000D01*
X189162060Y-97682455D01*
X189315000Y-97632253D01*
X189315000Y-98379794D01*
X188956463Y-98020630D01*
X188933531Y-98011108D01*
X188982455Y-97862060D01*
X188100000Y-96979605D01*
X187217545Y-97862060D01*
X187266318Y-98010648D01*
X187245771Y-98019138D01*
X186820630Y-98443537D01*
X186811718Y-98465000D01*
X183645868Y-98465000D01*
X181746174Y-96565306D01*
X186578410Y-96565306D01*
X186604421Y-97165458D01*
X186784047Y-97599116D01*
X187037940Y-97682455D01*
X187920395Y-96800000D01*
X187037940Y-95917545D01*
X186784047Y-96000884D01*
X186578410Y-96565306D01*
X181746174Y-96565306D01*
X176340434Y-91159566D01*
X176273736Y-91115000D01*
X176069541Y-90978561D01*
X175750000Y-90915000D01*
X171345868Y-90915000D01*
X170979245Y-90548377D01*
X177965000Y-90548377D01*
X177965000Y-90651623D01*
X178165577Y-91659994D01*
X178736774Y-92514849D01*
X179591629Y-93086046D01*
X180600000Y-93286623D01*
X181608371Y-93086046D01*
X182463226Y-92514849D01*
X183034423Y-91659994D01*
X183235000Y-90651623D01*
X183235000Y-90548377D01*
X183034423Y-89540006D01*
X182463226Y-88685151D01*
X181608371Y-88113954D01*
X180600000Y-87913377D01*
X179591629Y-88113954D01*
X178736774Y-88685151D01*
X178165577Y-89540006D01*
X177965000Y-90548377D01*
X170979245Y-90548377D01*
X168459040Y-88028172D01*
X170332538Y-88028172D01*
X170737709Y-89008761D01*
X171487293Y-89759655D01*
X172467173Y-90166536D01*
X173528172Y-90167462D01*
X174508761Y-89762291D01*
X175259655Y-89012707D01*
X175666536Y-88032827D01*
X175667462Y-86971828D01*
X175262291Y-85991239D01*
X174512707Y-85240345D01*
X173532827Y-84833464D01*
X172471828Y-84832538D01*
X171491239Y-85237709D01*
X170740345Y-85987293D01*
X170333464Y-86967173D01*
X170332538Y-88028172D01*
X168459040Y-88028172D01*
X165310034Y-84879166D01*
X165240250Y-84832538D01*
X165039141Y-84698161D01*
X164972977Y-84685000D01*
X189315000Y-84685000D01*
X189315000Y-93379794D01*
M02*
