%TF.GenerationSoftware,KiCad,Pcbnew,4.0.7*%
%TF.CreationDate,2018-03-08T20:30:34+00:00*%
%TF.ProjectId,antenna_analyser,616E74656E6E615F616E616C79736572,rev?*%
%TF.FileFunction,Legend,Top*%
%FSLAX46Y46*%
G04 Gerber Fmt 4.6, Leading zero omitted, Abs format (unit mm)*
G04 Created by KiCad (PCBNEW 4.0.7) date 2018 March 08, Thursday 20:30:34*
%MOMM*%
%LPD*%
G01*
G04 APERTURE LIST*
%ADD10C,0.100000*%
%ADD11C,0.127000*%
%ADD12C,0.150000*%
%ADD13C,0.200000*%
%ADD14C,0.381000*%
%ADD15C,0.101600*%
G04 APERTURE END LIST*
D10*
X90000000Y-134000000D02*
X90000000Y-84000000D01*
X190000000Y-134000000D02*
X90000000Y-134000000D01*
X190000000Y-84000000D02*
X190000000Y-134000000D01*
X90000000Y-84000000D02*
X190000000Y-84000000D01*
D11*
X125170000Y-92390000D02*
X127710000Y-92390000D01*
X127710000Y-92390000D02*
X127710000Y-117790000D01*
X127710000Y-117790000D02*
X125170000Y-117790000D01*
X125170000Y-117790000D02*
X125170000Y-92390000D01*
X145490000Y-92390000D02*
X148030000Y-92390000D01*
X148030000Y-92390000D02*
X148030000Y-117790000D01*
X148030000Y-117790000D02*
X145490000Y-117790000D01*
X145490000Y-117790000D02*
X145490000Y-92390000D01*
X149300000Y-86675000D02*
X149300000Y-131125000D01*
X149300000Y-131125000D02*
X123900000Y-131125000D01*
X123900000Y-131125000D02*
X123900000Y-86675000D01*
X123900000Y-86675000D02*
X149300000Y-86675000D01*
D12*
X99286000Y-87000000D02*
G75*
G03X99286000Y-87000000I-2286000J0D01*
G01*
X99286000Y-130500000D02*
G75*
G03X99286000Y-130500000I-2286000J0D01*
G01*
X175286000Y-87500000D02*
G75*
G03X175286000Y-87500000I-2286000J0D01*
G01*
X175286000Y-130500000D02*
G75*
G03X175286000Y-130500000I-2286000J0D01*
G01*
X135319000Y-118541000D02*
X135319000Y-119557000D01*
X134811000Y-119049000D02*
X135827000Y-119049000D01*
X142050000Y-120700000D02*
G75*
G03X142050000Y-120700000I-5080000J0D01*
G01*
X160500000Y-124250000D02*
X160500000Y-127250000D01*
X158000000Y-127250000D02*
X158000000Y-124250000D01*
X158000000Y-124250000D02*
X158000000Y-127250000D01*
X155500000Y-127250000D02*
X155500000Y-124250000D01*
X183500000Y-113000000D02*
X183500000Y-110000000D01*
X186000000Y-110000000D02*
X186000000Y-113000000D01*
X161250000Y-98750000D02*
X164250000Y-98750000D01*
X164250000Y-101250000D02*
X161250000Y-101250000D01*
X119250000Y-126250000D02*
X122250000Y-126250000D01*
X122250000Y-128750000D02*
X119250000Y-128750000D01*
X169747460Y-106630000D02*
X169747460Y-105614000D01*
X169747460Y-111456000D02*
X169747460Y-112726000D01*
X168477460Y-111202000D02*
X171017460Y-111202000D01*
X168477460Y-110948000D02*
X171017460Y-110948000D01*
X168477460Y-110694000D02*
X171017460Y-110694000D01*
X168477460Y-111456000D02*
X171017460Y-111456000D01*
X168477460Y-110440000D02*
X171017460Y-111710000D01*
X168477460Y-111710000D02*
X171017460Y-110440000D01*
X168477460Y-110440000D02*
X171017460Y-110440000D01*
X168477460Y-111075000D02*
X171017460Y-111075000D01*
X171017460Y-111710000D02*
X168477460Y-111710000D01*
X168477460Y-111710000D02*
X168477460Y-106630000D01*
X168477460Y-106630000D02*
X171017460Y-106630000D01*
X171017460Y-106630000D02*
X171017460Y-111710000D01*
X172747460Y-106630000D02*
X172747460Y-105614000D01*
X172747460Y-111456000D02*
X172747460Y-112726000D01*
X171477460Y-111202000D02*
X174017460Y-111202000D01*
X171477460Y-110948000D02*
X174017460Y-110948000D01*
X171477460Y-110694000D02*
X174017460Y-110694000D01*
X171477460Y-111456000D02*
X174017460Y-111456000D01*
X171477460Y-110440000D02*
X174017460Y-111710000D01*
X171477460Y-111710000D02*
X174017460Y-110440000D01*
X171477460Y-110440000D02*
X174017460Y-110440000D01*
X171477460Y-111075000D02*
X174017460Y-111075000D01*
X174017460Y-111710000D02*
X171477460Y-111710000D01*
X171477460Y-111710000D02*
X171477460Y-106630000D01*
X171477460Y-106630000D02*
X174017460Y-106630000D01*
X174017460Y-106630000D02*
X174017460Y-111710000D01*
D13*
X186250000Y-100900000D02*
G75*
G03X186250000Y-100900000I-500000J0D01*
G01*
X186250000Y-92700000D02*
G75*
G03X186250000Y-92700000I-500000J0D01*
G01*
X176050000Y-92700000D02*
G75*
G03X176050000Y-92700000I-500000J0D01*
G01*
X176050000Y-100900000D02*
G75*
G03X176050000Y-100900000I-500000J0D01*
G01*
X186400000Y-103000000D02*
X174800000Y-103000000D01*
X174800000Y-90600000D02*
X186400000Y-90600000D01*
X174000000Y-102200000D02*
X174000000Y-91400000D01*
X187200000Y-102200000D02*
X187200000Y-91400000D01*
X174000000Y-102200000D02*
G75*
G03X174800000Y-103000000I800000J0D01*
G01*
X186400000Y-103000000D02*
G75*
G03X187200000Y-102200000I0J800000D01*
G01*
X187200000Y-91400000D02*
G75*
G03X186400000Y-90600000I-800000J0D01*
G01*
X174800000Y-90600000D02*
G75*
G03X174000000Y-91400000I0J-800000D01*
G01*
X179100000Y-99400000D02*
X179100000Y-94200000D01*
X183600000Y-96800000D02*
G75*
G03X183600000Y-96800000I-3000000J0D01*
G01*
D12*
X154135000Y-117205000D02*
X154135000Y-118475000D01*
X161485000Y-117205000D02*
X161485000Y-118475000D01*
X161485000Y-129415000D02*
X161485000Y-128145000D01*
X154135000Y-129415000D02*
X154135000Y-128145000D01*
X154135000Y-117205000D02*
X161485000Y-117205000D01*
X154135000Y-129415000D02*
X161485000Y-129415000D01*
X154135000Y-118475000D02*
X153200000Y-118475000D01*
D14*
X100200000Y-124610000D02*
X117980000Y-124610000D01*
X100200000Y-91590000D02*
X117980000Y-91590000D01*
X100200000Y-124610000D02*
X100200000Y-91590000D01*
X117980000Y-91590000D02*
X117980000Y-124610000D01*
D12*
X164485000Y-92500000D02*
G75*
G03X164485000Y-92500000I-6985000J0D01*
G01*
X93370000Y-94070000D02*
X93370000Y-127090000D01*
X93370000Y-127090000D02*
X90830000Y-127090000D01*
X90830000Y-127090000D02*
X90830000Y-94070000D01*
X90550000Y-91250000D02*
X90550000Y-92800000D01*
X90830000Y-94070000D02*
X93370000Y-94070000D01*
X93650000Y-92800000D02*
X93650000Y-91250000D01*
X93650000Y-91250000D02*
X90550000Y-91250000D01*
X119330000Y-120830000D02*
X119330000Y-113210000D01*
X121870000Y-120830000D02*
X121870000Y-113210000D01*
X122150000Y-123650000D02*
X122150000Y-122100000D01*
X119330000Y-113210000D02*
X121870000Y-113210000D01*
X121870000Y-120830000D02*
X119330000Y-120830000D01*
X119050000Y-122100000D02*
X119050000Y-123650000D01*
X119050000Y-123650000D02*
X122150000Y-123650000D01*
X153460000Y-113730000D02*
X158540000Y-113730000D01*
X158540000Y-113730000D02*
X158540000Y-116270000D01*
X158540000Y-116270000D02*
X153460000Y-116270000D01*
X153460000Y-116270000D02*
X153460000Y-113730000D01*
X153460000Y-115000000D02*
X152190000Y-115000000D01*
X158540000Y-115000000D02*
X159810000Y-115000000D01*
X178460000Y-105730000D02*
X183540000Y-105730000D01*
X183540000Y-105730000D02*
X183540000Y-108270000D01*
X183540000Y-108270000D02*
X178460000Y-108270000D01*
X178460000Y-108270000D02*
X178460000Y-105730000D01*
X178460000Y-107000000D02*
X177190000Y-107000000D01*
X183540000Y-107000000D02*
X184810000Y-107000000D01*
X174730000Y-117540000D02*
X174730000Y-112460000D01*
X174730000Y-112460000D02*
X177270000Y-112460000D01*
X177270000Y-112460000D02*
X177270000Y-117540000D01*
X177270000Y-117540000D02*
X174730000Y-117540000D01*
X176000000Y-117540000D02*
X176000000Y-118810000D01*
X176000000Y-112460000D02*
X176000000Y-111190000D01*
X178230000Y-117540000D02*
X178230000Y-112460000D01*
X178230000Y-112460000D02*
X180770000Y-112460000D01*
X180770000Y-112460000D02*
X180770000Y-117540000D01*
X180770000Y-117540000D02*
X178230000Y-117540000D01*
X179500000Y-117540000D02*
X179500000Y-118810000D01*
X179500000Y-112460000D02*
X179500000Y-111190000D01*
X153520000Y-102710000D02*
X153520000Y-107790000D01*
X153520000Y-107790000D02*
X150980000Y-107790000D01*
X150980000Y-107790000D02*
X150980000Y-102710000D01*
X150980000Y-102710000D02*
X153520000Y-102710000D01*
X152250000Y-102710000D02*
X152250000Y-101440000D01*
X152250000Y-107790000D02*
X152250000Y-109060000D01*
X183480000Y-123040000D02*
X183480000Y-117960000D01*
X183480000Y-117960000D02*
X186020000Y-117960000D01*
X186020000Y-117960000D02*
X186020000Y-123040000D01*
X186020000Y-123040000D02*
X183480000Y-123040000D01*
X184750000Y-123040000D02*
X184750000Y-124310000D01*
X184750000Y-117960000D02*
X184750000Y-116690000D01*
X171960000Y-121980000D02*
X177040000Y-121980000D01*
X177040000Y-121980000D02*
X177040000Y-124520000D01*
X177040000Y-124520000D02*
X171960000Y-124520000D01*
X171960000Y-124520000D02*
X171960000Y-121980000D01*
X171960000Y-123250000D02*
X170690000Y-123250000D01*
X177040000Y-123250000D02*
X178310000Y-123250000D01*
X157710000Y-102980000D02*
X162790000Y-102980000D01*
X162790000Y-102980000D02*
X162790000Y-105520000D01*
X162790000Y-105520000D02*
X157710000Y-105520000D01*
X157710000Y-105520000D02*
X157710000Y-102980000D01*
X157710000Y-104250000D02*
X156440000Y-104250000D01*
X162790000Y-104250000D02*
X164060000Y-104250000D01*
X158540000Y-132770000D02*
X153460000Y-132770000D01*
X153460000Y-132770000D02*
X153460000Y-130230000D01*
X153460000Y-130230000D02*
X158540000Y-130230000D01*
X158540000Y-130230000D02*
X158540000Y-132770000D01*
X158540000Y-131500000D02*
X159810000Y-131500000D01*
X153460000Y-131500000D02*
X152190000Y-131500000D01*
X168070000Y-120660000D02*
X168070000Y-125740000D01*
X168070000Y-125740000D02*
X165530000Y-125740000D01*
X165530000Y-125740000D02*
X165530000Y-120660000D01*
X165530000Y-120660000D02*
X168070000Y-120660000D01*
X166800000Y-120660000D02*
X166800000Y-119390000D01*
X166800000Y-125740000D02*
X166800000Y-127010000D01*
X152270000Y-120460000D02*
X152270000Y-125540000D01*
X152270000Y-125540000D02*
X149730000Y-125540000D01*
X149730000Y-125540000D02*
X149730000Y-120460000D01*
X149730000Y-120460000D02*
X152270000Y-120460000D01*
X151000000Y-120460000D02*
X151000000Y-119190000D01*
X151000000Y-125540000D02*
X151000000Y-126810000D01*
D15*
X142691464Y-94021345D02*
X143036179Y-93102107D01*
X143380893Y-94021345D01*
X142289298Y-92699940D02*
X143495798Y-92297774D01*
X142289298Y-91895607D01*
X143495798Y-90976369D02*
X142863821Y-90976369D01*
X142748917Y-91033821D01*
X142691464Y-91148726D01*
X142691464Y-91378535D01*
X142748917Y-91493440D01*
X143438345Y-90976369D02*
X143495798Y-91091273D01*
X143495798Y-91378535D01*
X143438345Y-91493440D01*
X143323440Y-91550892D01*
X143208536Y-91550892D01*
X143093631Y-91493440D01*
X143036179Y-91378535D01*
X143036179Y-91091273D01*
X142978726Y-90976369D01*
X143495798Y-90229488D02*
X143438345Y-90344393D01*
X143323440Y-90401845D01*
X142289298Y-90401845D01*
X142691464Y-89252798D02*
X143495798Y-89252798D01*
X142691464Y-89769869D02*
X143323440Y-89769869D01*
X143438345Y-89712417D01*
X143495798Y-89597512D01*
X143495798Y-89425155D01*
X143438345Y-89310250D01*
X143380893Y-89252798D01*
X143438345Y-88218655D02*
X143495798Y-88333560D01*
X143495798Y-88563369D01*
X143438345Y-88678274D01*
X143323440Y-88735726D01*
X142863821Y-88735726D01*
X142748917Y-88678274D01*
X142691464Y-88563369D01*
X142691464Y-88333560D01*
X142748917Y-88218655D01*
X142863821Y-88161203D01*
X142978726Y-88161203D01*
X143093631Y-88735726D01*
X130626464Y-94078797D02*
X130971179Y-93159559D01*
X131315893Y-94078797D01*
X131430798Y-92585035D02*
X130224298Y-92585035D01*
X131430798Y-91895607D01*
X130224298Y-91895607D01*
X131430798Y-90804012D02*
X130798821Y-90804012D01*
X130683917Y-90861464D01*
X130626464Y-90976369D01*
X130626464Y-91206178D01*
X130683917Y-91321083D01*
X131373345Y-90804012D02*
X131430798Y-90918916D01*
X131430798Y-91206178D01*
X131373345Y-91321083D01*
X131258440Y-91378535D01*
X131143536Y-91378535D01*
X131028631Y-91321083D01*
X130971179Y-91206178D01*
X130971179Y-90918916D01*
X130913726Y-90804012D01*
X131430798Y-90229488D02*
X130626464Y-90229488D01*
X130741369Y-90229488D02*
X130683917Y-90172036D01*
X130626464Y-90057131D01*
X130626464Y-89884774D01*
X130683917Y-89769869D01*
X130798821Y-89712417D01*
X131430798Y-89712417D01*
X130798821Y-89712417D02*
X130683917Y-89654964D01*
X130626464Y-89540060D01*
X130626464Y-89367702D01*
X130683917Y-89252798D01*
X130798821Y-89195345D01*
X131430798Y-89195345D01*
X131373345Y-88161202D02*
X131430798Y-88276107D01*
X131430798Y-88505916D01*
X131373345Y-88620821D01*
X131258440Y-88678273D01*
X130798821Y-88678273D01*
X130683917Y-88620821D01*
X130626464Y-88505916D01*
X130626464Y-88276107D01*
X130683917Y-88161202D01*
X130798821Y-88103750D01*
X130913726Y-88103750D01*
X131028631Y-88678273D01*
M02*
