%TF.GenerationSoftware,KiCad,Pcbnew,4.0.7*%
%TF.CreationDate,2018-03-08T20:30:34+00:00*%
%TF.ProjectId,antenna_analyser,616E74656E6E615F616E616C79736572,rev?*%
%TF.FileFunction,Soldermask,Top*%
%FSLAX46Y46*%
G04 Gerber Fmt 4.6, Leading zero omitted, Abs format (unit mm)*
G04 Created by KiCad (PCBNEW 4.0.7) date 2018 March 08, Thursday 20:30:34*
%MOMM*%
%LPD*%
G01*
G04 APERTURE LIST*
%ADD10C,0.100000*%
%ADD11O,2.000000X1.720000*%
%ADD12O,1.250000X0.950000*%
%ADD13O,1.000000X1.550000*%
%ADD14C,4.064000*%
%ADD15C,1.501140*%
%ADD16R,1.300000X1.300000*%
%ADD17C,1.300000*%
%ADD18C,1.998980*%
%ADD19R,1.998980X1.998980*%
%ADD20C,1.750000*%
%ADD21O,4.000000X4.000000*%
%ADD22O,1.600000X1.600000*%
%ADD23R,2.286000X1.574800*%
%ADD24O,2.286000X1.574800*%
%ADD25C,3.810000*%
%ADD26C,3.556000*%
%ADD27R,2.032000X1.727200*%
%ADD28O,2.032000X1.727200*%
G04 APERTURE END LIST*
D10*
X90000000Y-134000000D02*
X90000000Y-84000000D01*
X190000000Y-134000000D02*
X90000000Y-134000000D01*
X190000000Y-84000000D02*
X190000000Y-134000000D01*
X90000000Y-84000000D02*
X190000000Y-84000000D01*
D11*
X126440000Y-93660000D03*
X126440000Y-96200000D03*
X126440000Y-98740000D03*
X126440000Y-101280000D03*
X126440000Y-106360000D03*
X126440000Y-111440000D03*
X126440000Y-113980000D03*
X126440000Y-116520000D03*
X146760000Y-93660000D03*
X146760000Y-96200000D03*
X146760000Y-98740000D03*
X146760000Y-101280000D03*
X146760000Y-106360000D03*
X146760000Y-108900000D03*
X146760000Y-111440000D03*
X146760000Y-113980000D03*
X146760000Y-116520000D03*
D12*
X109100900Y-127437460D03*
X104100900Y-127437460D03*
D13*
X110100900Y-130137460D03*
X103100900Y-130137460D03*
D14*
X97000000Y-87000000D03*
X97000000Y-130500000D03*
X173000000Y-87500000D03*
X173000000Y-130500000D03*
D15*
X138240000Y-120700000D03*
X135700000Y-120700000D03*
D16*
X159250000Y-124500000D03*
D17*
X159250000Y-127000000D03*
D16*
X156750000Y-124500000D03*
D17*
X156750000Y-127000000D03*
D16*
X184750000Y-112750000D03*
D17*
X184750000Y-110250000D03*
D16*
X161500000Y-100000000D03*
D17*
X164000000Y-100000000D03*
D16*
X119500000Y-127500000D03*
D17*
X122000000Y-127500000D03*
D18*
X169747460Y-104090000D03*
D19*
X169747460Y-114250000D03*
D18*
X172747460Y-104090000D03*
D19*
X172747460Y-114250000D03*
D20*
X188100000Y-99300000D03*
X188100000Y-94300000D03*
X188100000Y-96800000D03*
X173600000Y-94300000D03*
X173600000Y-99300000D03*
D21*
X180600000Y-90600000D03*
X180600000Y-103000000D03*
D22*
X154000000Y-119500000D03*
X154000000Y-122040000D03*
X154000000Y-124580000D03*
X154000000Y-127120000D03*
X161620000Y-127120000D03*
X161620000Y-124580000D03*
X161620000Y-122040000D03*
X161620000Y-119500000D03*
D23*
X116710000Y-122070000D03*
D24*
X116710000Y-119530000D03*
X116710000Y-116990000D03*
X116710000Y-114450000D03*
X116710000Y-111910000D03*
X116710000Y-109370000D03*
X116710000Y-106830000D03*
X116710000Y-104290000D03*
X116710000Y-101750000D03*
X116710000Y-99210000D03*
X116710000Y-96670000D03*
X116710000Y-94130000D03*
X101470000Y-94130000D03*
X101470000Y-96670000D03*
X101470000Y-99210000D03*
X101470000Y-101750000D03*
X101470000Y-104290000D03*
X101470000Y-106830000D03*
X101470000Y-109370000D03*
X101470000Y-111910000D03*
X101470000Y-114450000D03*
X101470000Y-116990000D03*
X101470000Y-119530000D03*
X101470000Y-122070000D03*
D25*
X154325000Y-89325000D03*
D26*
X157500000Y-92500000D03*
D25*
X160675000Y-89325000D03*
X154325000Y-95675000D03*
X160675000Y-95675000D03*
D27*
X92100000Y-92800000D03*
D28*
X92100000Y-95340000D03*
X92100000Y-97880000D03*
X92100000Y-100420000D03*
X92100000Y-102960000D03*
X92100000Y-105500000D03*
X92100000Y-108040000D03*
X92100000Y-110580000D03*
X92100000Y-113120000D03*
X92100000Y-115660000D03*
X92100000Y-118200000D03*
X92100000Y-120740000D03*
X92100000Y-123280000D03*
X92100000Y-125820000D03*
D27*
X120600000Y-122100000D03*
D28*
X120600000Y-119560000D03*
X120600000Y-117020000D03*
X120600000Y-114480000D03*
D18*
X150920000Y-115000000D03*
X161080000Y-115000000D03*
X175920000Y-107000000D03*
X186080000Y-107000000D03*
X176000000Y-120080000D03*
X176000000Y-109920000D03*
X179500000Y-120080000D03*
X179500000Y-109920000D03*
X152250000Y-100170000D03*
X152250000Y-110330000D03*
X184750000Y-125580000D03*
X184750000Y-115420000D03*
X169420000Y-123250000D03*
X179580000Y-123250000D03*
X155170000Y-104250000D03*
X165330000Y-104250000D03*
X161080000Y-131500000D03*
X150920000Y-131500000D03*
X166800000Y-118120000D03*
X166800000Y-128280000D03*
X151000000Y-117920000D03*
X151000000Y-128080000D03*
M02*
