M48
;DRILL file {KiCad 4.0.6} date 2017 May 09, Tuesday 22:38:26
;FORMAT={-:-/ absolute / metric / decimal}
FMAT,2
METRIC,TZ
T1C0.500
T2C0.550
T3C0.800
T4C0.800
T5C0.813
T6C1.000
T7C1.001
T8C1.016
T9C1.100
T10C1.270
T11C1.524
T12C2.500
T13C3.048
%
G90
G05
M71
T3
X119.5Y127.5
X154.Y119.5
X154.Y122.04
X154.Y124.58
X154.Y127.12
X156.75Y124.5
X159.25Y124.5
X161.5Y100.
X161.62Y119.5
X161.62Y122.04
X161.62Y124.58
X161.62Y127.12
X184.75Y112.75
T4
X122.Y127.5
X135.7Y120.7
X138.24Y120.7
X156.75Y127.
X159.25Y127.
X164.Y100.
X184.75Y110.25
T5
X101.47Y94.13
X101.47Y96.67
X101.47Y99.21
X101.47Y101.75
X101.47Y104.29
X101.47Y106.83
X101.47Y109.37
X101.47Y111.91
X101.47Y114.45
X101.47Y116.99
X101.47Y119.53
X101.47Y122.07
X116.71Y94.13
X116.71Y96.67
X116.71Y99.21
X116.71Y101.75
X116.71Y104.29
X116.71Y106.83
X116.71Y109.37
X116.71Y111.91
X116.71Y114.45
X116.71Y116.99
X116.71Y119.53
X116.71Y122.07
T6
X126.44Y93.66
X126.44Y96.2
X126.44Y98.74
X126.44Y101.28
X126.44Y106.36
X126.44Y111.44
X126.44Y113.98
X126.44Y116.52
X146.76Y93.66
X146.76Y96.2
X146.76Y98.74
X146.76Y101.28
X146.76Y106.36
X146.76Y108.9
X146.76Y111.44
X146.76Y113.98
X146.76Y116.52
T7
X150.92Y115.
X150.92Y131.5
X151.Y117.92
X151.Y128.08
X152.25Y100.17
X152.25Y110.33
X155.17Y104.25
X161.08Y115.
X161.08Y131.5
X165.33Y104.25
X166.8Y118.12
X166.8Y128.28
X169.42Y123.25
X169.747Y114.25
X172.747Y114.25
X175.92Y107.
X176.Y109.92
X176.Y120.08
X179.5Y109.92
X179.5Y120.08
X179.58Y123.25
X184.75Y115.42
X184.75Y125.58
X186.08Y107.
T8
X92.1Y92.8
X92.1Y95.34
X92.1Y97.88
X92.1Y100.42
X92.1Y102.96
X92.1Y105.5
X92.1Y108.04
X92.1Y110.58
X92.1Y113.12
X92.1Y115.66
X92.1Y118.2
X92.1Y120.74
X92.1Y123.28
X92.1Y125.82
X120.6Y114.48
X120.6Y117.02
X120.6Y119.56
X120.6Y122.1
T9
X173.6Y94.3
X173.6Y99.3
X188.1Y94.3
X188.1Y96.8
X188.1Y99.3
T10
X157.5Y92.5
X169.747Y104.09
X172.747Y104.09
T11
X154.325Y89.325
X154.325Y95.675
X160.675Y89.325
X160.675Y95.675
T12
X180.6Y90.6
X180.6Y103.
T13
X97.Y87.
X97.Y130.5
X173.Y87.5
X173.Y130.5
T1
X103.101Y130.462G85X103.101Y129.812
G05
X110.101Y130.462G85X110.101Y129.812
G05
T2
X103.951Y127.437G85X104.251Y127.437
G05
X108.951Y127.437G85X109.251Y127.437
G05
T0
M30
