%TF.GenerationSoftware,KiCad,Pcbnew,4.0.7*%
%TF.CreationDate,2018-03-08T20:30:34+00:00*%
%TF.ProjectId,antenna_analyser,616E74656E6E615F616E616C79736572,rev?*%
%TF.FileFunction,Drawing*%
%FSLAX46Y46*%
G04 Gerber Fmt 4.6, Leading zero omitted, Abs format (unit mm)*
G04 Created by KiCad (PCBNEW 4.0.7) date 2018 March 08, Thursday 20:30:34*
%MOMM*%
%LPD*%
G01*
G04 APERTURE LIST*
%ADD10C,0.100000*%
%ADD11C,0.300000*%
%ADD12C,0.127000*%
%ADD13C,0.101600*%
G04 APERTURE END LIST*
D10*
D11*
X77471429Y-81928573D02*
X77471429Y-82928573D01*
X75971429Y-82285716D01*
X76114286Y-83500001D02*
X76042857Y-83571429D01*
X75971429Y-83500001D01*
X76042857Y-83428572D01*
X76114286Y-83500001D01*
X75971429Y-83500001D01*
X77471429Y-84500001D02*
X77471429Y-84642858D01*
X77400000Y-84785715D01*
X77328571Y-84857144D01*
X77185714Y-84928573D01*
X76900000Y-85000001D01*
X76542857Y-85000001D01*
X76257143Y-84928573D01*
X76114286Y-84857144D01*
X76042857Y-84785715D01*
X75971429Y-84642858D01*
X75971429Y-84500001D01*
X76042857Y-84357144D01*
X76114286Y-84285715D01*
X76257143Y-84214287D01*
X76542857Y-84142858D01*
X76900000Y-84142858D01*
X77185714Y-84214287D01*
X77328571Y-84285715D01*
X77400000Y-84357144D01*
X77471429Y-84500001D01*
X77471429Y-85928572D02*
X77471429Y-86071429D01*
X77400000Y-86214286D01*
X77328571Y-86285715D01*
X77185714Y-86357144D01*
X76900000Y-86428572D01*
X76542857Y-86428572D01*
X76257143Y-86357144D01*
X76114286Y-86285715D01*
X76042857Y-86214286D01*
X75971429Y-86071429D01*
X75971429Y-85928572D01*
X76042857Y-85785715D01*
X76114286Y-85714286D01*
X76257143Y-85642858D01*
X76542857Y-85571429D01*
X76900000Y-85571429D01*
X77185714Y-85642858D01*
X77328571Y-85714286D01*
X77400000Y-85785715D01*
X77471429Y-85928572D01*
X77471429Y-87357143D02*
X77471429Y-87500000D01*
X77400000Y-87642857D01*
X77328571Y-87714286D01*
X77185714Y-87785715D01*
X76900000Y-87857143D01*
X76542857Y-87857143D01*
X76257143Y-87785715D01*
X76114286Y-87714286D01*
X76042857Y-87642857D01*
X75971429Y-87500000D01*
X75971429Y-87357143D01*
X76042857Y-87214286D01*
X76114286Y-87142857D01*
X76257143Y-87071429D01*
X76542857Y-87000000D01*
X76900000Y-87000000D01*
X77185714Y-87071429D01*
X77328571Y-87142857D01*
X77400000Y-87214286D01*
X77471429Y-87357143D01*
X75971429Y-89642857D02*
X76971429Y-89642857D01*
X76828571Y-89642857D02*
X76900000Y-89714285D01*
X76971429Y-89857143D01*
X76971429Y-90071428D01*
X76900000Y-90214285D01*
X76757143Y-90285714D01*
X75971429Y-90285714D01*
X76757143Y-90285714D02*
X76900000Y-90357143D01*
X76971429Y-90500000D01*
X76971429Y-90714285D01*
X76900000Y-90857143D01*
X76757143Y-90928571D01*
X75971429Y-90928571D01*
X75971429Y-91642857D02*
X76971429Y-91642857D01*
X76828571Y-91642857D02*
X76900000Y-91714285D01*
X76971429Y-91857143D01*
X76971429Y-92071428D01*
X76900000Y-92214285D01*
X76757143Y-92285714D01*
X75971429Y-92285714D01*
X76757143Y-92285714D02*
X76900000Y-92357143D01*
X76971429Y-92500000D01*
X76971429Y-92714285D01*
X76900000Y-92857143D01*
X76757143Y-92928571D01*
X75971429Y-92928571D01*
X78000000Y-84000000D02*
X78000000Y-91000000D01*
X83000000Y-84000000D02*
X75300000Y-84000000D01*
X83000000Y-91000000D02*
X75300000Y-91000000D01*
X78000000Y-91000000D02*
X77413579Y-89873496D01*
X78000000Y-91000000D02*
X78586421Y-89873496D01*
X78000000Y-84000000D02*
X77413579Y-85126504D01*
X78000000Y-84000000D02*
X78586421Y-85126504D01*
X126571430Y-158171429D02*
X126428572Y-158100000D01*
X126357144Y-158028571D01*
X126285715Y-157885714D01*
X126285715Y-157814286D01*
X126357144Y-157671429D01*
X126428572Y-157600000D01*
X126571430Y-157528571D01*
X126857144Y-157528571D01*
X127000001Y-157600000D01*
X127071430Y-157671429D01*
X127142858Y-157814286D01*
X127142858Y-157885714D01*
X127071430Y-158028571D01*
X127000001Y-158100000D01*
X126857144Y-158171429D01*
X126571430Y-158171429D01*
X126428572Y-158242857D01*
X126357144Y-158314286D01*
X126285715Y-158457143D01*
X126285715Y-158742857D01*
X126357144Y-158885714D01*
X126428572Y-158957143D01*
X126571430Y-159028571D01*
X126857144Y-159028571D01*
X127000001Y-158957143D01*
X127071430Y-158885714D01*
X127142858Y-158742857D01*
X127142858Y-158457143D01*
X127071430Y-158314286D01*
X127000001Y-158242857D01*
X126857144Y-158171429D01*
X128500001Y-157528571D02*
X127785715Y-157528571D01*
X127714286Y-158242857D01*
X127785715Y-158171429D01*
X127928572Y-158100000D01*
X128285715Y-158100000D01*
X128428572Y-158171429D01*
X128500001Y-158242857D01*
X128571429Y-158385714D01*
X128571429Y-158742857D01*
X128500001Y-158885714D01*
X128428572Y-158957143D01*
X128285715Y-159028571D01*
X127928572Y-159028571D01*
X127785715Y-158957143D01*
X127714286Y-158885714D01*
X129214286Y-158885714D02*
X129285714Y-158957143D01*
X129214286Y-159028571D01*
X129142857Y-158957143D01*
X129214286Y-158885714D01*
X129214286Y-159028571D01*
X130214286Y-157528571D02*
X130357143Y-157528571D01*
X130500000Y-157600000D01*
X130571429Y-157671429D01*
X130642858Y-157814286D01*
X130714286Y-158100000D01*
X130714286Y-158457143D01*
X130642858Y-158742857D01*
X130571429Y-158885714D01*
X130500000Y-158957143D01*
X130357143Y-159028571D01*
X130214286Y-159028571D01*
X130071429Y-158957143D01*
X130000000Y-158885714D01*
X129928572Y-158742857D01*
X129857143Y-158457143D01*
X129857143Y-158100000D01*
X129928572Y-157814286D01*
X130000000Y-157671429D01*
X130071429Y-157600000D01*
X130214286Y-157528571D01*
X131642857Y-157528571D02*
X131785714Y-157528571D01*
X131928571Y-157600000D01*
X132000000Y-157671429D01*
X132071429Y-157814286D01*
X132142857Y-158100000D01*
X132142857Y-158457143D01*
X132071429Y-158742857D01*
X132000000Y-158885714D01*
X131928571Y-158957143D01*
X131785714Y-159028571D01*
X131642857Y-159028571D01*
X131500000Y-158957143D01*
X131428571Y-158885714D01*
X131357143Y-158742857D01*
X131285714Y-158457143D01*
X131285714Y-158100000D01*
X131357143Y-157814286D01*
X131428571Y-157671429D01*
X131500000Y-157600000D01*
X131642857Y-157528571D01*
X133071428Y-157528571D02*
X133214285Y-157528571D01*
X133357142Y-157600000D01*
X133428571Y-157671429D01*
X133500000Y-157814286D01*
X133571428Y-158100000D01*
X133571428Y-158457143D01*
X133500000Y-158742857D01*
X133428571Y-158885714D01*
X133357142Y-158957143D01*
X133214285Y-159028571D01*
X133071428Y-159028571D01*
X132928571Y-158957143D01*
X132857142Y-158885714D01*
X132785714Y-158742857D01*
X132714285Y-158457143D01*
X132714285Y-158100000D01*
X132785714Y-157814286D01*
X132857142Y-157671429D01*
X132928571Y-157600000D01*
X133071428Y-157528571D01*
X135357142Y-159028571D02*
X135357142Y-158028571D01*
X135357142Y-158171429D02*
X135428570Y-158100000D01*
X135571428Y-158028571D01*
X135785713Y-158028571D01*
X135928570Y-158100000D01*
X135999999Y-158242857D01*
X135999999Y-159028571D01*
X135999999Y-158242857D02*
X136071428Y-158100000D01*
X136214285Y-158028571D01*
X136428570Y-158028571D01*
X136571428Y-158100000D01*
X136642856Y-158242857D01*
X136642856Y-159028571D01*
X137357142Y-159028571D02*
X137357142Y-158028571D01*
X137357142Y-158171429D02*
X137428570Y-158100000D01*
X137571428Y-158028571D01*
X137785713Y-158028571D01*
X137928570Y-158100000D01*
X137999999Y-158242857D01*
X137999999Y-159028571D01*
X137999999Y-158242857D02*
X138071428Y-158100000D01*
X138214285Y-158028571D01*
X138428570Y-158028571D01*
X138571428Y-158100000D01*
X138642856Y-158242857D01*
X138642856Y-159028571D01*
X90000000Y-157000000D02*
X175000000Y-157000000D01*
X90000000Y-147000000D02*
X90000000Y-159700000D01*
X175000000Y-147000000D02*
X175000000Y-159700000D01*
X175000000Y-157000000D02*
X173873496Y-157586421D01*
X175000000Y-157000000D02*
X173873496Y-156413579D01*
X90000000Y-157000000D02*
X91126504Y-157586421D01*
X90000000Y-157000000D02*
X91126504Y-156413579D01*
X217171429Y-103571430D02*
X217171429Y-102857144D01*
X216457143Y-102785715D01*
X216528571Y-102857144D01*
X216600000Y-103000001D01*
X216600000Y-103357144D01*
X216528571Y-103500001D01*
X216457143Y-103571430D01*
X216314286Y-103642858D01*
X215957143Y-103642858D01*
X215814286Y-103571430D01*
X215742857Y-103500001D01*
X215671429Y-103357144D01*
X215671429Y-103000001D01*
X215742857Y-102857144D01*
X215814286Y-102785715D01*
X217171429Y-104571429D02*
X217171429Y-104714286D01*
X217100000Y-104857143D01*
X217028571Y-104928572D01*
X216885714Y-105000001D01*
X216600000Y-105071429D01*
X216242857Y-105071429D01*
X215957143Y-105000001D01*
X215814286Y-104928572D01*
X215742857Y-104857143D01*
X215671429Y-104714286D01*
X215671429Y-104571429D01*
X215742857Y-104428572D01*
X215814286Y-104357143D01*
X215957143Y-104285715D01*
X216242857Y-104214286D01*
X216600000Y-104214286D01*
X216885714Y-104285715D01*
X217028571Y-104357143D01*
X217100000Y-104428572D01*
X217171429Y-104571429D01*
X215814286Y-105714286D02*
X215742857Y-105785714D01*
X215671429Y-105714286D01*
X215742857Y-105642857D01*
X215814286Y-105714286D01*
X215671429Y-105714286D01*
X217171429Y-106714286D02*
X217171429Y-106857143D01*
X217100000Y-107000000D01*
X217028571Y-107071429D01*
X216885714Y-107142858D01*
X216600000Y-107214286D01*
X216242857Y-107214286D01*
X215957143Y-107142858D01*
X215814286Y-107071429D01*
X215742857Y-107000000D01*
X215671429Y-106857143D01*
X215671429Y-106714286D01*
X215742857Y-106571429D01*
X215814286Y-106500000D01*
X215957143Y-106428572D01*
X216242857Y-106357143D01*
X216600000Y-106357143D01*
X216885714Y-106428572D01*
X217028571Y-106500000D01*
X217100000Y-106571429D01*
X217171429Y-106714286D01*
X217171429Y-108142857D02*
X217171429Y-108285714D01*
X217100000Y-108428571D01*
X217028571Y-108500000D01*
X216885714Y-108571429D01*
X216600000Y-108642857D01*
X216242857Y-108642857D01*
X215957143Y-108571429D01*
X215814286Y-108500000D01*
X215742857Y-108428571D01*
X215671429Y-108285714D01*
X215671429Y-108142857D01*
X215742857Y-108000000D01*
X215814286Y-107928571D01*
X215957143Y-107857143D01*
X216242857Y-107785714D01*
X216600000Y-107785714D01*
X216885714Y-107857143D01*
X217028571Y-107928571D01*
X217100000Y-108000000D01*
X217171429Y-108142857D01*
X217171429Y-109571428D02*
X217171429Y-109714285D01*
X217100000Y-109857142D01*
X217028571Y-109928571D01*
X216885714Y-110000000D01*
X216600000Y-110071428D01*
X216242857Y-110071428D01*
X215957143Y-110000000D01*
X215814286Y-109928571D01*
X215742857Y-109857142D01*
X215671429Y-109714285D01*
X215671429Y-109571428D01*
X215742857Y-109428571D01*
X215814286Y-109357142D01*
X215957143Y-109285714D01*
X216242857Y-109214285D01*
X216600000Y-109214285D01*
X216885714Y-109285714D01*
X217028571Y-109357142D01*
X217100000Y-109428571D01*
X217171429Y-109571428D01*
X215671429Y-111857142D02*
X216671429Y-111857142D01*
X216528571Y-111857142D02*
X216600000Y-111928570D01*
X216671429Y-112071428D01*
X216671429Y-112285713D01*
X216600000Y-112428570D01*
X216457143Y-112499999D01*
X215671429Y-112499999D01*
X216457143Y-112499999D02*
X216600000Y-112571428D01*
X216671429Y-112714285D01*
X216671429Y-112928570D01*
X216600000Y-113071428D01*
X216457143Y-113142856D01*
X215671429Y-113142856D01*
X215671429Y-113857142D02*
X216671429Y-113857142D01*
X216528571Y-113857142D02*
X216600000Y-113928570D01*
X216671429Y-114071428D01*
X216671429Y-114285713D01*
X216600000Y-114428570D01*
X216457143Y-114499999D01*
X215671429Y-114499999D01*
X216457143Y-114499999D02*
X216600000Y-114571428D01*
X216671429Y-114714285D01*
X216671429Y-114928570D01*
X216600000Y-115071428D01*
X216457143Y-115142856D01*
X215671429Y-115142856D01*
X215000000Y-84000000D02*
X215000000Y-134000000D01*
X199000000Y-84000000D02*
X217700000Y-84000000D01*
X199000000Y-134000000D02*
X217700000Y-134000000D01*
X215000000Y-134000000D02*
X214413579Y-132873496D01*
X215000000Y-134000000D02*
X215586421Y-132873496D01*
X215000000Y-84000000D02*
X214413579Y-85126504D01*
X215000000Y-84000000D02*
X215586421Y-85126504D01*
X133928573Y-66328571D02*
X133071430Y-66328571D01*
X133500002Y-66328571D02*
X133500002Y-64828571D01*
X133357145Y-65042857D01*
X133214287Y-65185714D01*
X133071430Y-65257143D01*
X134857144Y-64828571D02*
X135000001Y-64828571D01*
X135142858Y-64900000D01*
X135214287Y-64971429D01*
X135285716Y-65114286D01*
X135357144Y-65400000D01*
X135357144Y-65757143D01*
X135285716Y-66042857D01*
X135214287Y-66185714D01*
X135142858Y-66257143D01*
X135000001Y-66328571D01*
X134857144Y-66328571D01*
X134714287Y-66257143D01*
X134642858Y-66185714D01*
X134571430Y-66042857D01*
X134500001Y-65757143D01*
X134500001Y-65400000D01*
X134571430Y-65114286D01*
X134642858Y-64971429D01*
X134714287Y-64900000D01*
X134857144Y-64828571D01*
X136285715Y-64828571D02*
X136428572Y-64828571D01*
X136571429Y-64900000D01*
X136642858Y-64971429D01*
X136714287Y-65114286D01*
X136785715Y-65400000D01*
X136785715Y-65757143D01*
X136714287Y-66042857D01*
X136642858Y-66185714D01*
X136571429Y-66257143D01*
X136428572Y-66328571D01*
X136285715Y-66328571D01*
X136142858Y-66257143D01*
X136071429Y-66185714D01*
X136000001Y-66042857D01*
X135928572Y-65757143D01*
X135928572Y-65400000D01*
X136000001Y-65114286D01*
X136071429Y-64971429D01*
X136142858Y-64900000D01*
X136285715Y-64828571D01*
X137428572Y-66185714D02*
X137500000Y-66257143D01*
X137428572Y-66328571D01*
X137357143Y-66257143D01*
X137428572Y-66185714D01*
X137428572Y-66328571D01*
X138428572Y-64828571D02*
X138571429Y-64828571D01*
X138714286Y-64900000D01*
X138785715Y-64971429D01*
X138857144Y-65114286D01*
X138928572Y-65400000D01*
X138928572Y-65757143D01*
X138857144Y-66042857D01*
X138785715Y-66185714D01*
X138714286Y-66257143D01*
X138571429Y-66328571D01*
X138428572Y-66328571D01*
X138285715Y-66257143D01*
X138214286Y-66185714D01*
X138142858Y-66042857D01*
X138071429Y-65757143D01*
X138071429Y-65400000D01*
X138142858Y-65114286D01*
X138214286Y-64971429D01*
X138285715Y-64900000D01*
X138428572Y-64828571D01*
X139857143Y-64828571D02*
X140000000Y-64828571D01*
X140142857Y-64900000D01*
X140214286Y-64971429D01*
X140285715Y-65114286D01*
X140357143Y-65400000D01*
X140357143Y-65757143D01*
X140285715Y-66042857D01*
X140214286Y-66185714D01*
X140142857Y-66257143D01*
X140000000Y-66328571D01*
X139857143Y-66328571D01*
X139714286Y-66257143D01*
X139642857Y-66185714D01*
X139571429Y-66042857D01*
X139500000Y-65757143D01*
X139500000Y-65400000D01*
X139571429Y-65114286D01*
X139642857Y-64971429D01*
X139714286Y-64900000D01*
X139857143Y-64828571D01*
X141285714Y-64828571D02*
X141428571Y-64828571D01*
X141571428Y-64900000D01*
X141642857Y-64971429D01*
X141714286Y-65114286D01*
X141785714Y-65400000D01*
X141785714Y-65757143D01*
X141714286Y-66042857D01*
X141642857Y-66185714D01*
X141571428Y-66257143D01*
X141428571Y-66328571D01*
X141285714Y-66328571D01*
X141142857Y-66257143D01*
X141071428Y-66185714D01*
X141000000Y-66042857D01*
X140928571Y-65757143D01*
X140928571Y-65400000D01*
X141000000Y-65114286D01*
X141071428Y-64971429D01*
X141142857Y-64900000D01*
X141285714Y-64828571D01*
X143571428Y-66328571D02*
X143571428Y-65328571D01*
X143571428Y-65471429D02*
X143642856Y-65400000D01*
X143785714Y-65328571D01*
X143999999Y-65328571D01*
X144142856Y-65400000D01*
X144214285Y-65542857D01*
X144214285Y-66328571D01*
X144214285Y-65542857D02*
X144285714Y-65400000D01*
X144428571Y-65328571D01*
X144642856Y-65328571D01*
X144785714Y-65400000D01*
X144857142Y-65542857D01*
X144857142Y-66328571D01*
X145571428Y-66328571D02*
X145571428Y-65328571D01*
X145571428Y-65471429D02*
X145642856Y-65400000D01*
X145785714Y-65328571D01*
X145999999Y-65328571D01*
X146142856Y-65400000D01*
X146214285Y-65542857D01*
X146214285Y-66328571D01*
X146214285Y-65542857D02*
X146285714Y-65400000D01*
X146428571Y-65328571D01*
X146642856Y-65328571D01*
X146785714Y-65400000D01*
X146857142Y-65542857D01*
X146857142Y-66328571D01*
X90000000Y-67000000D02*
X190000000Y-67000000D01*
X90000000Y-76000000D02*
X90000000Y-64300000D01*
X190000000Y-76000000D02*
X190000000Y-64300000D01*
X190000000Y-67000000D02*
X188873496Y-67586421D01*
X190000000Y-67000000D02*
X188873496Y-66413579D01*
X90000000Y-67000000D02*
X91126504Y-67586421D01*
X90000000Y-67000000D02*
X91126504Y-66413579D01*
D10*
X90000000Y-134000000D02*
X90000000Y-84000000D01*
X190000000Y-134000000D02*
X90000000Y-134000000D01*
X190000000Y-84000000D02*
X190000000Y-134000000D01*
X90000000Y-84000000D02*
X190000000Y-84000000D01*
D12*
X123900000Y-131150000D02*
X123900000Y-86650000D01*
X123900000Y-86650000D02*
X149300000Y-86650000D01*
X149300000Y-86650000D02*
X149300000Y-131150000D01*
X149300000Y-131150000D02*
X123900000Y-131150000D01*
X127940000Y-128585000D02*
G75*
G03X127940000Y-128585000I-1500000J0D01*
G01*
X148260000Y-128585000D02*
G75*
G03X148260000Y-128585000I-1500000J0D01*
G01*
X127940000Y-89215000D02*
G75*
G03X127940000Y-89215000I-1500000J0D01*
G01*
X148260000Y-89215000D02*
G75*
G03X148260000Y-89215000I-1500000J0D01*
G01*
X132790000Y-122235000D02*
X140410000Y-122235000D01*
X140410000Y-122235000D02*
X140410000Y-127315000D01*
X140410000Y-127315000D02*
X132790000Y-127315000D01*
X132790000Y-127315000D02*
X132790000Y-122235000D01*
X138100000Y-91120000D02*
G75*
G03X138100000Y-91120000I-1500000J0D01*
G01*
X132790000Y-87310000D02*
X140410000Y-87310000D01*
X140410000Y-87310000D02*
X140410000Y-94930000D01*
X140410000Y-94930000D02*
X132790000Y-94930000D01*
X132790000Y-94930000D02*
X132790000Y-87310000D01*
X135330000Y-91120000D02*
X137870000Y-91120000D01*
X136600000Y-89850000D02*
X136600000Y-92390000D01*
D13*
X131572917Y-124114298D02*
X132377250Y-125320798D01*
X132377250Y-124114298D02*
X131572917Y-125320798D01*
X133066679Y-124114298D02*
X133296489Y-124114298D01*
X133411394Y-124171750D01*
X133526298Y-124286655D01*
X133583751Y-124516464D01*
X133583751Y-124918631D01*
X133526298Y-125148440D01*
X133411394Y-125263345D01*
X133296489Y-125320798D01*
X133066679Y-125320798D01*
X132951775Y-125263345D01*
X132836870Y-125148440D01*
X132779418Y-124918631D01*
X132779418Y-124516464D01*
X132836870Y-124286655D01*
X132951775Y-124171750D01*
X133066679Y-124114298D01*
X135652036Y-125320798D02*
X134962608Y-125320798D01*
X135307322Y-125320798D02*
X135307322Y-124114298D01*
X135192417Y-124286655D01*
X135077512Y-124401560D01*
X134962608Y-124459012D01*
X136111656Y-124229202D02*
X136169108Y-124171750D01*
X136284013Y-124114298D01*
X136571275Y-124114298D01*
X136686179Y-124171750D01*
X136743632Y-124229202D01*
X136801084Y-124344107D01*
X136801084Y-124459012D01*
X136743632Y-124631369D01*
X136054203Y-125320798D01*
X136801084Y-125320798D01*
X137892680Y-124114298D02*
X137318156Y-124114298D01*
X137260704Y-124688821D01*
X137318156Y-124631369D01*
X137433061Y-124573917D01*
X137720323Y-124573917D01*
X137835227Y-124631369D01*
X137892680Y-124688821D01*
X137950132Y-124803726D01*
X137950132Y-125090988D01*
X137892680Y-125205893D01*
X137835227Y-125263345D01*
X137720323Y-125320798D01*
X137433061Y-125320798D01*
X137318156Y-125263345D01*
X137260704Y-125205893D01*
X138467204Y-125320798D02*
X138467204Y-124114298D01*
X138869371Y-124976083D01*
X139271537Y-124114298D01*
X139271537Y-125320798D01*
X139846061Y-125320798D02*
X139846061Y-124114298D01*
X139846061Y-124688821D02*
X140535489Y-124688821D01*
X140535489Y-125320798D02*
X140535489Y-124114298D01*
X140995108Y-124516464D02*
X141627084Y-124516464D01*
X140995108Y-125320798D01*
X141627084Y-125320798D01*
M02*
