%TF.GenerationSoftware,KiCad,Pcbnew,4.0.7*%
%TF.CreationDate,2018-03-08T20:30:34+00:00*%
%TF.ProjectId,antenna_analyser,616E74656E6E615F616E616C79736572,rev?*%
%TF.FileFunction,Copper,L1,Top,Signal*%
%FSLAX46Y46*%
G04 Gerber Fmt 4.6, Leading zero omitted, Abs format (unit mm)*
G04 Created by KiCad (PCBNEW 4.0.7) date 2018 March 08, Thursday 20:30:34*
%MOMM*%
%LPD*%
G01*
G04 APERTURE LIST*
%ADD10C,0.100000*%
%ADD11C,0.300000*%
%ADD12C,0.150000*%
%ADD13O,2.000000X1.720000*%
%ADD14O,1.250000X0.950000*%
%ADD15O,1.000000X1.550000*%
%ADD16C,4.064000*%
%ADD17C,1.501140*%
%ADD18R,1.300000X1.300000*%
%ADD19C,1.300000*%
%ADD20C,1.998980*%
%ADD21R,1.998980X1.998980*%
%ADD22C,1.750000*%
%ADD23O,4.000000X4.000000*%
%ADD24O,1.600000X1.600000*%
%ADD25R,2.286000X1.574800*%
%ADD26O,2.286000X1.574800*%
%ADD27C,3.810000*%
%ADD28C,3.556000*%
%ADD29R,2.032000X1.727200*%
%ADD30O,2.032000X1.727200*%
%ADD31C,0.400000*%
%ADD32C,0.254000*%
G04 APERTURE END LIST*
D10*
D11*
X100814286Y-87778571D02*
X100814286Y-86278571D01*
X101457143Y-87778571D02*
X101457143Y-86992857D01*
X101385714Y-86850000D01*
X101242857Y-86778571D01*
X101028572Y-86778571D01*
X100885714Y-86850000D01*
X100814286Y-86921429D01*
X101957143Y-86778571D02*
X102528572Y-86778571D01*
X102171429Y-86278571D02*
X102171429Y-87564286D01*
X102242857Y-87707143D01*
X102385715Y-87778571D01*
X102528572Y-87778571D01*
X102814286Y-86778571D02*
X103385715Y-86778571D01*
X103028572Y-86278571D02*
X103028572Y-87564286D01*
X103100000Y-87707143D01*
X103242858Y-87778571D01*
X103385715Y-87778571D01*
X103885715Y-86778571D02*
X103885715Y-88278571D01*
X103885715Y-86850000D02*
X104028572Y-86778571D01*
X104314286Y-86778571D01*
X104457143Y-86850000D01*
X104528572Y-86921429D01*
X104600001Y-87064286D01*
X104600001Y-87492857D01*
X104528572Y-87635714D01*
X104457143Y-87707143D01*
X104314286Y-87778571D01*
X104028572Y-87778571D01*
X103885715Y-87707143D01*
X105242858Y-87635714D02*
X105314286Y-87707143D01*
X105242858Y-87778571D01*
X105171429Y-87707143D01*
X105242858Y-87635714D01*
X105242858Y-87778571D01*
X105242858Y-86850000D02*
X105314286Y-86921429D01*
X105242858Y-86992857D01*
X105171429Y-86921429D01*
X105242858Y-86850000D01*
X105242858Y-86992857D01*
X107028572Y-86207143D02*
X105742858Y-88135714D01*
X108600001Y-86207143D02*
X107314287Y-88135714D01*
X109100002Y-86778571D02*
X109100002Y-88064286D01*
X109028573Y-88207143D01*
X108885716Y-88278571D01*
X108814288Y-88278571D01*
X109100002Y-86278571D02*
X109028573Y-86350000D01*
X109100002Y-86421429D01*
X109171430Y-86350000D01*
X109100002Y-86278571D01*
X109100002Y-86421429D01*
X109814288Y-87635714D02*
X109885716Y-87707143D01*
X109814288Y-87778571D01*
X109742859Y-87707143D01*
X109814288Y-87635714D01*
X109814288Y-87778571D01*
X110528574Y-87778571D02*
X110528574Y-86778571D01*
X110528574Y-86921429D02*
X110600002Y-86850000D01*
X110742860Y-86778571D01*
X110957145Y-86778571D01*
X111100002Y-86850000D01*
X111171431Y-86992857D01*
X111171431Y-87778571D01*
X111171431Y-86992857D02*
X111242860Y-86850000D01*
X111385717Y-86778571D01*
X111600002Y-86778571D01*
X111742860Y-86850000D01*
X111814288Y-86992857D01*
X111814288Y-87778571D01*
X112528574Y-86778571D02*
X112528574Y-88278571D01*
X112528574Y-86850000D02*
X112671431Y-86778571D01*
X112957145Y-86778571D01*
X113100002Y-86850000D01*
X113171431Y-86921429D01*
X113242860Y-87064286D01*
X113242860Y-87492857D01*
X113171431Y-87635714D01*
X113100002Y-87707143D01*
X112957145Y-87778571D01*
X112671431Y-87778571D01*
X112528574Y-87707143D01*
X114957145Y-86207143D02*
X113671431Y-88135714D01*
X115457146Y-87778571D02*
X115457146Y-86278571D01*
X115457146Y-86992857D02*
X116314289Y-86992857D01*
X116314289Y-87778571D02*
X116314289Y-86278571D01*
X117528575Y-86992857D02*
X117028575Y-86992857D01*
X117028575Y-87778571D02*
X117028575Y-86278571D01*
X117742861Y-86278571D01*
X118242860Y-87350000D02*
X118957146Y-87350000D01*
X118100003Y-87778571D02*
X118600003Y-86278571D01*
X119100003Y-87778571D01*
X119528574Y-87350000D02*
X120242860Y-87350000D01*
X119385717Y-87778571D02*
X119885717Y-86278571D01*
X120385717Y-87778571D01*
X120957145Y-87778571D02*
X121242860Y-87778571D01*
X121385717Y-87707143D01*
X121457145Y-87635714D01*
X121600003Y-87421429D01*
X121671431Y-87135714D01*
X121671431Y-86564286D01*
X121600003Y-86421429D01*
X121528574Y-86350000D01*
X121385717Y-86278571D01*
X121100003Y-86278571D01*
X120957145Y-86350000D01*
X120885717Y-86421429D01*
X120814288Y-86564286D01*
X120814288Y-86921429D01*
X120885717Y-87064286D01*
X120957145Y-87135714D01*
X121100003Y-87207143D01*
X121385717Y-87207143D01*
X121528574Y-87135714D01*
X121600003Y-87064286D01*
X121671431Y-86921429D01*
X122528574Y-86921429D02*
X122385716Y-86850000D01*
X122314288Y-86778571D01*
X122242859Y-86635714D01*
X122242859Y-86564286D01*
X122314288Y-86421429D01*
X122385716Y-86350000D01*
X122528574Y-86278571D01*
X122814288Y-86278571D01*
X122957145Y-86350000D01*
X123028574Y-86421429D01*
X123100002Y-86564286D01*
X123100002Y-86635714D01*
X123028574Y-86778571D01*
X122957145Y-86850000D01*
X122814288Y-86921429D01*
X122528574Y-86921429D01*
X122385716Y-86992857D01*
X122314288Y-87064286D01*
X122242859Y-87207143D01*
X122242859Y-87492857D01*
X122314288Y-87635714D01*
X122385716Y-87707143D01*
X122528574Y-87778571D01*
X122814288Y-87778571D01*
X122957145Y-87707143D01*
X123028574Y-87635714D01*
X123100002Y-87492857D01*
X123100002Y-87207143D01*
X123028574Y-87064286D01*
X122957145Y-86992857D01*
X122814288Y-86921429D01*
X124457145Y-86278571D02*
X123742859Y-86278571D01*
X123671430Y-86992857D01*
X123742859Y-86921429D01*
X123885716Y-86850000D01*
X124242859Y-86850000D01*
X124385716Y-86921429D01*
X124457145Y-86992857D01*
X124528573Y-87135714D01*
X124528573Y-87492857D01*
X124457145Y-87635714D01*
X124385716Y-87707143D01*
X124242859Y-87778571D01*
X123885716Y-87778571D01*
X123742859Y-87707143D01*
X123671430Y-87635714D01*
X125457144Y-86278571D02*
X125600001Y-86278571D01*
X125742858Y-86350000D01*
X125814287Y-86421429D01*
X125885716Y-86564286D01*
X125957144Y-86850000D01*
X125957144Y-87207143D01*
X125885716Y-87492857D01*
X125814287Y-87635714D01*
X125742858Y-87707143D01*
X125600001Y-87778571D01*
X125457144Y-87778571D01*
X125314287Y-87707143D01*
X125242858Y-87635714D01*
X125171430Y-87492857D01*
X125100001Y-87207143D01*
X125100001Y-86850000D01*
X125171430Y-86564286D01*
X125242858Y-86421429D01*
X125314287Y-86350000D01*
X125457144Y-86278571D01*
D10*
X90000000Y-134000000D02*
X90000000Y-84000000D01*
X190000000Y-134000000D02*
X90000000Y-134000000D01*
X190000000Y-84000000D02*
X190000000Y-134000000D01*
X90000000Y-84000000D02*
X190000000Y-84000000D01*
D12*
X135319000Y-118541000D02*
X135319000Y-119557000D01*
X134811000Y-119049000D02*
X135827000Y-119049000D01*
D13*
X126440000Y-93660000D03*
X126440000Y-96200000D03*
X126440000Y-98740000D03*
X126440000Y-101280000D03*
X126440000Y-106360000D03*
X126440000Y-111440000D03*
X126440000Y-113980000D03*
X126440000Y-116520000D03*
X146760000Y-93660000D03*
X146760000Y-96200000D03*
X146760000Y-98740000D03*
X146760000Y-101280000D03*
X146760000Y-106360000D03*
X146760000Y-108900000D03*
X146760000Y-111440000D03*
X146760000Y-113980000D03*
X146760000Y-116520000D03*
D14*
X109100900Y-127437460D03*
X104100900Y-127437460D03*
D15*
X110100900Y-130137460D03*
X103100900Y-130137460D03*
D16*
X97000000Y-87000000D03*
X97000000Y-130500000D03*
X173000000Y-87500000D03*
X173000000Y-130500000D03*
D17*
X138240000Y-120700000D03*
X135700000Y-120700000D03*
D18*
X159250000Y-124500000D03*
D19*
X159250000Y-127000000D03*
D18*
X156750000Y-124500000D03*
D19*
X156750000Y-127000000D03*
D18*
X184750000Y-112750000D03*
D19*
X184750000Y-110250000D03*
D18*
X161500000Y-100000000D03*
D19*
X164000000Y-100000000D03*
D18*
X119500000Y-127500000D03*
D19*
X122000000Y-127500000D03*
D20*
X169747460Y-104090000D03*
D21*
X169747460Y-114250000D03*
D20*
X172747460Y-104090000D03*
D21*
X172747460Y-114250000D03*
D22*
X188100000Y-99300000D03*
X188100000Y-94300000D03*
X188100000Y-96800000D03*
X173600000Y-94300000D03*
X173600000Y-99300000D03*
D23*
X180600000Y-90600000D03*
X180600000Y-103000000D03*
D24*
X154000000Y-119500000D03*
X154000000Y-122040000D03*
X154000000Y-124580000D03*
X154000000Y-127120000D03*
X161620000Y-127120000D03*
X161620000Y-124580000D03*
X161620000Y-122040000D03*
X161620000Y-119500000D03*
D25*
X116710000Y-122070000D03*
D26*
X116710000Y-119530000D03*
X116710000Y-116990000D03*
X116710000Y-114450000D03*
X116710000Y-111910000D03*
X116710000Y-109370000D03*
X116710000Y-106830000D03*
X116710000Y-104290000D03*
X116710000Y-101750000D03*
X116710000Y-99210000D03*
X116710000Y-96670000D03*
X116710000Y-94130000D03*
X101470000Y-94130000D03*
X101470000Y-96670000D03*
X101470000Y-99210000D03*
X101470000Y-101750000D03*
X101470000Y-104290000D03*
X101470000Y-106830000D03*
X101470000Y-109370000D03*
X101470000Y-111910000D03*
X101470000Y-114450000D03*
X101470000Y-116990000D03*
X101470000Y-119530000D03*
X101470000Y-122070000D03*
D27*
X154325000Y-89325000D03*
D28*
X157500000Y-92500000D03*
D27*
X160675000Y-89325000D03*
X154325000Y-95675000D03*
X160675000Y-95675000D03*
D29*
X92100000Y-92800000D03*
D30*
X92100000Y-95340000D03*
X92100000Y-97880000D03*
X92100000Y-100420000D03*
X92100000Y-102960000D03*
X92100000Y-105500000D03*
X92100000Y-108040000D03*
X92100000Y-110580000D03*
X92100000Y-113120000D03*
X92100000Y-115660000D03*
X92100000Y-118200000D03*
X92100000Y-120740000D03*
X92100000Y-123280000D03*
X92100000Y-125820000D03*
D29*
X120600000Y-122100000D03*
D30*
X120600000Y-119560000D03*
X120600000Y-117020000D03*
X120600000Y-114480000D03*
D20*
X150920000Y-115000000D03*
X161080000Y-115000000D03*
X175920000Y-107000000D03*
X186080000Y-107000000D03*
X176000000Y-120080000D03*
X176000000Y-109920000D03*
X179500000Y-120080000D03*
X179500000Y-109920000D03*
X152250000Y-100170000D03*
X152250000Y-110330000D03*
X184750000Y-125580000D03*
X184750000Y-115420000D03*
X169420000Y-123250000D03*
X179580000Y-123250000D03*
X155170000Y-104250000D03*
X165330000Y-104250000D03*
X161080000Y-131500000D03*
X150920000Y-131500000D03*
X166800000Y-118120000D03*
X166800000Y-128280000D03*
X151000000Y-117920000D03*
X151000000Y-128080000D03*
D31*
X150920000Y-111660000D02*
X152250000Y-110330000D01*
X150920000Y-115000000D02*
X150920000Y-111660000D01*
X145220000Y-120700000D02*
X150920000Y-115000000D01*
X138240000Y-120700000D02*
X145220000Y-120700000D01*
X128980000Y-113980000D02*
X135700000Y-120700000D01*
X126440000Y-113980000D02*
X128980000Y-113980000D01*
X161620000Y-127120000D02*
X162235900Y-127120000D01*
X161620000Y-126870000D02*
X159250000Y-124500000D01*
X161620000Y-127120000D02*
X161620000Y-126870000D01*
X164450000Y-130150000D02*
X167950000Y-130150000D01*
X167950000Y-130150000D02*
X176000000Y-122100000D01*
X176000000Y-122100000D02*
X176000000Y-120080000D01*
X161620000Y-127320000D02*
X164450000Y-130150000D01*
X161620000Y-127120000D02*
X161620000Y-127320000D01*
X179500000Y-123170000D02*
X179500000Y-120080000D01*
X179580000Y-123250000D02*
X179500000Y-123170000D01*
X119103700Y-114450000D02*
X119133700Y-114480000D01*
X116710000Y-114450000D02*
X119103700Y-114450000D01*
X176000000Y-109920000D02*
X179500000Y-109920000D01*
X184420000Y-108660000D02*
X184420000Y-109920000D01*
X186080000Y-107000000D02*
X184420000Y-108660000D01*
X179500000Y-109920000D02*
X184420000Y-109920000D01*
X184420000Y-109920000D02*
X184750000Y-110250000D01*
X120600000Y-114480000D02*
X119866900Y-114480000D01*
X119866900Y-114480000D02*
X119133700Y-114480000D01*
X94614500Y-92825500D02*
X102288100Y-92825500D01*
X102288100Y-92825500D02*
X109090000Y-99627400D01*
X109090000Y-99627400D02*
X109090000Y-106460800D01*
X92100000Y-95340000D02*
X94614500Y-92825500D01*
X170280000Y-99300000D02*
X173600000Y-99300000D01*
X165330000Y-104250000D02*
X168140000Y-101440000D01*
X168140000Y-101440000D02*
X170280000Y-99300000D01*
X186080000Y-98820000D02*
X186080000Y-107000000D01*
X188100000Y-96800000D02*
X186080000Y-98820000D01*
X166655000Y-95675000D02*
X170280000Y-99300000D01*
X160675000Y-95675000D02*
X166655000Y-95675000D01*
X154120000Y-127000000D02*
X154000000Y-127120000D01*
X155500000Y-127000000D02*
X154120000Y-127000000D01*
X156750000Y-127000000D02*
X155500000Y-127000000D01*
X115250000Y-114450000D02*
X109090000Y-108290000D01*
X109090000Y-108290000D02*
X109090000Y-106460800D01*
X116710000Y-114450000D02*
X115250000Y-114450000D01*
X120600000Y-109100000D02*
X123340000Y-106360000D01*
X123340000Y-106360000D02*
X126440000Y-106360000D01*
X120600000Y-114480000D02*
X120600000Y-109100000D01*
X147550000Y-127500000D02*
X149250000Y-125800000D01*
X149250000Y-125800000D02*
X152680000Y-125800000D01*
X152680000Y-125800000D02*
X154000000Y-127120000D01*
X122000000Y-127500000D02*
X147550000Y-127500000D01*
X152680000Y-123720000D02*
X153100000Y-123300000D01*
X155750000Y-123300000D02*
X155950000Y-123300000D01*
X153100000Y-123300000D02*
X155750000Y-123300000D01*
X152680000Y-125800000D02*
X152680000Y-123720000D01*
X156005900Y-123300000D02*
X156700000Y-122605900D01*
X156700000Y-122605900D02*
X169385900Y-109920000D01*
X169385900Y-109920000D02*
X176000000Y-109920000D01*
X155750000Y-123300000D02*
X156005900Y-123300000D01*
X184750000Y-115420000D02*
X184750000Y-112750000D01*
X124130000Y-91350000D02*
X126440000Y-93660000D01*
X93800000Y-91350000D02*
X124130000Y-91350000D01*
X92350000Y-92800000D02*
X93800000Y-91350000D01*
X92100000Y-92800000D02*
X92350000Y-92800000D01*
X175657500Y-107000000D02*
X172747500Y-104090000D01*
X175920000Y-107000000D02*
X175657500Y-107000000D01*
X169747460Y-106332540D02*
X161080000Y-115000000D01*
X169747460Y-104090000D02*
X169747460Y-106332540D01*
X184250000Y-94300000D02*
X188100000Y-94300000D01*
X184225000Y-94300000D02*
X184250000Y-94300000D01*
X163250000Y-108250000D02*
X164250000Y-108250000D01*
X164250000Y-108250000D02*
X167500000Y-105000000D01*
X148250000Y-105000000D02*
X151500000Y-108250000D01*
X184250000Y-94300000D02*
X182700000Y-94300000D01*
X182700000Y-94300000D02*
X176000000Y-101000000D01*
X176000000Y-101000000D02*
X170250000Y-101000000D01*
X170250000Y-101000000D02*
X167500000Y-103750000D01*
X167500000Y-103750000D02*
X167500000Y-105000000D01*
X151500000Y-108250000D02*
X163250000Y-108250000D01*
X118670000Y-106830000D02*
X120500000Y-105000000D01*
X116710000Y-106830000D02*
X118670000Y-106830000D01*
X120500000Y-105000000D02*
X125250000Y-105000000D01*
X125250000Y-105000000D02*
X148250000Y-105000000D01*
X123000000Y-103020000D02*
X123079800Y-103020000D01*
X124950000Y-103020000D02*
X124980000Y-103020000D01*
X123000000Y-103020000D02*
X124950000Y-103020000D01*
X115050900Y-111850900D02*
X115110000Y-111910000D01*
X115110000Y-111910000D02*
X116710000Y-111910000D01*
X115050900Y-109864100D02*
X115050900Y-103773400D01*
X115050900Y-103773400D02*
X115804300Y-103020000D01*
X123000000Y-103020000D02*
X115804300Y-103020000D01*
X115050900Y-109864100D02*
X115050900Y-111850900D01*
X132621000Y-103020000D02*
X133141000Y-102500000D01*
X164733800Y-85433800D02*
X173600000Y-94300000D01*
X150207200Y-85433800D02*
X164733800Y-85433800D01*
X135631000Y-100010000D02*
X150207200Y-85433800D01*
X133141000Y-102500000D02*
X135631000Y-100010000D01*
X124950000Y-103020000D02*
X132621000Y-103020000D01*
X163100000Y-124580000D02*
X161620000Y-124580000D01*
X166800000Y-128280000D02*
X163100000Y-124580000D01*
X157850400Y-123911500D02*
X159721900Y-122040000D01*
X157850400Y-127466500D02*
X157850400Y-123911500D01*
X155786800Y-129530100D02*
X157850400Y-127466500D01*
X159721900Y-122040000D02*
X161620000Y-122040000D01*
X116873600Y-129530100D02*
X155786800Y-129530100D01*
X103063500Y-115720000D02*
X116873600Y-129530100D01*
X100631900Y-115720000D02*
X103063500Y-115720000D01*
X99165200Y-114253300D02*
X100631900Y-115720000D01*
X98000000Y-113088100D02*
X99165200Y-114253300D01*
X98000000Y-105700000D02*
X98000000Y-113088100D01*
X99410000Y-104290000D02*
X98000000Y-105700000D01*
X101470000Y-104290000D02*
X99410000Y-104290000D01*
X162300000Y-129530100D02*
X155786800Y-129530100D01*
X162480100Y-129530100D02*
X162300000Y-129530100D01*
X177750000Y-115850000D02*
X177750000Y-121600000D01*
X173600000Y-111700000D02*
X177750000Y-115850000D01*
X168950000Y-111700000D02*
X173600000Y-111700000D01*
X166800000Y-113850000D02*
X168950000Y-111700000D01*
X166800000Y-118120000D02*
X166800000Y-113850000D01*
X162580100Y-129530100D02*
X164050000Y-131000000D01*
X164050000Y-131000000D02*
X168350000Y-131000000D01*
X168350000Y-131000000D02*
X177750000Y-121600000D01*
X162300000Y-129530100D02*
X162580100Y-129530100D01*
X151169700Y-117920000D02*
X152749700Y-119500000D01*
X151000000Y-117920000D02*
X151169700Y-117920000D01*
X154000000Y-119500000D02*
X152749700Y-119500000D01*
X101470000Y-106830000D02*
X101470000Y-107276900D01*
X101470000Y-107276900D02*
X101409900Y-107276900D01*
X99770000Y-106830000D02*
X99000000Y-107600000D01*
X99000000Y-107600000D02*
X99000000Y-111547800D01*
X99000000Y-111547800D02*
X99830600Y-112378400D01*
X99830600Y-112378400D02*
X100632200Y-113180000D01*
X104000000Y-113180000D02*
X104004600Y-113180000D01*
X100632200Y-113180000D02*
X104000000Y-113180000D01*
X101470000Y-106830000D02*
X99770000Y-106830000D01*
X104730000Y-113180000D02*
X116800000Y-125250000D01*
X116800000Y-125250000D02*
X143670000Y-125250000D01*
X143670000Y-125250000D02*
X145501800Y-123418200D01*
X145501800Y-123418200D02*
X151000000Y-117920000D01*
X104000000Y-113180000D02*
X104730000Y-113180000D01*
X116710000Y-122070000D02*
X118303300Y-122070000D01*
X118333300Y-122100000D02*
X118303300Y-122070000D01*
X120600000Y-122100000D02*
X118333300Y-122100000D01*
X118333300Y-119560000D02*
X118303300Y-119530000D01*
X120600000Y-119560000D02*
X118333300Y-119560000D01*
X116710000Y-119530000D02*
X118303300Y-119530000D01*
X116710000Y-116990000D02*
X118303300Y-116990000D01*
X118333300Y-117020000D02*
X118303300Y-116990000D01*
X120600000Y-117020000D02*
X118333300Y-117020000D01*
X123430000Y-101750000D02*
X116710000Y-101750000D01*
X126440000Y-98740000D02*
X123430000Y-101750000D01*
X123430000Y-99210000D02*
X116710000Y-99210000D01*
X126440000Y-96200000D02*
X123430000Y-99210000D01*
X95850000Y-94130000D02*
X101470000Y-94130000D01*
X92100000Y-97880000D02*
X95850000Y-94130000D01*
X96987700Y-108232300D02*
X96987700Y-104061500D01*
X92100000Y-113120000D02*
X96987700Y-108232300D01*
X99990000Y-99210000D02*
X96987700Y-102212300D01*
X96987700Y-102212300D02*
X96987700Y-104061500D01*
X101470000Y-99210000D02*
X99990000Y-99210000D01*
X103097600Y-98696000D02*
X103097600Y-109913200D01*
X102341700Y-97940100D02*
X103097600Y-98696000D01*
X97119900Y-97940100D02*
X102341700Y-97940100D01*
X92100000Y-102960000D02*
X97119900Y-97940100D01*
X103097600Y-111102400D02*
X103097600Y-109913200D01*
X102290000Y-111910000D02*
X103097600Y-111102400D01*
X101470000Y-111910000D02*
X102290000Y-111910000D01*
X169747500Y-122922500D02*
X169747500Y-114250000D01*
X169420000Y-123250000D02*
X169747500Y-122922500D01*
X103650300Y-128362800D02*
X104100900Y-128362800D01*
X103100900Y-128912200D02*
X103650300Y-128362800D01*
X103100900Y-130137500D02*
X103100900Y-128912200D01*
X110100900Y-130137500D02*
X110100900Y-128912200D01*
X104100900Y-127900100D02*
X109100900Y-127900100D01*
X109100900Y-127437500D02*
X109100900Y-127900100D01*
X104100900Y-127437500D02*
X104100900Y-127900100D01*
X104100900Y-127900100D02*
X104100900Y-128362800D01*
X109100900Y-127900100D02*
X109100900Y-128131400D01*
X109320100Y-128131400D02*
X110100900Y-128912200D01*
X109100900Y-128131400D02*
X109320100Y-128131400D01*
D32*
G36*
X186819138Y-95154229D02*
X187243537Y-95579370D01*
X187266469Y-95588892D01*
X187217545Y-95737940D01*
X188100000Y-96620395D01*
X188982455Y-95737940D01*
X188933682Y-95589352D01*
X188954229Y-95580862D01*
X189315000Y-95220721D01*
X189315000Y-95967747D01*
X189162060Y-95917545D01*
X188279605Y-96800000D01*
X189162060Y-97682455D01*
X189315000Y-97632253D01*
X189315000Y-98379794D01*
X188956463Y-98020630D01*
X188933531Y-98011108D01*
X188982455Y-97862060D01*
X188100000Y-96979605D01*
X187217545Y-97862060D01*
X187266318Y-98010648D01*
X187245771Y-98019138D01*
X186820630Y-98443537D01*
X186590262Y-98998325D01*
X186589738Y-99599040D01*
X186819138Y-100154229D01*
X187243537Y-100579370D01*
X187798325Y-100809738D01*
X188399040Y-100810262D01*
X188954229Y-100580862D01*
X189315000Y-100220721D01*
X189315000Y-133315000D01*
X90685000Y-133315000D01*
X90685000Y-131028172D01*
X94332538Y-131028172D01*
X94737709Y-132008761D01*
X95487293Y-132759655D01*
X96467173Y-133166536D01*
X97528172Y-133167462D01*
X98508761Y-132762291D01*
X99259655Y-132012707D01*
X99666536Y-131032827D01*
X99667462Y-129971828D01*
X99610859Y-129834836D01*
X101965900Y-129834836D01*
X101965900Y-130440084D01*
X102052297Y-130874430D01*
X102298334Y-131242650D01*
X102666554Y-131488687D01*
X103100900Y-131575084D01*
X103535246Y-131488687D01*
X103903466Y-131242650D01*
X104149503Y-130874430D01*
X104235900Y-130440084D01*
X104235900Y-129834836D01*
X104149503Y-129400490D01*
X104014070Y-129197800D01*
X104100900Y-129197800D01*
X104420441Y-129134239D01*
X104691334Y-128953234D01*
X104837087Y-128735100D01*
X108530320Y-128735100D01*
X108781359Y-128902839D01*
X108942780Y-128934948D01*
X109194901Y-129187069D01*
X109052297Y-129400490D01*
X108965900Y-129834836D01*
X108965900Y-130440084D01*
X109052297Y-130874430D01*
X109298334Y-131242650D01*
X109666554Y-131488687D01*
X110100900Y-131575084D01*
X110535246Y-131488687D01*
X110903466Y-131242650D01*
X111149503Y-130874430D01*
X111235900Y-130440084D01*
X111235900Y-129834836D01*
X111149503Y-129400490D01*
X110935900Y-129080811D01*
X110935900Y-128912200D01*
X110872339Y-128592659D01*
X110691334Y-128321766D01*
X110273340Y-127903772D01*
X110301091Y-127862239D01*
X110385585Y-127437460D01*
X110301091Y-127012681D01*
X110060474Y-126652571D01*
X109700364Y-126411954D01*
X109275585Y-126327460D01*
X108926215Y-126327460D01*
X108501436Y-126411954D01*
X108141326Y-126652571D01*
X107900709Y-127012681D01*
X107890282Y-127065100D01*
X105311518Y-127065100D01*
X105301091Y-127012681D01*
X105060474Y-126652571D01*
X104700364Y-126411954D01*
X104275585Y-126327460D01*
X103926215Y-126327460D01*
X103501436Y-126411954D01*
X103141326Y-126652571D01*
X102900709Y-127012681D01*
X102816215Y-127437460D01*
X102900709Y-127862239D01*
X102928460Y-127903772D01*
X102510466Y-128321766D01*
X102329461Y-128592659D01*
X102265900Y-128912200D01*
X102265900Y-129080811D01*
X102052297Y-129400490D01*
X101965900Y-129834836D01*
X99610859Y-129834836D01*
X99262291Y-128991239D01*
X98512707Y-128240345D01*
X97532827Y-127833464D01*
X96471828Y-127832538D01*
X95491239Y-128237709D01*
X94740345Y-128987293D01*
X94333464Y-129967173D01*
X94332538Y-131028172D01*
X90685000Y-131028172D01*
X90685000Y-126624372D01*
X90855585Y-126879670D01*
X91341766Y-127204526D01*
X91915255Y-127318600D01*
X92284745Y-127318600D01*
X92858234Y-127204526D01*
X93344415Y-126879670D01*
X93669271Y-126393489D01*
X93783345Y-125820000D01*
X93669271Y-125246511D01*
X93344415Y-124760330D01*
X93029634Y-124550000D01*
X93344415Y-124339670D01*
X93669271Y-123853489D01*
X93783345Y-123280000D01*
X93669271Y-122706511D01*
X93344415Y-122220330D01*
X93029634Y-122010000D01*
X93344415Y-121799670D01*
X93669271Y-121313489D01*
X93783345Y-120740000D01*
X93669271Y-120166511D01*
X93344415Y-119680330D01*
X93029634Y-119470000D01*
X93344415Y-119259670D01*
X93669271Y-118773489D01*
X93783345Y-118200000D01*
X93669271Y-117626511D01*
X93344415Y-117140330D01*
X93029634Y-116930000D01*
X93344415Y-116719670D01*
X93669271Y-116233489D01*
X93783345Y-115660000D01*
X93669271Y-115086511D01*
X93344415Y-114600330D01*
X93029634Y-114390000D01*
X93344415Y-114179670D01*
X93669271Y-113693489D01*
X93783345Y-113120000D01*
X93699979Y-112700889D01*
X97165000Y-109235868D01*
X97165000Y-113088100D01*
X97228561Y-113407641D01*
X97310626Y-113530460D01*
X97409566Y-113678534D01*
X99930169Y-116199137D01*
X99765441Y-116445671D01*
X99657167Y-116990000D01*
X99765441Y-117534329D01*
X100073778Y-117995789D01*
X100469199Y-118260000D01*
X100073778Y-118524211D01*
X99765441Y-118985671D01*
X99657167Y-119530000D01*
X99765441Y-120074329D01*
X100073778Y-120535789D01*
X100469199Y-120800000D01*
X100073778Y-121064211D01*
X99765441Y-121525671D01*
X99657167Y-122070000D01*
X99765441Y-122614329D01*
X100073778Y-123075789D01*
X100535238Y-123384126D01*
X101079567Y-123492400D01*
X101860433Y-123492400D01*
X102404762Y-123384126D01*
X102866222Y-123075789D01*
X103174559Y-122614329D01*
X103282833Y-122070000D01*
X103174559Y-121525671D01*
X102866222Y-121064211D01*
X102470801Y-120800000D01*
X102866222Y-120535789D01*
X103174559Y-120074329D01*
X103282833Y-119530000D01*
X103174559Y-118985671D01*
X102866222Y-118524211D01*
X102470801Y-118260000D01*
X102866222Y-117995789D01*
X103174559Y-117534329D01*
X103261231Y-117098599D01*
X116283166Y-130120534D01*
X116554060Y-130301540D01*
X116873600Y-130365100D01*
X149743344Y-130365100D01*
X149535154Y-130572927D01*
X149285794Y-131173453D01*
X149285226Y-131823694D01*
X149533538Y-132424655D01*
X149992927Y-132884846D01*
X150593453Y-133134206D01*
X151243694Y-133134774D01*
X151844655Y-132886462D01*
X152079363Y-132652163D01*
X160107443Y-132652163D01*
X160206042Y-132918965D01*
X160815582Y-133145401D01*
X161465377Y-133121341D01*
X161953958Y-132918965D01*
X162052557Y-132652163D01*
X161080000Y-131679605D01*
X160107443Y-132652163D01*
X152079363Y-132652163D01*
X152304846Y-132427073D01*
X152554206Y-131826547D01*
X152554774Y-131176306D01*
X152306462Y-130575345D01*
X152096583Y-130365100D01*
X159861616Y-130365100D01*
X159813554Y-130413162D01*
X159927836Y-130527444D01*
X159661035Y-130626042D01*
X159434599Y-131235582D01*
X159458659Y-131885377D01*
X159661035Y-132373958D01*
X159927837Y-132472557D01*
X160900395Y-131500000D01*
X160886252Y-131485858D01*
X161065858Y-131306252D01*
X161080000Y-131320395D01*
X161094142Y-131306252D01*
X161273748Y-131485858D01*
X161259605Y-131500000D01*
X162232163Y-132472557D01*
X162498965Y-132373958D01*
X162725401Y-131764418D01*
X162701341Y-131114623D01*
X162501646Y-130632514D01*
X163459566Y-131590435D01*
X163730460Y-131771440D01*
X164050000Y-131835000D01*
X168350000Y-131835000D01*
X168669541Y-131771439D01*
X168940434Y-131590434D01*
X170333263Y-130197605D01*
X170332538Y-131028172D01*
X170737709Y-132008761D01*
X171487293Y-132759655D01*
X172467173Y-133166536D01*
X173528172Y-133167462D01*
X174508761Y-132762291D01*
X175259655Y-132012707D01*
X175666536Y-131032827D01*
X175667462Y-129971828D01*
X175262291Y-128991239D01*
X174512707Y-128240345D01*
X173532827Y-127833464D01*
X172698133Y-127832736D01*
X174627175Y-125903694D01*
X183115226Y-125903694D01*
X183363538Y-126504655D01*
X183822927Y-126964846D01*
X184423453Y-127214206D01*
X185073694Y-127214774D01*
X185674655Y-126966462D01*
X186134846Y-126507073D01*
X186384206Y-125906547D01*
X186384774Y-125256306D01*
X186136462Y-124655345D01*
X185677073Y-124195154D01*
X185076547Y-123945794D01*
X184426306Y-123945226D01*
X183825345Y-124193538D01*
X183365154Y-124652927D01*
X183115794Y-125253453D01*
X183115226Y-125903694D01*
X174627175Y-125903694D01*
X178186073Y-122344796D01*
X177945794Y-122923453D01*
X177945226Y-123573694D01*
X178193538Y-124174655D01*
X178652927Y-124634846D01*
X179253453Y-124884206D01*
X179903694Y-124884774D01*
X180504655Y-124636462D01*
X180964846Y-124177073D01*
X181214206Y-123576547D01*
X181214774Y-122926306D01*
X180966462Y-122325345D01*
X180507073Y-121865154D01*
X180335000Y-121793703D01*
X180335000Y-121503507D01*
X180424655Y-121466462D01*
X180884846Y-121007073D01*
X181134206Y-120406547D01*
X181134774Y-119756306D01*
X180886462Y-119155345D01*
X180427073Y-118695154D01*
X179826547Y-118445794D01*
X179176306Y-118445226D01*
X178585000Y-118689549D01*
X178585000Y-115850000D01*
X178563855Y-115743694D01*
X183115226Y-115743694D01*
X183363538Y-116344655D01*
X183822927Y-116804846D01*
X184423453Y-117054206D01*
X185073694Y-117054774D01*
X185674655Y-116806462D01*
X186134846Y-116347073D01*
X186384206Y-115746547D01*
X186384774Y-115096306D01*
X186136462Y-114495345D01*
X185677073Y-114035154D01*
X185611032Y-114007731D01*
X185635317Y-114003162D01*
X185851441Y-113864090D01*
X185996431Y-113651890D01*
X186047440Y-113400000D01*
X186047440Y-112100000D01*
X186003162Y-111864683D01*
X185864090Y-111648559D01*
X185651890Y-111503569D01*
X185400000Y-111452560D01*
X185237615Y-111452560D01*
X185413729Y-111379611D01*
X185469410Y-111149016D01*
X184750000Y-110429605D01*
X184030590Y-111149016D01*
X184086271Y-111379611D01*
X184295902Y-111452560D01*
X184100000Y-111452560D01*
X183864683Y-111496838D01*
X183648559Y-111635910D01*
X183503569Y-111848110D01*
X183452560Y-112100000D01*
X183452560Y-113400000D01*
X183496838Y-113635317D01*
X183635910Y-113851441D01*
X183848110Y-113996431D01*
X183893101Y-114005542D01*
X183825345Y-114033538D01*
X183365154Y-114492927D01*
X183115794Y-115093453D01*
X183115226Y-115743694D01*
X178563855Y-115743694D01*
X178521439Y-115530459D01*
X178340434Y-115259566D01*
X174190434Y-111109566D01*
X174134457Y-111072163D01*
X175027443Y-111072163D01*
X175126042Y-111338965D01*
X175735582Y-111565401D01*
X176385377Y-111541341D01*
X176873958Y-111338965D01*
X176972557Y-111072163D01*
X178527443Y-111072163D01*
X178626042Y-111338965D01*
X179235582Y-111565401D01*
X179885377Y-111541341D01*
X180373958Y-111338965D01*
X180472557Y-111072163D01*
X179500000Y-110099605D01*
X178527443Y-111072163D01*
X176972557Y-111072163D01*
X176000000Y-110099605D01*
X175027443Y-111072163D01*
X174134457Y-111072163D01*
X174130570Y-111069566D01*
X173919541Y-110928561D01*
X173600000Y-110865000D01*
X168950000Y-110865000D01*
X168630459Y-110928561D01*
X168419430Y-111069566D01*
X168359566Y-111109566D01*
X166209566Y-113259566D01*
X166028561Y-113530459D01*
X165965000Y-113850000D01*
X165965000Y-116696493D01*
X165875345Y-116733538D01*
X165415154Y-117192927D01*
X165165794Y-117793453D01*
X165165226Y-118443694D01*
X165413538Y-119044655D01*
X165872927Y-119504846D01*
X166473453Y-119754206D01*
X167123694Y-119754774D01*
X167724655Y-119506462D01*
X168184846Y-119047073D01*
X168434206Y-118446547D01*
X168434774Y-117796306D01*
X168186462Y-117195345D01*
X167727073Y-116735154D01*
X167635000Y-116696922D01*
X167635000Y-114195868D01*
X168100530Y-113730338D01*
X168100530Y-115249490D01*
X168144808Y-115484807D01*
X168283880Y-115700931D01*
X168496080Y-115845921D01*
X168747970Y-115896930D01*
X168912500Y-115896930D01*
X168912500Y-121691173D01*
X168495345Y-121863538D01*
X168035154Y-122322927D01*
X167785794Y-122923453D01*
X167785226Y-123573694D01*
X168033538Y-124174655D01*
X168492927Y-124634846D01*
X169093453Y-124884206D01*
X169743694Y-124884774D01*
X170344655Y-124636462D01*
X170804846Y-124177073D01*
X171054206Y-123576547D01*
X171054774Y-122926306D01*
X170806462Y-122325345D01*
X170582500Y-122100992D01*
X170582500Y-115896930D01*
X170746950Y-115896930D01*
X170982267Y-115852652D01*
X171198391Y-115713580D01*
X171246609Y-115643010D01*
X171283880Y-115700931D01*
X171496080Y-115845921D01*
X171747970Y-115896930D01*
X173746950Y-115896930D01*
X173982267Y-115852652D01*
X174198391Y-115713580D01*
X174343381Y-115501380D01*
X174394390Y-115249490D01*
X174394390Y-113675258D01*
X176915000Y-116195868D01*
X176915000Y-118690141D01*
X176326547Y-118445794D01*
X175676306Y-118445226D01*
X175075345Y-118693538D01*
X174615154Y-119152927D01*
X174365794Y-119753453D01*
X174365226Y-120403694D01*
X174613538Y-121004655D01*
X175072927Y-121464846D01*
X175165000Y-121503078D01*
X175165000Y-121754132D01*
X168434312Y-128484820D01*
X168434774Y-127956306D01*
X168186462Y-127355345D01*
X167727073Y-126895154D01*
X167126547Y-126645794D01*
X166476306Y-126645226D01*
X166384166Y-126683298D01*
X163690434Y-123989566D01*
X163419541Y-123808561D01*
X163100000Y-123745000D01*
X162782882Y-123745000D01*
X162662811Y-123565302D01*
X162280725Y-123310000D01*
X162662811Y-123054698D01*
X162973880Y-122589151D01*
X163083113Y-122040000D01*
X162973880Y-121490849D01*
X162662811Y-121025302D01*
X162280725Y-120770000D01*
X162662811Y-120514698D01*
X162973880Y-120049151D01*
X163083113Y-119500000D01*
X162973880Y-118950849D01*
X162662811Y-118485302D01*
X162197264Y-118174233D01*
X161648113Y-118065000D01*
X161591887Y-118065000D01*
X161042736Y-118174233D01*
X160577189Y-118485302D01*
X160266120Y-118950849D01*
X160156887Y-119500000D01*
X160266120Y-120049151D01*
X160577189Y-120514698D01*
X160959275Y-120770000D01*
X160577189Y-121025302D01*
X160457118Y-121205000D01*
X159721900Y-121205000D01*
X159402360Y-121268560D01*
X159131466Y-121449566D01*
X157378472Y-123202560D01*
X156100000Y-123202560D01*
X155864683Y-123246838D01*
X155648559Y-123385910D01*
X155503569Y-123598110D01*
X155452560Y-123850000D01*
X155452560Y-124526947D01*
X155353880Y-124030849D01*
X155042811Y-123565302D01*
X154660725Y-123310000D01*
X155042811Y-123054698D01*
X155353880Y-122589151D01*
X155463113Y-122040000D01*
X155353880Y-121490849D01*
X155042811Y-121025302D01*
X154660725Y-120770000D01*
X155042811Y-120514698D01*
X155353880Y-120049151D01*
X155463113Y-119500000D01*
X155353880Y-118950849D01*
X155042811Y-118485302D01*
X154577264Y-118174233D01*
X154028113Y-118065000D01*
X153971887Y-118065000D01*
X153422736Y-118174233D01*
X152957189Y-118485302D01*
X152940639Y-118510071D01*
X152634243Y-118203675D01*
X152634774Y-117596306D01*
X152386462Y-116995345D01*
X151927073Y-116535154D01*
X151706479Y-116443555D01*
X151844655Y-116386462D01*
X152304846Y-115927073D01*
X152554206Y-115326547D01*
X152554774Y-114676306D01*
X152306462Y-114075345D01*
X151847073Y-113615154D01*
X151755000Y-113576922D01*
X151755000Y-112005868D01*
X151833863Y-111927005D01*
X151923453Y-111964206D01*
X152573694Y-111964774D01*
X153174655Y-111716462D01*
X153634846Y-111257073D01*
X153884206Y-110656547D01*
X153884774Y-110006306D01*
X153636462Y-109405345D01*
X153316675Y-109085000D01*
X164250000Y-109085000D01*
X164569541Y-109021439D01*
X164840434Y-108840434D01*
X168090434Y-105590434D01*
X168160184Y-105486046D01*
X168271439Y-105319541D01*
X168335000Y-105000000D01*
X168335000Y-104951735D01*
X168360998Y-105014655D01*
X168820387Y-105474846D01*
X168912460Y-105513078D01*
X168912460Y-105986671D01*
X161496137Y-113402995D01*
X161406547Y-113365794D01*
X160756306Y-113365226D01*
X160155345Y-113613538D01*
X159695154Y-114072927D01*
X159445794Y-114673453D01*
X159445226Y-115323694D01*
X159693538Y-115924655D01*
X160152927Y-116384846D01*
X160753453Y-116634206D01*
X161403694Y-116634774D01*
X162004655Y-116386462D01*
X162464846Y-115927073D01*
X162714206Y-115326547D01*
X162714774Y-114676306D01*
X162676702Y-114584166D01*
X167605286Y-109655582D01*
X174354599Y-109655582D01*
X174378659Y-110305377D01*
X174581035Y-110793958D01*
X174847837Y-110892557D01*
X175820395Y-109920000D01*
X176179605Y-109920000D01*
X177152163Y-110892557D01*
X177418965Y-110793958D01*
X177645401Y-110184418D01*
X177625820Y-109655582D01*
X177854599Y-109655582D01*
X177878659Y-110305377D01*
X178081035Y-110793958D01*
X178347837Y-110892557D01*
X179320395Y-109920000D01*
X179679605Y-109920000D01*
X180652163Y-110892557D01*
X180918965Y-110793958D01*
X181145401Y-110184418D01*
X181141131Y-110069078D01*
X183452378Y-110069078D01*
X183481917Y-110579428D01*
X183620389Y-110913729D01*
X183850984Y-110969410D01*
X184570395Y-110250000D01*
X184929605Y-110250000D01*
X185649016Y-110969410D01*
X185879611Y-110913729D01*
X186047622Y-110430922D01*
X186018083Y-109920572D01*
X185879611Y-109586271D01*
X185649016Y-109530590D01*
X184929605Y-110250000D01*
X184570395Y-110250000D01*
X183850984Y-109530590D01*
X183620389Y-109586271D01*
X183452378Y-110069078D01*
X181141131Y-110069078D01*
X181121341Y-109534623D01*
X181045276Y-109350984D01*
X184030590Y-109350984D01*
X184750000Y-110070395D01*
X185469410Y-109350984D01*
X185413729Y-109120389D01*
X184930922Y-108952378D01*
X184420572Y-108981917D01*
X184086271Y-109120389D01*
X184030590Y-109350984D01*
X181045276Y-109350984D01*
X180918965Y-109046042D01*
X180652163Y-108947443D01*
X179679605Y-109920000D01*
X179320395Y-109920000D01*
X178347837Y-108947443D01*
X178081035Y-109046042D01*
X177854599Y-109655582D01*
X177625820Y-109655582D01*
X177621341Y-109534623D01*
X177418965Y-109046042D01*
X177152163Y-108947443D01*
X176179605Y-109920000D01*
X175820395Y-109920000D01*
X174847837Y-108947443D01*
X174581035Y-109046042D01*
X174354599Y-109655582D01*
X167605286Y-109655582D01*
X170337894Y-106922975D01*
X170474545Y-106718461D01*
X170518899Y-106652081D01*
X170582460Y-106332540D01*
X170582460Y-105513507D01*
X170672115Y-105476462D01*
X171132306Y-105017073D01*
X171247435Y-104739811D01*
X171360998Y-105014655D01*
X171820387Y-105474846D01*
X172420913Y-105724206D01*
X173071154Y-105724774D01*
X173163323Y-105686691D01*
X174285676Y-106809044D01*
X174285226Y-107323694D01*
X174533538Y-107924655D01*
X174992927Y-108384846D01*
X175199482Y-108470615D01*
X175126042Y-108501035D01*
X175027443Y-108767837D01*
X176000000Y-109740395D01*
X176972557Y-108767837D01*
X178527443Y-108767837D01*
X179500000Y-109740395D01*
X180472557Y-108767837D01*
X180373958Y-108501035D01*
X179764418Y-108274599D01*
X179114623Y-108298659D01*
X178626042Y-108501035D01*
X178527443Y-108767837D01*
X176972557Y-108767837D01*
X176873958Y-108501035D01*
X176712515Y-108441061D01*
X176844655Y-108386462D01*
X177079363Y-108152163D01*
X185107443Y-108152163D01*
X185206042Y-108418965D01*
X185815582Y-108645401D01*
X186465377Y-108621341D01*
X186953958Y-108418965D01*
X187052557Y-108152163D01*
X186080000Y-107179605D01*
X185107443Y-108152163D01*
X177079363Y-108152163D01*
X177304846Y-107927073D01*
X177554206Y-107326547D01*
X177554722Y-106735582D01*
X184434599Y-106735582D01*
X184458659Y-107385377D01*
X184661035Y-107873958D01*
X184927837Y-107972557D01*
X185900395Y-107000000D01*
X186259605Y-107000000D01*
X187232163Y-107972557D01*
X187498965Y-107873958D01*
X187725401Y-107264418D01*
X187701341Y-106614623D01*
X187498965Y-106126042D01*
X187232163Y-106027443D01*
X186259605Y-107000000D01*
X185900395Y-107000000D01*
X184927837Y-106027443D01*
X184661035Y-106126042D01*
X184434599Y-106735582D01*
X177554722Y-106735582D01*
X177554774Y-106676306D01*
X177306462Y-106075345D01*
X177079351Y-105847837D01*
X185107443Y-105847837D01*
X186080000Y-106820395D01*
X187052557Y-105847837D01*
X186953958Y-105581035D01*
X186344418Y-105354599D01*
X185694623Y-105378659D01*
X185206042Y-105581035D01*
X185107443Y-105847837D01*
X177079351Y-105847837D01*
X176847073Y-105615154D01*
X176246547Y-105365794D01*
X175596306Y-105365226D01*
X175318416Y-105480048D01*
X174344477Y-104506109D01*
X174381666Y-104416547D01*
X174382234Y-103766306D01*
X174133922Y-103165345D01*
X173917333Y-102948377D01*
X177965000Y-102948377D01*
X177965000Y-103051623D01*
X178165577Y-104059994D01*
X178736774Y-104914849D01*
X179591629Y-105486046D01*
X180600000Y-105686623D01*
X181608371Y-105486046D01*
X182463226Y-104914849D01*
X183034423Y-104059994D01*
X183235000Y-103051623D01*
X183235000Y-102948377D01*
X183034423Y-101940006D01*
X182463226Y-101085151D01*
X181608371Y-100513954D01*
X180600000Y-100313377D01*
X179591629Y-100513954D01*
X178736774Y-101085151D01*
X178165577Y-101940006D01*
X177965000Y-102948377D01*
X173917333Y-102948377D01*
X173674533Y-102705154D01*
X173074007Y-102455794D01*
X172423766Y-102455226D01*
X171822805Y-102703538D01*
X171362614Y-103162927D01*
X171247485Y-103440189D01*
X171133922Y-103165345D01*
X170674533Y-102705154D01*
X170074007Y-102455794D01*
X169975160Y-102455708D01*
X170595868Y-101835000D01*
X176000000Y-101835000D01*
X176319541Y-101771439D01*
X176590434Y-101590434D01*
X181615562Y-96565306D01*
X186578410Y-96565306D01*
X186604421Y-97165458D01*
X186784047Y-97599116D01*
X187037940Y-97682455D01*
X187920395Y-96800000D01*
X187037940Y-95917545D01*
X186784047Y-96000884D01*
X186578410Y-96565306D01*
X181615562Y-96565306D01*
X183045868Y-95135000D01*
X186811193Y-95135000D01*
X186819138Y-95154229D01*
X186819138Y-95154229D01*
G37*
X186819138Y-95154229D02*
X187243537Y-95579370D01*
X187266469Y-95588892D01*
X187217545Y-95737940D01*
X188100000Y-96620395D01*
X188982455Y-95737940D01*
X188933682Y-95589352D01*
X188954229Y-95580862D01*
X189315000Y-95220721D01*
X189315000Y-95967747D01*
X189162060Y-95917545D01*
X188279605Y-96800000D01*
X189162060Y-97682455D01*
X189315000Y-97632253D01*
X189315000Y-98379794D01*
X188956463Y-98020630D01*
X188933531Y-98011108D01*
X188982455Y-97862060D01*
X188100000Y-96979605D01*
X187217545Y-97862060D01*
X187266318Y-98010648D01*
X187245771Y-98019138D01*
X186820630Y-98443537D01*
X186590262Y-98998325D01*
X186589738Y-99599040D01*
X186819138Y-100154229D01*
X187243537Y-100579370D01*
X187798325Y-100809738D01*
X188399040Y-100810262D01*
X188954229Y-100580862D01*
X189315000Y-100220721D01*
X189315000Y-133315000D01*
X90685000Y-133315000D01*
X90685000Y-131028172D01*
X94332538Y-131028172D01*
X94737709Y-132008761D01*
X95487293Y-132759655D01*
X96467173Y-133166536D01*
X97528172Y-133167462D01*
X98508761Y-132762291D01*
X99259655Y-132012707D01*
X99666536Y-131032827D01*
X99667462Y-129971828D01*
X99610859Y-129834836D01*
X101965900Y-129834836D01*
X101965900Y-130440084D01*
X102052297Y-130874430D01*
X102298334Y-131242650D01*
X102666554Y-131488687D01*
X103100900Y-131575084D01*
X103535246Y-131488687D01*
X103903466Y-131242650D01*
X104149503Y-130874430D01*
X104235900Y-130440084D01*
X104235900Y-129834836D01*
X104149503Y-129400490D01*
X104014070Y-129197800D01*
X104100900Y-129197800D01*
X104420441Y-129134239D01*
X104691334Y-128953234D01*
X104837087Y-128735100D01*
X108530320Y-128735100D01*
X108781359Y-128902839D01*
X108942780Y-128934948D01*
X109194901Y-129187069D01*
X109052297Y-129400490D01*
X108965900Y-129834836D01*
X108965900Y-130440084D01*
X109052297Y-130874430D01*
X109298334Y-131242650D01*
X109666554Y-131488687D01*
X110100900Y-131575084D01*
X110535246Y-131488687D01*
X110903466Y-131242650D01*
X111149503Y-130874430D01*
X111235900Y-130440084D01*
X111235900Y-129834836D01*
X111149503Y-129400490D01*
X110935900Y-129080811D01*
X110935900Y-128912200D01*
X110872339Y-128592659D01*
X110691334Y-128321766D01*
X110273340Y-127903772D01*
X110301091Y-127862239D01*
X110385585Y-127437460D01*
X110301091Y-127012681D01*
X110060474Y-126652571D01*
X109700364Y-126411954D01*
X109275585Y-126327460D01*
X108926215Y-126327460D01*
X108501436Y-126411954D01*
X108141326Y-126652571D01*
X107900709Y-127012681D01*
X107890282Y-127065100D01*
X105311518Y-127065100D01*
X105301091Y-127012681D01*
X105060474Y-126652571D01*
X104700364Y-126411954D01*
X104275585Y-126327460D01*
X103926215Y-126327460D01*
X103501436Y-126411954D01*
X103141326Y-126652571D01*
X102900709Y-127012681D01*
X102816215Y-127437460D01*
X102900709Y-127862239D01*
X102928460Y-127903772D01*
X102510466Y-128321766D01*
X102329461Y-128592659D01*
X102265900Y-128912200D01*
X102265900Y-129080811D01*
X102052297Y-129400490D01*
X101965900Y-129834836D01*
X99610859Y-129834836D01*
X99262291Y-128991239D01*
X98512707Y-128240345D01*
X97532827Y-127833464D01*
X96471828Y-127832538D01*
X95491239Y-128237709D01*
X94740345Y-128987293D01*
X94333464Y-129967173D01*
X94332538Y-131028172D01*
X90685000Y-131028172D01*
X90685000Y-126624372D01*
X90855585Y-126879670D01*
X91341766Y-127204526D01*
X91915255Y-127318600D01*
X92284745Y-127318600D01*
X92858234Y-127204526D01*
X93344415Y-126879670D01*
X93669271Y-126393489D01*
X93783345Y-125820000D01*
X93669271Y-125246511D01*
X93344415Y-124760330D01*
X93029634Y-124550000D01*
X93344415Y-124339670D01*
X93669271Y-123853489D01*
X93783345Y-123280000D01*
X93669271Y-122706511D01*
X93344415Y-122220330D01*
X93029634Y-122010000D01*
X93344415Y-121799670D01*
X93669271Y-121313489D01*
X93783345Y-120740000D01*
X93669271Y-120166511D01*
X93344415Y-119680330D01*
X93029634Y-119470000D01*
X93344415Y-119259670D01*
X93669271Y-118773489D01*
X93783345Y-118200000D01*
X93669271Y-117626511D01*
X93344415Y-117140330D01*
X93029634Y-116930000D01*
X93344415Y-116719670D01*
X93669271Y-116233489D01*
X93783345Y-115660000D01*
X93669271Y-115086511D01*
X93344415Y-114600330D01*
X93029634Y-114390000D01*
X93344415Y-114179670D01*
X93669271Y-113693489D01*
X93783345Y-113120000D01*
X93699979Y-112700889D01*
X97165000Y-109235868D01*
X97165000Y-113088100D01*
X97228561Y-113407641D01*
X97310626Y-113530460D01*
X97409566Y-113678534D01*
X99930169Y-116199137D01*
X99765441Y-116445671D01*
X99657167Y-116990000D01*
X99765441Y-117534329D01*
X100073778Y-117995789D01*
X100469199Y-118260000D01*
X100073778Y-118524211D01*
X99765441Y-118985671D01*
X99657167Y-119530000D01*
X99765441Y-120074329D01*
X100073778Y-120535789D01*
X100469199Y-120800000D01*
X100073778Y-121064211D01*
X99765441Y-121525671D01*
X99657167Y-122070000D01*
X99765441Y-122614329D01*
X100073778Y-123075789D01*
X100535238Y-123384126D01*
X101079567Y-123492400D01*
X101860433Y-123492400D01*
X102404762Y-123384126D01*
X102866222Y-123075789D01*
X103174559Y-122614329D01*
X103282833Y-122070000D01*
X103174559Y-121525671D01*
X102866222Y-121064211D01*
X102470801Y-120800000D01*
X102866222Y-120535789D01*
X103174559Y-120074329D01*
X103282833Y-119530000D01*
X103174559Y-118985671D01*
X102866222Y-118524211D01*
X102470801Y-118260000D01*
X102866222Y-117995789D01*
X103174559Y-117534329D01*
X103261231Y-117098599D01*
X116283166Y-130120534D01*
X116554060Y-130301540D01*
X116873600Y-130365100D01*
X149743344Y-130365100D01*
X149535154Y-130572927D01*
X149285794Y-131173453D01*
X149285226Y-131823694D01*
X149533538Y-132424655D01*
X149992927Y-132884846D01*
X150593453Y-133134206D01*
X151243694Y-133134774D01*
X151844655Y-132886462D01*
X152079363Y-132652163D01*
X160107443Y-132652163D01*
X160206042Y-132918965D01*
X160815582Y-133145401D01*
X161465377Y-133121341D01*
X161953958Y-132918965D01*
X162052557Y-132652163D01*
X161080000Y-131679605D01*
X160107443Y-132652163D01*
X152079363Y-132652163D01*
X152304846Y-132427073D01*
X152554206Y-131826547D01*
X152554774Y-131176306D01*
X152306462Y-130575345D01*
X152096583Y-130365100D01*
X159861616Y-130365100D01*
X159813554Y-130413162D01*
X159927836Y-130527444D01*
X159661035Y-130626042D01*
X159434599Y-131235582D01*
X159458659Y-131885377D01*
X159661035Y-132373958D01*
X159927837Y-132472557D01*
X160900395Y-131500000D01*
X160886252Y-131485858D01*
X161065858Y-131306252D01*
X161080000Y-131320395D01*
X161094142Y-131306252D01*
X161273748Y-131485858D01*
X161259605Y-131500000D01*
X162232163Y-132472557D01*
X162498965Y-132373958D01*
X162725401Y-131764418D01*
X162701341Y-131114623D01*
X162501646Y-130632514D01*
X163459566Y-131590435D01*
X163730460Y-131771440D01*
X164050000Y-131835000D01*
X168350000Y-131835000D01*
X168669541Y-131771439D01*
X168940434Y-131590434D01*
X170333263Y-130197605D01*
X170332538Y-131028172D01*
X170737709Y-132008761D01*
X171487293Y-132759655D01*
X172467173Y-133166536D01*
X173528172Y-133167462D01*
X174508761Y-132762291D01*
X175259655Y-132012707D01*
X175666536Y-131032827D01*
X175667462Y-129971828D01*
X175262291Y-128991239D01*
X174512707Y-128240345D01*
X173532827Y-127833464D01*
X172698133Y-127832736D01*
X174627175Y-125903694D01*
X183115226Y-125903694D01*
X183363538Y-126504655D01*
X183822927Y-126964846D01*
X184423453Y-127214206D01*
X185073694Y-127214774D01*
X185674655Y-126966462D01*
X186134846Y-126507073D01*
X186384206Y-125906547D01*
X186384774Y-125256306D01*
X186136462Y-124655345D01*
X185677073Y-124195154D01*
X185076547Y-123945794D01*
X184426306Y-123945226D01*
X183825345Y-124193538D01*
X183365154Y-124652927D01*
X183115794Y-125253453D01*
X183115226Y-125903694D01*
X174627175Y-125903694D01*
X178186073Y-122344796D01*
X177945794Y-122923453D01*
X177945226Y-123573694D01*
X178193538Y-124174655D01*
X178652927Y-124634846D01*
X179253453Y-124884206D01*
X179903694Y-124884774D01*
X180504655Y-124636462D01*
X180964846Y-124177073D01*
X181214206Y-123576547D01*
X181214774Y-122926306D01*
X180966462Y-122325345D01*
X180507073Y-121865154D01*
X180335000Y-121793703D01*
X180335000Y-121503507D01*
X180424655Y-121466462D01*
X180884846Y-121007073D01*
X181134206Y-120406547D01*
X181134774Y-119756306D01*
X180886462Y-119155345D01*
X180427073Y-118695154D01*
X179826547Y-118445794D01*
X179176306Y-118445226D01*
X178585000Y-118689549D01*
X178585000Y-115850000D01*
X178563855Y-115743694D01*
X183115226Y-115743694D01*
X183363538Y-116344655D01*
X183822927Y-116804846D01*
X184423453Y-117054206D01*
X185073694Y-117054774D01*
X185674655Y-116806462D01*
X186134846Y-116347073D01*
X186384206Y-115746547D01*
X186384774Y-115096306D01*
X186136462Y-114495345D01*
X185677073Y-114035154D01*
X185611032Y-114007731D01*
X185635317Y-114003162D01*
X185851441Y-113864090D01*
X185996431Y-113651890D01*
X186047440Y-113400000D01*
X186047440Y-112100000D01*
X186003162Y-111864683D01*
X185864090Y-111648559D01*
X185651890Y-111503569D01*
X185400000Y-111452560D01*
X185237615Y-111452560D01*
X185413729Y-111379611D01*
X185469410Y-111149016D01*
X184750000Y-110429605D01*
X184030590Y-111149016D01*
X184086271Y-111379611D01*
X184295902Y-111452560D01*
X184100000Y-111452560D01*
X183864683Y-111496838D01*
X183648559Y-111635910D01*
X183503569Y-111848110D01*
X183452560Y-112100000D01*
X183452560Y-113400000D01*
X183496838Y-113635317D01*
X183635910Y-113851441D01*
X183848110Y-113996431D01*
X183893101Y-114005542D01*
X183825345Y-114033538D01*
X183365154Y-114492927D01*
X183115794Y-115093453D01*
X183115226Y-115743694D01*
X178563855Y-115743694D01*
X178521439Y-115530459D01*
X178340434Y-115259566D01*
X174190434Y-111109566D01*
X174134457Y-111072163D01*
X175027443Y-111072163D01*
X175126042Y-111338965D01*
X175735582Y-111565401D01*
X176385377Y-111541341D01*
X176873958Y-111338965D01*
X176972557Y-111072163D01*
X178527443Y-111072163D01*
X178626042Y-111338965D01*
X179235582Y-111565401D01*
X179885377Y-111541341D01*
X180373958Y-111338965D01*
X180472557Y-111072163D01*
X179500000Y-110099605D01*
X178527443Y-111072163D01*
X176972557Y-111072163D01*
X176000000Y-110099605D01*
X175027443Y-111072163D01*
X174134457Y-111072163D01*
X174130570Y-111069566D01*
X173919541Y-110928561D01*
X173600000Y-110865000D01*
X168950000Y-110865000D01*
X168630459Y-110928561D01*
X168419430Y-111069566D01*
X168359566Y-111109566D01*
X166209566Y-113259566D01*
X166028561Y-113530459D01*
X165965000Y-113850000D01*
X165965000Y-116696493D01*
X165875345Y-116733538D01*
X165415154Y-117192927D01*
X165165794Y-117793453D01*
X165165226Y-118443694D01*
X165413538Y-119044655D01*
X165872927Y-119504846D01*
X166473453Y-119754206D01*
X167123694Y-119754774D01*
X167724655Y-119506462D01*
X168184846Y-119047073D01*
X168434206Y-118446547D01*
X168434774Y-117796306D01*
X168186462Y-117195345D01*
X167727073Y-116735154D01*
X167635000Y-116696922D01*
X167635000Y-114195868D01*
X168100530Y-113730338D01*
X168100530Y-115249490D01*
X168144808Y-115484807D01*
X168283880Y-115700931D01*
X168496080Y-115845921D01*
X168747970Y-115896930D01*
X168912500Y-115896930D01*
X168912500Y-121691173D01*
X168495345Y-121863538D01*
X168035154Y-122322927D01*
X167785794Y-122923453D01*
X167785226Y-123573694D01*
X168033538Y-124174655D01*
X168492927Y-124634846D01*
X169093453Y-124884206D01*
X169743694Y-124884774D01*
X170344655Y-124636462D01*
X170804846Y-124177073D01*
X171054206Y-123576547D01*
X171054774Y-122926306D01*
X170806462Y-122325345D01*
X170582500Y-122100992D01*
X170582500Y-115896930D01*
X170746950Y-115896930D01*
X170982267Y-115852652D01*
X171198391Y-115713580D01*
X171246609Y-115643010D01*
X171283880Y-115700931D01*
X171496080Y-115845921D01*
X171747970Y-115896930D01*
X173746950Y-115896930D01*
X173982267Y-115852652D01*
X174198391Y-115713580D01*
X174343381Y-115501380D01*
X174394390Y-115249490D01*
X174394390Y-113675258D01*
X176915000Y-116195868D01*
X176915000Y-118690141D01*
X176326547Y-118445794D01*
X175676306Y-118445226D01*
X175075345Y-118693538D01*
X174615154Y-119152927D01*
X174365794Y-119753453D01*
X174365226Y-120403694D01*
X174613538Y-121004655D01*
X175072927Y-121464846D01*
X175165000Y-121503078D01*
X175165000Y-121754132D01*
X168434312Y-128484820D01*
X168434774Y-127956306D01*
X168186462Y-127355345D01*
X167727073Y-126895154D01*
X167126547Y-126645794D01*
X166476306Y-126645226D01*
X166384166Y-126683298D01*
X163690434Y-123989566D01*
X163419541Y-123808561D01*
X163100000Y-123745000D01*
X162782882Y-123745000D01*
X162662811Y-123565302D01*
X162280725Y-123310000D01*
X162662811Y-123054698D01*
X162973880Y-122589151D01*
X163083113Y-122040000D01*
X162973880Y-121490849D01*
X162662811Y-121025302D01*
X162280725Y-120770000D01*
X162662811Y-120514698D01*
X162973880Y-120049151D01*
X163083113Y-119500000D01*
X162973880Y-118950849D01*
X162662811Y-118485302D01*
X162197264Y-118174233D01*
X161648113Y-118065000D01*
X161591887Y-118065000D01*
X161042736Y-118174233D01*
X160577189Y-118485302D01*
X160266120Y-118950849D01*
X160156887Y-119500000D01*
X160266120Y-120049151D01*
X160577189Y-120514698D01*
X160959275Y-120770000D01*
X160577189Y-121025302D01*
X160457118Y-121205000D01*
X159721900Y-121205000D01*
X159402360Y-121268560D01*
X159131466Y-121449566D01*
X157378472Y-123202560D01*
X156100000Y-123202560D01*
X155864683Y-123246838D01*
X155648559Y-123385910D01*
X155503569Y-123598110D01*
X155452560Y-123850000D01*
X155452560Y-124526947D01*
X155353880Y-124030849D01*
X155042811Y-123565302D01*
X154660725Y-123310000D01*
X155042811Y-123054698D01*
X155353880Y-122589151D01*
X155463113Y-122040000D01*
X155353880Y-121490849D01*
X155042811Y-121025302D01*
X154660725Y-120770000D01*
X155042811Y-120514698D01*
X155353880Y-120049151D01*
X155463113Y-119500000D01*
X155353880Y-118950849D01*
X155042811Y-118485302D01*
X154577264Y-118174233D01*
X154028113Y-118065000D01*
X153971887Y-118065000D01*
X153422736Y-118174233D01*
X152957189Y-118485302D01*
X152940639Y-118510071D01*
X152634243Y-118203675D01*
X152634774Y-117596306D01*
X152386462Y-116995345D01*
X151927073Y-116535154D01*
X151706479Y-116443555D01*
X151844655Y-116386462D01*
X152304846Y-115927073D01*
X152554206Y-115326547D01*
X152554774Y-114676306D01*
X152306462Y-114075345D01*
X151847073Y-113615154D01*
X151755000Y-113576922D01*
X151755000Y-112005868D01*
X151833863Y-111927005D01*
X151923453Y-111964206D01*
X152573694Y-111964774D01*
X153174655Y-111716462D01*
X153634846Y-111257073D01*
X153884206Y-110656547D01*
X153884774Y-110006306D01*
X153636462Y-109405345D01*
X153316675Y-109085000D01*
X164250000Y-109085000D01*
X164569541Y-109021439D01*
X164840434Y-108840434D01*
X168090434Y-105590434D01*
X168160184Y-105486046D01*
X168271439Y-105319541D01*
X168335000Y-105000000D01*
X168335000Y-104951735D01*
X168360998Y-105014655D01*
X168820387Y-105474846D01*
X168912460Y-105513078D01*
X168912460Y-105986671D01*
X161496137Y-113402995D01*
X161406547Y-113365794D01*
X160756306Y-113365226D01*
X160155345Y-113613538D01*
X159695154Y-114072927D01*
X159445794Y-114673453D01*
X159445226Y-115323694D01*
X159693538Y-115924655D01*
X160152927Y-116384846D01*
X160753453Y-116634206D01*
X161403694Y-116634774D01*
X162004655Y-116386462D01*
X162464846Y-115927073D01*
X162714206Y-115326547D01*
X162714774Y-114676306D01*
X162676702Y-114584166D01*
X167605286Y-109655582D01*
X174354599Y-109655582D01*
X174378659Y-110305377D01*
X174581035Y-110793958D01*
X174847837Y-110892557D01*
X175820395Y-109920000D01*
X176179605Y-109920000D01*
X177152163Y-110892557D01*
X177418965Y-110793958D01*
X177645401Y-110184418D01*
X177625820Y-109655582D01*
X177854599Y-109655582D01*
X177878659Y-110305377D01*
X178081035Y-110793958D01*
X178347837Y-110892557D01*
X179320395Y-109920000D01*
X179679605Y-109920000D01*
X180652163Y-110892557D01*
X180918965Y-110793958D01*
X181145401Y-110184418D01*
X181141131Y-110069078D01*
X183452378Y-110069078D01*
X183481917Y-110579428D01*
X183620389Y-110913729D01*
X183850984Y-110969410D01*
X184570395Y-110250000D01*
X184929605Y-110250000D01*
X185649016Y-110969410D01*
X185879611Y-110913729D01*
X186047622Y-110430922D01*
X186018083Y-109920572D01*
X185879611Y-109586271D01*
X185649016Y-109530590D01*
X184929605Y-110250000D01*
X184570395Y-110250000D01*
X183850984Y-109530590D01*
X183620389Y-109586271D01*
X183452378Y-110069078D01*
X181141131Y-110069078D01*
X181121341Y-109534623D01*
X181045276Y-109350984D01*
X184030590Y-109350984D01*
X184750000Y-110070395D01*
X185469410Y-109350984D01*
X185413729Y-109120389D01*
X184930922Y-108952378D01*
X184420572Y-108981917D01*
X184086271Y-109120389D01*
X184030590Y-109350984D01*
X181045276Y-109350984D01*
X180918965Y-109046042D01*
X180652163Y-108947443D01*
X179679605Y-109920000D01*
X179320395Y-109920000D01*
X178347837Y-108947443D01*
X178081035Y-109046042D01*
X177854599Y-109655582D01*
X177625820Y-109655582D01*
X177621341Y-109534623D01*
X177418965Y-109046042D01*
X177152163Y-108947443D01*
X176179605Y-109920000D01*
X175820395Y-109920000D01*
X174847837Y-108947443D01*
X174581035Y-109046042D01*
X174354599Y-109655582D01*
X167605286Y-109655582D01*
X170337894Y-106922975D01*
X170474545Y-106718461D01*
X170518899Y-106652081D01*
X170582460Y-106332540D01*
X170582460Y-105513507D01*
X170672115Y-105476462D01*
X171132306Y-105017073D01*
X171247435Y-104739811D01*
X171360998Y-105014655D01*
X171820387Y-105474846D01*
X172420913Y-105724206D01*
X173071154Y-105724774D01*
X173163323Y-105686691D01*
X174285676Y-106809044D01*
X174285226Y-107323694D01*
X174533538Y-107924655D01*
X174992927Y-108384846D01*
X175199482Y-108470615D01*
X175126042Y-108501035D01*
X175027443Y-108767837D01*
X176000000Y-109740395D01*
X176972557Y-108767837D01*
X178527443Y-108767837D01*
X179500000Y-109740395D01*
X180472557Y-108767837D01*
X180373958Y-108501035D01*
X179764418Y-108274599D01*
X179114623Y-108298659D01*
X178626042Y-108501035D01*
X178527443Y-108767837D01*
X176972557Y-108767837D01*
X176873958Y-108501035D01*
X176712515Y-108441061D01*
X176844655Y-108386462D01*
X177079363Y-108152163D01*
X185107443Y-108152163D01*
X185206042Y-108418965D01*
X185815582Y-108645401D01*
X186465377Y-108621341D01*
X186953958Y-108418965D01*
X187052557Y-108152163D01*
X186080000Y-107179605D01*
X185107443Y-108152163D01*
X177079363Y-108152163D01*
X177304846Y-107927073D01*
X177554206Y-107326547D01*
X177554722Y-106735582D01*
X184434599Y-106735582D01*
X184458659Y-107385377D01*
X184661035Y-107873958D01*
X184927837Y-107972557D01*
X185900395Y-107000000D01*
X186259605Y-107000000D01*
X187232163Y-107972557D01*
X187498965Y-107873958D01*
X187725401Y-107264418D01*
X187701341Y-106614623D01*
X187498965Y-106126042D01*
X187232163Y-106027443D01*
X186259605Y-107000000D01*
X185900395Y-107000000D01*
X184927837Y-106027443D01*
X184661035Y-106126042D01*
X184434599Y-106735582D01*
X177554722Y-106735582D01*
X177554774Y-106676306D01*
X177306462Y-106075345D01*
X177079351Y-105847837D01*
X185107443Y-105847837D01*
X186080000Y-106820395D01*
X187052557Y-105847837D01*
X186953958Y-105581035D01*
X186344418Y-105354599D01*
X185694623Y-105378659D01*
X185206042Y-105581035D01*
X185107443Y-105847837D01*
X177079351Y-105847837D01*
X176847073Y-105615154D01*
X176246547Y-105365794D01*
X175596306Y-105365226D01*
X175318416Y-105480048D01*
X174344477Y-104506109D01*
X174381666Y-104416547D01*
X174382234Y-103766306D01*
X174133922Y-103165345D01*
X173917333Y-102948377D01*
X177965000Y-102948377D01*
X177965000Y-103051623D01*
X178165577Y-104059994D01*
X178736774Y-104914849D01*
X179591629Y-105486046D01*
X180600000Y-105686623D01*
X181608371Y-105486046D01*
X182463226Y-104914849D01*
X183034423Y-104059994D01*
X183235000Y-103051623D01*
X183235000Y-102948377D01*
X183034423Y-101940006D01*
X182463226Y-101085151D01*
X181608371Y-100513954D01*
X180600000Y-100313377D01*
X179591629Y-100513954D01*
X178736774Y-101085151D01*
X178165577Y-101940006D01*
X177965000Y-102948377D01*
X173917333Y-102948377D01*
X173674533Y-102705154D01*
X173074007Y-102455794D01*
X172423766Y-102455226D01*
X171822805Y-102703538D01*
X171362614Y-103162927D01*
X171247485Y-103440189D01*
X171133922Y-103165345D01*
X170674533Y-102705154D01*
X170074007Y-102455794D01*
X169975160Y-102455708D01*
X170595868Y-101835000D01*
X176000000Y-101835000D01*
X176319541Y-101771439D01*
X176590434Y-101590434D01*
X181615562Y-96565306D01*
X186578410Y-96565306D01*
X186604421Y-97165458D01*
X186784047Y-97599116D01*
X187037940Y-97682455D01*
X187920395Y-96800000D01*
X187037940Y-95917545D01*
X186784047Y-96000884D01*
X186578410Y-96565306D01*
X181615562Y-96565306D01*
X183045868Y-95135000D01*
X186811193Y-95135000D01*
X186819138Y-95154229D01*
G36*
X116209566Y-125840434D02*
X116480460Y-126021440D01*
X116800000Y-126085000D01*
X143670000Y-126085000D01*
X143989541Y-126021439D01*
X144260434Y-125840434D01*
X150583863Y-119517005D01*
X150673453Y-119554206D01*
X151323694Y-119554774D01*
X151535917Y-119467085D01*
X152159266Y-120090434D01*
X152430159Y-120271439D01*
X152749700Y-120335000D01*
X152837118Y-120335000D01*
X152957189Y-120514698D01*
X153339275Y-120770000D01*
X152957189Y-121025302D01*
X152646120Y-121490849D01*
X152536887Y-122040000D01*
X152646120Y-122589151D01*
X152957189Y-123054698D01*
X153339275Y-123310000D01*
X152957189Y-123565302D01*
X152646120Y-124030849D01*
X152536887Y-124580000D01*
X152646120Y-125129151D01*
X152957189Y-125594698D01*
X153361703Y-125864986D01*
X153144866Y-125967611D01*
X152768959Y-126382577D01*
X152608096Y-126770961D01*
X152730085Y-126993000D01*
X153873000Y-126993000D01*
X153873000Y-126973000D01*
X154127000Y-126973000D01*
X154127000Y-126993000D01*
X155269915Y-126993000D01*
X155365468Y-126819078D01*
X155452378Y-126819078D01*
X155481917Y-127329428D01*
X155620389Y-127663729D01*
X155850984Y-127719410D01*
X156570395Y-127000000D01*
X155850984Y-126280590D01*
X155620389Y-126336271D01*
X155452378Y-126819078D01*
X155365468Y-126819078D01*
X155391904Y-126770961D01*
X155231041Y-126382577D01*
X154855134Y-125967611D01*
X154638297Y-125864986D01*
X155042811Y-125594698D01*
X155353880Y-125129151D01*
X155452560Y-124633053D01*
X155452560Y-125150000D01*
X155496838Y-125385317D01*
X155635910Y-125601441D01*
X155848110Y-125746431D01*
X156100000Y-125797440D01*
X156262385Y-125797440D01*
X156086271Y-125870389D01*
X156030590Y-126100984D01*
X156750000Y-126820395D01*
X156764143Y-126806253D01*
X156943748Y-126985858D01*
X156929605Y-127000000D01*
X156943748Y-127014143D01*
X156764142Y-127193748D01*
X156750000Y-127179605D01*
X156030590Y-127899016D01*
X156070740Y-128065292D01*
X155440932Y-128695100D01*
X152514388Y-128695100D01*
X152634206Y-128406547D01*
X152634774Y-127756306D01*
X152516078Y-127469039D01*
X152608096Y-127469039D01*
X152768959Y-127857423D01*
X153144866Y-128272389D01*
X153650959Y-128511914D01*
X153873000Y-128390629D01*
X153873000Y-127247000D01*
X154127000Y-127247000D01*
X154127000Y-128390629D01*
X154349041Y-128511914D01*
X154855134Y-128272389D01*
X155231041Y-127857423D01*
X155391904Y-127469039D01*
X155269915Y-127247000D01*
X154127000Y-127247000D01*
X153873000Y-127247000D01*
X152730085Y-127247000D01*
X152608096Y-127469039D01*
X152516078Y-127469039D01*
X152386462Y-127155345D01*
X151927073Y-126695154D01*
X151326547Y-126445794D01*
X150676306Y-126445226D01*
X150075345Y-126693538D01*
X149615154Y-127152927D01*
X149365794Y-127753453D01*
X149365226Y-128403694D01*
X149485632Y-128695100D01*
X122505625Y-128695100D01*
X122663729Y-128629611D01*
X122719410Y-128399016D01*
X122000000Y-127679605D01*
X121280590Y-128399016D01*
X121336271Y-128629611D01*
X121524464Y-128695100D01*
X120475548Y-128695100D01*
X120601441Y-128614090D01*
X120746431Y-128401890D01*
X120797440Y-128150000D01*
X120797440Y-127987615D01*
X120870389Y-128163729D01*
X121100984Y-128219410D01*
X121820395Y-127500000D01*
X122179605Y-127500000D01*
X122899016Y-128219410D01*
X123129611Y-128163729D01*
X123297622Y-127680922D01*
X123268083Y-127170572D01*
X123129611Y-126836271D01*
X122899016Y-126780590D01*
X122179605Y-127500000D01*
X121820395Y-127500000D01*
X121100984Y-126780590D01*
X120870389Y-126836271D01*
X120797440Y-127045902D01*
X120797440Y-126850000D01*
X120753162Y-126614683D01*
X120744347Y-126600984D01*
X121280590Y-126600984D01*
X122000000Y-127320395D01*
X122719410Y-126600984D01*
X122663729Y-126370389D01*
X122180922Y-126202378D01*
X121670572Y-126231917D01*
X121336271Y-126370389D01*
X121280590Y-126600984D01*
X120744347Y-126600984D01*
X120614090Y-126398559D01*
X120401890Y-126253569D01*
X120150000Y-126202560D01*
X118850000Y-126202560D01*
X118614683Y-126246838D01*
X118398559Y-126385910D01*
X118253569Y-126598110D01*
X118202560Y-126850000D01*
X118202560Y-128150000D01*
X118246838Y-128385317D01*
X118385910Y-128601441D01*
X118522985Y-128695100D01*
X117219468Y-128695100D01*
X103653934Y-115129566D01*
X103592175Y-115088300D01*
X103383041Y-114948561D01*
X103191251Y-114910411D01*
X103282833Y-114450000D01*
X103196306Y-114015000D01*
X104384132Y-114015000D01*
X116209566Y-125840434D01*
X116209566Y-125840434D01*
G37*
X116209566Y-125840434D02*
X116480460Y-126021440D01*
X116800000Y-126085000D01*
X143670000Y-126085000D01*
X143989541Y-126021439D01*
X144260434Y-125840434D01*
X150583863Y-119517005D01*
X150673453Y-119554206D01*
X151323694Y-119554774D01*
X151535917Y-119467085D01*
X152159266Y-120090434D01*
X152430159Y-120271439D01*
X152749700Y-120335000D01*
X152837118Y-120335000D01*
X152957189Y-120514698D01*
X153339275Y-120770000D01*
X152957189Y-121025302D01*
X152646120Y-121490849D01*
X152536887Y-122040000D01*
X152646120Y-122589151D01*
X152957189Y-123054698D01*
X153339275Y-123310000D01*
X152957189Y-123565302D01*
X152646120Y-124030849D01*
X152536887Y-124580000D01*
X152646120Y-125129151D01*
X152957189Y-125594698D01*
X153361703Y-125864986D01*
X153144866Y-125967611D01*
X152768959Y-126382577D01*
X152608096Y-126770961D01*
X152730085Y-126993000D01*
X153873000Y-126993000D01*
X153873000Y-126973000D01*
X154127000Y-126973000D01*
X154127000Y-126993000D01*
X155269915Y-126993000D01*
X155365468Y-126819078D01*
X155452378Y-126819078D01*
X155481917Y-127329428D01*
X155620389Y-127663729D01*
X155850984Y-127719410D01*
X156570395Y-127000000D01*
X155850984Y-126280590D01*
X155620389Y-126336271D01*
X155452378Y-126819078D01*
X155365468Y-126819078D01*
X155391904Y-126770961D01*
X155231041Y-126382577D01*
X154855134Y-125967611D01*
X154638297Y-125864986D01*
X155042811Y-125594698D01*
X155353880Y-125129151D01*
X155452560Y-124633053D01*
X155452560Y-125150000D01*
X155496838Y-125385317D01*
X155635910Y-125601441D01*
X155848110Y-125746431D01*
X156100000Y-125797440D01*
X156262385Y-125797440D01*
X156086271Y-125870389D01*
X156030590Y-126100984D01*
X156750000Y-126820395D01*
X156764143Y-126806253D01*
X156943748Y-126985858D01*
X156929605Y-127000000D01*
X156943748Y-127014143D01*
X156764142Y-127193748D01*
X156750000Y-127179605D01*
X156030590Y-127899016D01*
X156070740Y-128065292D01*
X155440932Y-128695100D01*
X152514388Y-128695100D01*
X152634206Y-128406547D01*
X152634774Y-127756306D01*
X152516078Y-127469039D01*
X152608096Y-127469039D01*
X152768959Y-127857423D01*
X153144866Y-128272389D01*
X153650959Y-128511914D01*
X153873000Y-128390629D01*
X153873000Y-127247000D01*
X154127000Y-127247000D01*
X154127000Y-128390629D01*
X154349041Y-128511914D01*
X154855134Y-128272389D01*
X155231041Y-127857423D01*
X155391904Y-127469039D01*
X155269915Y-127247000D01*
X154127000Y-127247000D01*
X153873000Y-127247000D01*
X152730085Y-127247000D01*
X152608096Y-127469039D01*
X152516078Y-127469039D01*
X152386462Y-127155345D01*
X151927073Y-126695154D01*
X151326547Y-126445794D01*
X150676306Y-126445226D01*
X150075345Y-126693538D01*
X149615154Y-127152927D01*
X149365794Y-127753453D01*
X149365226Y-128403694D01*
X149485632Y-128695100D01*
X122505625Y-128695100D01*
X122663729Y-128629611D01*
X122719410Y-128399016D01*
X122000000Y-127679605D01*
X121280590Y-128399016D01*
X121336271Y-128629611D01*
X121524464Y-128695100D01*
X120475548Y-128695100D01*
X120601441Y-128614090D01*
X120746431Y-128401890D01*
X120797440Y-128150000D01*
X120797440Y-127987615D01*
X120870389Y-128163729D01*
X121100984Y-128219410D01*
X121820395Y-127500000D01*
X122179605Y-127500000D01*
X122899016Y-128219410D01*
X123129611Y-128163729D01*
X123297622Y-127680922D01*
X123268083Y-127170572D01*
X123129611Y-126836271D01*
X122899016Y-126780590D01*
X122179605Y-127500000D01*
X121820395Y-127500000D01*
X121100984Y-126780590D01*
X120870389Y-126836271D01*
X120797440Y-127045902D01*
X120797440Y-126850000D01*
X120753162Y-126614683D01*
X120744347Y-126600984D01*
X121280590Y-126600984D01*
X122000000Y-127320395D01*
X122719410Y-126600984D01*
X122663729Y-126370389D01*
X122180922Y-126202378D01*
X121670572Y-126231917D01*
X121336271Y-126370389D01*
X121280590Y-126600984D01*
X120744347Y-126600984D01*
X120614090Y-126398559D01*
X120401890Y-126253569D01*
X120150000Y-126202560D01*
X118850000Y-126202560D01*
X118614683Y-126246838D01*
X118398559Y-126385910D01*
X118253569Y-126598110D01*
X118202560Y-126850000D01*
X118202560Y-128150000D01*
X118246838Y-128385317D01*
X118385910Y-128601441D01*
X118522985Y-128695100D01*
X117219468Y-128695100D01*
X103653934Y-115129566D01*
X103592175Y-115088300D01*
X103383041Y-114948561D01*
X103191251Y-114910411D01*
X103282833Y-114450000D01*
X103196306Y-114015000D01*
X104384132Y-114015000D01*
X116209566Y-125840434D01*
G36*
X159443748Y-126985858D02*
X159429605Y-127000000D01*
X160149016Y-127719410D01*
X160278768Y-127688079D01*
X160577189Y-128134698D01*
X161042736Y-128445767D01*
X161591887Y-128555000D01*
X161648113Y-128555000D01*
X161669815Y-128550683D01*
X161814232Y-128695100D01*
X157802668Y-128695100D01*
X158440834Y-128056934D01*
X158505296Y-127960460D01*
X158534774Y-127916343D01*
X158586271Y-128129611D01*
X159069078Y-128297622D01*
X159579428Y-128268083D01*
X159913729Y-128129611D01*
X159969410Y-127899016D01*
X159250000Y-127179605D01*
X159235858Y-127193748D01*
X159056252Y-127014142D01*
X159070395Y-127000000D01*
X159056252Y-126985858D01*
X159235858Y-126806252D01*
X159250000Y-126820395D01*
X159264142Y-126806252D01*
X159443748Y-126985858D01*
X159443748Y-126985858D01*
G37*
X159443748Y-126985858D02*
X159429605Y-127000000D01*
X160149016Y-127719410D01*
X160278768Y-127688079D01*
X160577189Y-128134698D01*
X161042736Y-128445767D01*
X161591887Y-128555000D01*
X161648113Y-128555000D01*
X161669815Y-128550683D01*
X161814232Y-128695100D01*
X157802668Y-128695100D01*
X158440834Y-128056934D01*
X158505296Y-127960460D01*
X158534774Y-127916343D01*
X158586271Y-128129611D01*
X159069078Y-128297622D01*
X159579428Y-128268083D01*
X159913729Y-128129611D01*
X159969410Y-127899016D01*
X159250000Y-127179605D01*
X159235858Y-127193748D01*
X159056252Y-127014142D01*
X159070395Y-127000000D01*
X159056252Y-126985858D01*
X159235858Y-126806252D01*
X159250000Y-126820395D01*
X159264142Y-126806252D01*
X159443748Y-126985858D01*
G36*
X124853628Y-93254496D02*
X124772968Y-93660000D01*
X124886768Y-94232112D01*
X125210843Y-94717125D01*
X125529433Y-94930000D01*
X125210843Y-95142875D01*
X124886768Y-95627888D01*
X124772968Y-96200000D01*
X124853628Y-96605504D01*
X123084132Y-98375000D01*
X118220339Y-98375000D01*
X118106222Y-98204211D01*
X117710801Y-97940000D01*
X118106222Y-97675789D01*
X118414559Y-97214329D01*
X118522833Y-96670000D01*
X118414559Y-96125671D01*
X118106222Y-95664211D01*
X117710801Y-95400000D01*
X118106222Y-95135789D01*
X118414559Y-94674329D01*
X118522833Y-94130000D01*
X118414559Y-93585671D01*
X118106222Y-93124211D01*
X117644762Y-92815874D01*
X117100433Y-92707600D01*
X116319567Y-92707600D01*
X115775238Y-92815874D01*
X115313778Y-93124211D01*
X115005441Y-93585671D01*
X114897167Y-94130000D01*
X115005441Y-94674329D01*
X115313778Y-95135789D01*
X115709199Y-95400000D01*
X115313778Y-95664211D01*
X115005441Y-96125671D01*
X114897167Y-96670000D01*
X115005441Y-97214329D01*
X115313778Y-97675789D01*
X115709199Y-97940000D01*
X115313778Y-98204211D01*
X115005441Y-98665671D01*
X114897167Y-99210000D01*
X115005441Y-99754329D01*
X115313778Y-100215789D01*
X115709199Y-100480000D01*
X115313778Y-100744211D01*
X115005441Y-101205671D01*
X114897167Y-101750000D01*
X115005441Y-102294329D01*
X115143092Y-102500339D01*
X114460466Y-103182966D01*
X114279461Y-103453859D01*
X114215900Y-103773400D01*
X114215900Y-111850900D01*
X114279461Y-112170441D01*
X114332911Y-112250434D01*
X114460466Y-112441334D01*
X114519566Y-112500434D01*
X114790459Y-112681439D01*
X115110000Y-112745000D01*
X115199661Y-112745000D01*
X115313778Y-112915789D01*
X115708830Y-113179754D01*
X115692738Y-113184475D01*
X115258809Y-113534014D01*
X114991673Y-114023004D01*
X114974990Y-114102940D01*
X115097148Y-114323000D01*
X116583000Y-114323000D01*
X116583000Y-114303000D01*
X116837000Y-114303000D01*
X116837000Y-114323000D01*
X118322852Y-114323000D01*
X118434999Y-114120974D01*
X118992642Y-114120974D01*
X119113783Y-114353000D01*
X120473000Y-114353000D01*
X120473000Y-113139076D01*
X120727000Y-113139076D01*
X120727000Y-114353000D01*
X122086217Y-114353000D01*
X122207358Y-114120974D01*
X122204709Y-114105209D01*
X121950732Y-113577964D01*
X121514320Y-113188046D01*
X120961913Y-112994816D01*
X120727000Y-113139076D01*
X120473000Y-113139076D01*
X120238087Y-112994816D01*
X119685680Y-113188046D01*
X119249268Y-113577964D01*
X118995291Y-114105209D01*
X118992642Y-114120974D01*
X118434999Y-114120974D01*
X118445010Y-114102940D01*
X118428327Y-114023004D01*
X118161191Y-113534014D01*
X117727262Y-113184475D01*
X117711170Y-113179754D01*
X118106222Y-112915789D01*
X118414559Y-112454329D01*
X118522833Y-111910000D01*
X118414559Y-111365671D01*
X118106222Y-110904211D01*
X117710801Y-110640000D01*
X118106222Y-110375789D01*
X118414559Y-109914329D01*
X118522833Y-109370000D01*
X118414559Y-108825671D01*
X118106222Y-108364211D01*
X117710801Y-108100000D01*
X118106222Y-107835789D01*
X118220339Y-107665000D01*
X118670000Y-107665000D01*
X118989541Y-107601439D01*
X119260434Y-107420434D01*
X119962407Y-106718461D01*
X124848611Y-106718461D01*
X124848806Y-106721770D01*
X125097715Y-107249580D01*
X125529661Y-107641959D01*
X126078884Y-107839172D01*
X126313000Y-107696801D01*
X126313000Y-106487000D01*
X126567000Y-106487000D01*
X126567000Y-107696801D01*
X126801116Y-107839172D01*
X127350339Y-107641959D01*
X127782285Y-107249580D01*
X128031194Y-106721770D01*
X128031389Y-106718461D01*
X127910201Y-106487000D01*
X126567000Y-106487000D01*
X126313000Y-106487000D01*
X124969799Y-106487000D01*
X124848611Y-106718461D01*
X119962407Y-106718461D01*
X120845868Y-105835000D01*
X124925783Y-105835000D01*
X124848806Y-105998230D01*
X124848611Y-106001539D01*
X124969799Y-106233000D01*
X126313000Y-106233000D01*
X126313000Y-106213000D01*
X126567000Y-106213000D01*
X126567000Y-106233000D01*
X127910201Y-106233000D01*
X128031389Y-106001539D01*
X128031194Y-105998230D01*
X127954217Y-105835000D01*
X145197397Y-105835000D01*
X145092968Y-106360000D01*
X145206768Y-106932112D01*
X145530843Y-107417125D01*
X145849433Y-107630000D01*
X145530843Y-107842875D01*
X145206768Y-108327888D01*
X145092968Y-108900000D01*
X145206768Y-109472112D01*
X145530843Y-109957125D01*
X145849433Y-110170000D01*
X145530843Y-110382875D01*
X145206768Y-110867888D01*
X145092968Y-111440000D01*
X145206768Y-112012112D01*
X145530843Y-112497125D01*
X145849433Y-112710000D01*
X145530843Y-112922875D01*
X145206768Y-113407888D01*
X145092968Y-113980000D01*
X145206768Y-114552112D01*
X145530843Y-115037125D01*
X145849433Y-115250000D01*
X145530843Y-115462875D01*
X145206768Y-115947888D01*
X145092968Y-116520000D01*
X145206768Y-117092112D01*
X145530843Y-117577125D01*
X146015856Y-117901200D01*
X146587968Y-118015000D01*
X146724132Y-118015000D01*
X144874132Y-119865000D01*
X139364240Y-119865000D01*
X139025887Y-119526056D01*
X138516816Y-119314671D01*
X137965602Y-119314190D01*
X137456163Y-119524686D01*
X137066056Y-119914113D01*
X136970025Y-120145381D01*
X136875314Y-119916163D01*
X136485887Y-119526056D01*
X136376182Y-119480502D01*
X136482954Y-119320705D01*
X136537000Y-119049000D01*
X136482954Y-118777295D01*
X136329046Y-118546954D01*
X136098705Y-118393046D01*
X135995486Y-118372514D01*
X135974954Y-118269295D01*
X135821046Y-118038954D01*
X135590705Y-117885046D01*
X135319000Y-117831000D01*
X135047295Y-117885046D01*
X134816954Y-118038954D01*
X134663046Y-118269295D01*
X134642514Y-118372514D01*
X134568170Y-118387302D01*
X129570434Y-113389566D01*
X129534857Y-113365794D01*
X129299541Y-113208561D01*
X128980000Y-113145000D01*
X127817576Y-113145000D01*
X127669157Y-112922875D01*
X127350567Y-112710000D01*
X127669157Y-112497125D01*
X127993232Y-112012112D01*
X128107032Y-111440000D01*
X127993232Y-110867888D01*
X127669157Y-110382875D01*
X127184144Y-110058800D01*
X126612032Y-109945000D01*
X126267968Y-109945000D01*
X125695856Y-110058800D01*
X125210843Y-110382875D01*
X124886768Y-110867888D01*
X124772968Y-111440000D01*
X124886768Y-112012112D01*
X125210843Y-112497125D01*
X125529433Y-112710000D01*
X125210843Y-112922875D01*
X124886768Y-113407888D01*
X124772968Y-113980000D01*
X124886768Y-114552112D01*
X125210843Y-115037125D01*
X125529433Y-115250000D01*
X125210843Y-115462875D01*
X124886768Y-115947888D01*
X124772968Y-116520000D01*
X124886768Y-117092112D01*
X125210843Y-117577125D01*
X125695856Y-117901200D01*
X126267968Y-118015000D01*
X126612032Y-118015000D01*
X127184144Y-117901200D01*
X127669157Y-117577125D01*
X127993232Y-117092112D01*
X128107032Y-116520000D01*
X127993232Y-115947888D01*
X127669157Y-115462875D01*
X127350567Y-115250000D01*
X127669157Y-115037125D01*
X127817576Y-114815000D01*
X128634132Y-114815000D01*
X134314608Y-120495476D01*
X134314190Y-120974398D01*
X134524686Y-121483837D01*
X134914113Y-121873944D01*
X135423184Y-122085329D01*
X135974398Y-122085810D01*
X136483837Y-121875314D01*
X136873944Y-121485887D01*
X136969975Y-121254619D01*
X137064686Y-121483837D01*
X137454113Y-121873944D01*
X137963184Y-122085329D01*
X138514398Y-122085810D01*
X139023837Y-121875314D01*
X139364745Y-121535000D01*
X145220000Y-121535000D01*
X145539541Y-121471439D01*
X145810434Y-121290434D01*
X149365670Y-117735198D01*
X149365226Y-118243694D01*
X149403298Y-118335834D01*
X143324132Y-124415000D01*
X117145868Y-124415000D01*
X116235708Y-123504840D01*
X117853000Y-123504840D01*
X118088317Y-123460562D01*
X118304441Y-123321490D01*
X118449431Y-123109290D01*
X118484726Y-122935000D01*
X118936560Y-122935000D01*
X118936560Y-122963600D01*
X118980838Y-123198917D01*
X119119910Y-123415041D01*
X119332110Y-123560031D01*
X119584000Y-123611040D01*
X121616000Y-123611040D01*
X121851317Y-123566762D01*
X122067441Y-123427690D01*
X122212431Y-123215490D01*
X122263440Y-122963600D01*
X122263440Y-121236400D01*
X122219162Y-121001083D01*
X122080090Y-120784959D01*
X121867890Y-120639969D01*
X121826561Y-120631600D01*
X121844415Y-120619670D01*
X122169271Y-120133489D01*
X122283345Y-119560000D01*
X122169271Y-118986511D01*
X121844415Y-118500330D01*
X121529634Y-118290000D01*
X121844415Y-118079670D01*
X122169271Y-117593489D01*
X122283345Y-117020000D01*
X122169271Y-116446511D01*
X121844415Y-115960330D01*
X121534931Y-115753539D01*
X121950732Y-115382036D01*
X122204709Y-114854791D01*
X122207358Y-114839026D01*
X122086217Y-114607000D01*
X120727000Y-114607000D01*
X120727000Y-114627000D01*
X120473000Y-114627000D01*
X120473000Y-114607000D01*
X119113783Y-114607000D01*
X118992642Y-114839026D01*
X118995291Y-114854791D01*
X119249268Y-115382036D01*
X119665069Y-115753539D01*
X119355585Y-115960330D01*
X119205465Y-116185000D01*
X118454119Y-116185000D01*
X118303300Y-116155000D01*
X118220339Y-116155000D01*
X118106222Y-115984211D01*
X117711170Y-115720246D01*
X117727262Y-115715525D01*
X118161191Y-115365986D01*
X118428327Y-114876996D01*
X118445010Y-114797060D01*
X118322852Y-114577000D01*
X116837000Y-114577000D01*
X116837000Y-114597000D01*
X116583000Y-114597000D01*
X116583000Y-114577000D01*
X115097148Y-114577000D01*
X114974990Y-114797060D01*
X114991673Y-114876996D01*
X115258809Y-115365986D01*
X115692738Y-115715525D01*
X115708830Y-115720246D01*
X115313778Y-115984211D01*
X115005441Y-116445671D01*
X114897167Y-116990000D01*
X115005441Y-117534329D01*
X115313778Y-117995789D01*
X115709199Y-118260000D01*
X115313778Y-118524211D01*
X115005441Y-118985671D01*
X114897167Y-119530000D01*
X115005441Y-120074329D01*
X115313778Y-120535789D01*
X115485460Y-120650503D01*
X115331683Y-120679438D01*
X115115559Y-120818510D01*
X114970569Y-121030710D01*
X114919560Y-121282600D01*
X114919560Y-122188692D01*
X105320434Y-112589566D01*
X105049541Y-112408561D01*
X104730000Y-112345000D01*
X103196306Y-112345000D01*
X103236143Y-112144725D01*
X103688034Y-111692834D01*
X103735765Y-111621400D01*
X103869039Y-111421941D01*
X103932600Y-111102400D01*
X103932600Y-98696000D01*
X103869039Y-98376459D01*
X103688034Y-98105566D01*
X103023249Y-97440781D01*
X103174559Y-97214329D01*
X103282833Y-96670000D01*
X103174559Y-96125671D01*
X102866222Y-95664211D01*
X102470801Y-95400000D01*
X102866222Y-95135789D01*
X103174559Y-94674329D01*
X103282833Y-94130000D01*
X103174559Y-93585671D01*
X102866222Y-93124211D01*
X102404762Y-92815874D01*
X101860433Y-92707600D01*
X101079567Y-92707600D01*
X100535238Y-92815874D01*
X100073778Y-93124211D01*
X99959661Y-93295000D01*
X95850000Y-93295000D01*
X95530459Y-93358561D01*
X95276036Y-93528561D01*
X95259566Y-93539566D01*
X93586310Y-95212822D01*
X93707358Y-94980974D01*
X93704709Y-94965209D01*
X93450732Y-94437964D01*
X93275155Y-94281093D01*
X93351317Y-94266762D01*
X93567441Y-94127690D01*
X93712431Y-93915490D01*
X93763440Y-93663600D01*
X93763440Y-92567428D01*
X94145868Y-92185000D01*
X123784132Y-92185000D01*
X124853628Y-93254496D01*
X124853628Y-93254496D01*
G37*
X124853628Y-93254496D02*
X124772968Y-93660000D01*
X124886768Y-94232112D01*
X125210843Y-94717125D01*
X125529433Y-94930000D01*
X125210843Y-95142875D01*
X124886768Y-95627888D01*
X124772968Y-96200000D01*
X124853628Y-96605504D01*
X123084132Y-98375000D01*
X118220339Y-98375000D01*
X118106222Y-98204211D01*
X117710801Y-97940000D01*
X118106222Y-97675789D01*
X118414559Y-97214329D01*
X118522833Y-96670000D01*
X118414559Y-96125671D01*
X118106222Y-95664211D01*
X117710801Y-95400000D01*
X118106222Y-95135789D01*
X118414559Y-94674329D01*
X118522833Y-94130000D01*
X118414559Y-93585671D01*
X118106222Y-93124211D01*
X117644762Y-92815874D01*
X117100433Y-92707600D01*
X116319567Y-92707600D01*
X115775238Y-92815874D01*
X115313778Y-93124211D01*
X115005441Y-93585671D01*
X114897167Y-94130000D01*
X115005441Y-94674329D01*
X115313778Y-95135789D01*
X115709199Y-95400000D01*
X115313778Y-95664211D01*
X115005441Y-96125671D01*
X114897167Y-96670000D01*
X115005441Y-97214329D01*
X115313778Y-97675789D01*
X115709199Y-97940000D01*
X115313778Y-98204211D01*
X115005441Y-98665671D01*
X114897167Y-99210000D01*
X115005441Y-99754329D01*
X115313778Y-100215789D01*
X115709199Y-100480000D01*
X115313778Y-100744211D01*
X115005441Y-101205671D01*
X114897167Y-101750000D01*
X115005441Y-102294329D01*
X115143092Y-102500339D01*
X114460466Y-103182966D01*
X114279461Y-103453859D01*
X114215900Y-103773400D01*
X114215900Y-111850900D01*
X114279461Y-112170441D01*
X114332911Y-112250434D01*
X114460466Y-112441334D01*
X114519566Y-112500434D01*
X114790459Y-112681439D01*
X115110000Y-112745000D01*
X115199661Y-112745000D01*
X115313778Y-112915789D01*
X115708830Y-113179754D01*
X115692738Y-113184475D01*
X115258809Y-113534014D01*
X114991673Y-114023004D01*
X114974990Y-114102940D01*
X115097148Y-114323000D01*
X116583000Y-114323000D01*
X116583000Y-114303000D01*
X116837000Y-114303000D01*
X116837000Y-114323000D01*
X118322852Y-114323000D01*
X118434999Y-114120974D01*
X118992642Y-114120974D01*
X119113783Y-114353000D01*
X120473000Y-114353000D01*
X120473000Y-113139076D01*
X120727000Y-113139076D01*
X120727000Y-114353000D01*
X122086217Y-114353000D01*
X122207358Y-114120974D01*
X122204709Y-114105209D01*
X121950732Y-113577964D01*
X121514320Y-113188046D01*
X120961913Y-112994816D01*
X120727000Y-113139076D01*
X120473000Y-113139076D01*
X120238087Y-112994816D01*
X119685680Y-113188046D01*
X119249268Y-113577964D01*
X118995291Y-114105209D01*
X118992642Y-114120974D01*
X118434999Y-114120974D01*
X118445010Y-114102940D01*
X118428327Y-114023004D01*
X118161191Y-113534014D01*
X117727262Y-113184475D01*
X117711170Y-113179754D01*
X118106222Y-112915789D01*
X118414559Y-112454329D01*
X118522833Y-111910000D01*
X118414559Y-111365671D01*
X118106222Y-110904211D01*
X117710801Y-110640000D01*
X118106222Y-110375789D01*
X118414559Y-109914329D01*
X118522833Y-109370000D01*
X118414559Y-108825671D01*
X118106222Y-108364211D01*
X117710801Y-108100000D01*
X118106222Y-107835789D01*
X118220339Y-107665000D01*
X118670000Y-107665000D01*
X118989541Y-107601439D01*
X119260434Y-107420434D01*
X119962407Y-106718461D01*
X124848611Y-106718461D01*
X124848806Y-106721770D01*
X125097715Y-107249580D01*
X125529661Y-107641959D01*
X126078884Y-107839172D01*
X126313000Y-107696801D01*
X126313000Y-106487000D01*
X126567000Y-106487000D01*
X126567000Y-107696801D01*
X126801116Y-107839172D01*
X127350339Y-107641959D01*
X127782285Y-107249580D01*
X128031194Y-106721770D01*
X128031389Y-106718461D01*
X127910201Y-106487000D01*
X126567000Y-106487000D01*
X126313000Y-106487000D01*
X124969799Y-106487000D01*
X124848611Y-106718461D01*
X119962407Y-106718461D01*
X120845868Y-105835000D01*
X124925783Y-105835000D01*
X124848806Y-105998230D01*
X124848611Y-106001539D01*
X124969799Y-106233000D01*
X126313000Y-106233000D01*
X126313000Y-106213000D01*
X126567000Y-106213000D01*
X126567000Y-106233000D01*
X127910201Y-106233000D01*
X128031389Y-106001539D01*
X128031194Y-105998230D01*
X127954217Y-105835000D01*
X145197397Y-105835000D01*
X145092968Y-106360000D01*
X145206768Y-106932112D01*
X145530843Y-107417125D01*
X145849433Y-107630000D01*
X145530843Y-107842875D01*
X145206768Y-108327888D01*
X145092968Y-108900000D01*
X145206768Y-109472112D01*
X145530843Y-109957125D01*
X145849433Y-110170000D01*
X145530843Y-110382875D01*
X145206768Y-110867888D01*
X145092968Y-111440000D01*
X145206768Y-112012112D01*
X145530843Y-112497125D01*
X145849433Y-112710000D01*
X145530843Y-112922875D01*
X145206768Y-113407888D01*
X145092968Y-113980000D01*
X145206768Y-114552112D01*
X145530843Y-115037125D01*
X145849433Y-115250000D01*
X145530843Y-115462875D01*
X145206768Y-115947888D01*
X145092968Y-116520000D01*
X145206768Y-117092112D01*
X145530843Y-117577125D01*
X146015856Y-117901200D01*
X146587968Y-118015000D01*
X146724132Y-118015000D01*
X144874132Y-119865000D01*
X139364240Y-119865000D01*
X139025887Y-119526056D01*
X138516816Y-119314671D01*
X137965602Y-119314190D01*
X137456163Y-119524686D01*
X137066056Y-119914113D01*
X136970025Y-120145381D01*
X136875314Y-119916163D01*
X136485887Y-119526056D01*
X136376182Y-119480502D01*
X136482954Y-119320705D01*
X136537000Y-119049000D01*
X136482954Y-118777295D01*
X136329046Y-118546954D01*
X136098705Y-118393046D01*
X135995486Y-118372514D01*
X135974954Y-118269295D01*
X135821046Y-118038954D01*
X135590705Y-117885046D01*
X135319000Y-117831000D01*
X135047295Y-117885046D01*
X134816954Y-118038954D01*
X134663046Y-118269295D01*
X134642514Y-118372514D01*
X134568170Y-118387302D01*
X129570434Y-113389566D01*
X129534857Y-113365794D01*
X129299541Y-113208561D01*
X128980000Y-113145000D01*
X127817576Y-113145000D01*
X127669157Y-112922875D01*
X127350567Y-112710000D01*
X127669157Y-112497125D01*
X127993232Y-112012112D01*
X128107032Y-111440000D01*
X127993232Y-110867888D01*
X127669157Y-110382875D01*
X127184144Y-110058800D01*
X126612032Y-109945000D01*
X126267968Y-109945000D01*
X125695856Y-110058800D01*
X125210843Y-110382875D01*
X124886768Y-110867888D01*
X124772968Y-111440000D01*
X124886768Y-112012112D01*
X125210843Y-112497125D01*
X125529433Y-112710000D01*
X125210843Y-112922875D01*
X124886768Y-113407888D01*
X124772968Y-113980000D01*
X124886768Y-114552112D01*
X125210843Y-115037125D01*
X125529433Y-115250000D01*
X125210843Y-115462875D01*
X124886768Y-115947888D01*
X124772968Y-116520000D01*
X124886768Y-117092112D01*
X125210843Y-117577125D01*
X125695856Y-117901200D01*
X126267968Y-118015000D01*
X126612032Y-118015000D01*
X127184144Y-117901200D01*
X127669157Y-117577125D01*
X127993232Y-117092112D01*
X128107032Y-116520000D01*
X127993232Y-115947888D01*
X127669157Y-115462875D01*
X127350567Y-115250000D01*
X127669157Y-115037125D01*
X127817576Y-114815000D01*
X128634132Y-114815000D01*
X134314608Y-120495476D01*
X134314190Y-120974398D01*
X134524686Y-121483837D01*
X134914113Y-121873944D01*
X135423184Y-122085329D01*
X135974398Y-122085810D01*
X136483837Y-121875314D01*
X136873944Y-121485887D01*
X136969975Y-121254619D01*
X137064686Y-121483837D01*
X137454113Y-121873944D01*
X137963184Y-122085329D01*
X138514398Y-122085810D01*
X139023837Y-121875314D01*
X139364745Y-121535000D01*
X145220000Y-121535000D01*
X145539541Y-121471439D01*
X145810434Y-121290434D01*
X149365670Y-117735198D01*
X149365226Y-118243694D01*
X149403298Y-118335834D01*
X143324132Y-124415000D01*
X117145868Y-124415000D01*
X116235708Y-123504840D01*
X117853000Y-123504840D01*
X118088317Y-123460562D01*
X118304441Y-123321490D01*
X118449431Y-123109290D01*
X118484726Y-122935000D01*
X118936560Y-122935000D01*
X118936560Y-122963600D01*
X118980838Y-123198917D01*
X119119910Y-123415041D01*
X119332110Y-123560031D01*
X119584000Y-123611040D01*
X121616000Y-123611040D01*
X121851317Y-123566762D01*
X122067441Y-123427690D01*
X122212431Y-123215490D01*
X122263440Y-122963600D01*
X122263440Y-121236400D01*
X122219162Y-121001083D01*
X122080090Y-120784959D01*
X121867890Y-120639969D01*
X121826561Y-120631600D01*
X121844415Y-120619670D01*
X122169271Y-120133489D01*
X122283345Y-119560000D01*
X122169271Y-118986511D01*
X121844415Y-118500330D01*
X121529634Y-118290000D01*
X121844415Y-118079670D01*
X122169271Y-117593489D01*
X122283345Y-117020000D01*
X122169271Y-116446511D01*
X121844415Y-115960330D01*
X121534931Y-115753539D01*
X121950732Y-115382036D01*
X122204709Y-114854791D01*
X122207358Y-114839026D01*
X122086217Y-114607000D01*
X120727000Y-114607000D01*
X120727000Y-114627000D01*
X120473000Y-114627000D01*
X120473000Y-114607000D01*
X119113783Y-114607000D01*
X118992642Y-114839026D01*
X118995291Y-114854791D01*
X119249268Y-115382036D01*
X119665069Y-115753539D01*
X119355585Y-115960330D01*
X119205465Y-116185000D01*
X118454119Y-116185000D01*
X118303300Y-116155000D01*
X118220339Y-116155000D01*
X118106222Y-115984211D01*
X117711170Y-115720246D01*
X117727262Y-115715525D01*
X118161191Y-115365986D01*
X118428327Y-114876996D01*
X118445010Y-114797060D01*
X118322852Y-114577000D01*
X116837000Y-114577000D01*
X116837000Y-114597000D01*
X116583000Y-114597000D01*
X116583000Y-114577000D01*
X115097148Y-114577000D01*
X114974990Y-114797060D01*
X114991673Y-114876996D01*
X115258809Y-115365986D01*
X115692738Y-115715525D01*
X115708830Y-115720246D01*
X115313778Y-115984211D01*
X115005441Y-116445671D01*
X114897167Y-116990000D01*
X115005441Y-117534329D01*
X115313778Y-117995789D01*
X115709199Y-118260000D01*
X115313778Y-118524211D01*
X115005441Y-118985671D01*
X114897167Y-119530000D01*
X115005441Y-120074329D01*
X115313778Y-120535789D01*
X115485460Y-120650503D01*
X115331683Y-120679438D01*
X115115559Y-120818510D01*
X114970569Y-121030710D01*
X114919560Y-121282600D01*
X114919560Y-122188692D01*
X105320434Y-112589566D01*
X105049541Y-112408561D01*
X104730000Y-112345000D01*
X103196306Y-112345000D01*
X103236143Y-112144725D01*
X103688034Y-111692834D01*
X103735765Y-111621400D01*
X103869039Y-111421941D01*
X103932600Y-111102400D01*
X103932600Y-98696000D01*
X103869039Y-98376459D01*
X103688034Y-98105566D01*
X103023249Y-97440781D01*
X103174559Y-97214329D01*
X103282833Y-96670000D01*
X103174559Y-96125671D01*
X102866222Y-95664211D01*
X102470801Y-95400000D01*
X102866222Y-95135789D01*
X103174559Y-94674329D01*
X103282833Y-94130000D01*
X103174559Y-93585671D01*
X102866222Y-93124211D01*
X102404762Y-92815874D01*
X101860433Y-92707600D01*
X101079567Y-92707600D01*
X100535238Y-92815874D01*
X100073778Y-93124211D01*
X99959661Y-93295000D01*
X95850000Y-93295000D01*
X95530459Y-93358561D01*
X95276036Y-93528561D01*
X95259566Y-93539566D01*
X93586310Y-95212822D01*
X93707358Y-94980974D01*
X93704709Y-94965209D01*
X93450732Y-94437964D01*
X93275155Y-94281093D01*
X93351317Y-94266762D01*
X93567441Y-94127690D01*
X93712431Y-93915490D01*
X93763440Y-93663600D01*
X93763440Y-92567428D01*
X94145868Y-92185000D01*
X123784132Y-92185000D01*
X124853628Y-93254496D01*
G36*
X189315000Y-93379794D02*
X188956463Y-93020630D01*
X188401675Y-92790262D01*
X187800960Y-92789738D01*
X187245771Y-93019138D01*
X186820630Y-93443537D01*
X186811718Y-93465000D01*
X182700000Y-93465000D01*
X182380459Y-93528561D01*
X182221162Y-93635000D01*
X182109566Y-93709566D01*
X175654132Y-100165000D01*
X174715237Y-100165000D01*
X174915953Y-100099116D01*
X175121590Y-99534694D01*
X175095579Y-98934542D01*
X174915953Y-98500884D01*
X174662060Y-98417545D01*
X173779605Y-99300000D01*
X173793748Y-99314143D01*
X173614143Y-99493748D01*
X173600000Y-99479605D01*
X173585858Y-99493748D01*
X173406253Y-99314143D01*
X173420395Y-99300000D01*
X172537940Y-98417545D01*
X172284047Y-98500884D01*
X172078410Y-99065306D01*
X172104421Y-99665458D01*
X172284047Y-100099116D01*
X172484763Y-100165000D01*
X170250000Y-100165000D01*
X169930459Y-100228561D01*
X169730664Y-100362060D01*
X169659566Y-100409566D01*
X166909566Y-103159566D01*
X166755071Y-103390784D01*
X166748965Y-103376042D01*
X166482163Y-103277443D01*
X165509605Y-104250000D01*
X165523748Y-104264142D01*
X165344142Y-104443748D01*
X165330000Y-104429605D01*
X164357443Y-105402163D01*
X164456042Y-105668965D01*
X165065582Y-105895401D01*
X165437502Y-105881630D01*
X163904132Y-107415000D01*
X151845868Y-107415000D01*
X149004562Y-104573694D01*
X153535226Y-104573694D01*
X153783538Y-105174655D01*
X154242927Y-105634846D01*
X154843453Y-105884206D01*
X155493694Y-105884774D01*
X156094655Y-105636462D01*
X156554846Y-105177073D01*
X156804206Y-104576547D01*
X156804722Y-103985582D01*
X163684599Y-103985582D01*
X163708659Y-104635377D01*
X163911035Y-105123958D01*
X164177837Y-105222557D01*
X165150395Y-104250000D01*
X164177837Y-103277443D01*
X163911035Y-103376042D01*
X163684599Y-103985582D01*
X156804722Y-103985582D01*
X156804774Y-103926306D01*
X156556462Y-103325345D01*
X156329351Y-103097837D01*
X164357443Y-103097837D01*
X165330000Y-104070395D01*
X166302557Y-103097837D01*
X166203958Y-102831035D01*
X165594418Y-102604599D01*
X164944623Y-102628659D01*
X164456042Y-102831035D01*
X164357443Y-103097837D01*
X156329351Y-103097837D01*
X156097073Y-102865154D01*
X155496547Y-102615794D01*
X154846306Y-102615226D01*
X154245345Y-102863538D01*
X153785154Y-103322927D01*
X153535794Y-103923453D01*
X153535226Y-104573694D01*
X149004562Y-104573694D01*
X148840434Y-104409566D01*
X148771991Y-104363834D01*
X148569541Y-104228561D01*
X148250000Y-104165000D01*
X120500000Y-104165000D01*
X120180459Y-104228561D01*
X119978009Y-104363834D01*
X119909566Y-104409566D01*
X118324132Y-105995000D01*
X118220339Y-105995000D01*
X118106222Y-105824211D01*
X117710801Y-105560000D01*
X118106222Y-105295789D01*
X118414559Y-104834329D01*
X118522833Y-104290000D01*
X118436306Y-103855000D01*
X132621000Y-103855000D01*
X132940541Y-103791439D01*
X133211434Y-103610434D01*
X143161868Y-93660000D01*
X145092968Y-93660000D01*
X145206768Y-94232112D01*
X145530843Y-94717125D01*
X145849433Y-94930000D01*
X145530843Y-95142875D01*
X145206768Y-95627888D01*
X145092968Y-96200000D01*
X145206768Y-96772112D01*
X145530843Y-97257125D01*
X145849433Y-97470000D01*
X145530843Y-97682875D01*
X145206768Y-98167888D01*
X145092968Y-98740000D01*
X145206768Y-99312112D01*
X145530843Y-99797125D01*
X145849433Y-100010000D01*
X145530843Y-100222875D01*
X145206768Y-100707888D01*
X145092968Y-101280000D01*
X145206768Y-101852112D01*
X145530843Y-102337125D01*
X146015856Y-102661200D01*
X146587968Y-102775000D01*
X146932032Y-102775000D01*
X147504144Y-102661200D01*
X147989157Y-102337125D01*
X148313232Y-101852112D01*
X148427032Y-101280000D01*
X148313232Y-100707888D01*
X148170113Y-100493694D01*
X150615226Y-100493694D01*
X150863538Y-101094655D01*
X151322927Y-101554846D01*
X151923453Y-101804206D01*
X152573694Y-101804774D01*
X153174655Y-101556462D01*
X153634846Y-101097073D01*
X153884206Y-100496547D01*
X153884774Y-99846306D01*
X153679705Y-99350000D01*
X160202560Y-99350000D01*
X160202560Y-100650000D01*
X160246838Y-100885317D01*
X160385910Y-101101441D01*
X160598110Y-101246431D01*
X160850000Y-101297440D01*
X162150000Y-101297440D01*
X162385317Y-101253162D01*
X162601441Y-101114090D01*
X162746431Y-100901890D01*
X162797440Y-100650000D01*
X162797440Y-100454540D01*
X162909995Y-100726943D01*
X163271155Y-101088735D01*
X163743276Y-101284777D01*
X164254481Y-101285223D01*
X164726943Y-101090005D01*
X165088735Y-100728845D01*
X165284777Y-100256724D01*
X165285223Y-99745519D01*
X165090005Y-99273057D01*
X164728845Y-98911265D01*
X164256724Y-98715223D01*
X163745519Y-98714777D01*
X163273057Y-98909995D01*
X162911265Y-99271155D01*
X162797440Y-99545276D01*
X162797440Y-99350000D01*
X162753162Y-99114683D01*
X162614090Y-98898559D01*
X162401890Y-98753569D01*
X162150000Y-98702560D01*
X160850000Y-98702560D01*
X160614683Y-98746838D01*
X160398559Y-98885910D01*
X160253569Y-99098110D01*
X160202560Y-99350000D01*
X153679705Y-99350000D01*
X153636462Y-99245345D01*
X153177073Y-98785154D01*
X152576547Y-98535794D01*
X151926306Y-98535226D01*
X151325345Y-98783538D01*
X150865154Y-99242927D01*
X150615794Y-99843453D01*
X150615226Y-100493694D01*
X148170113Y-100493694D01*
X147989157Y-100222875D01*
X147670567Y-100010000D01*
X147989157Y-99797125D01*
X148313232Y-99312112D01*
X148427032Y-98740000D01*
X148327167Y-98237940D01*
X172717545Y-98237940D01*
X173600000Y-99120395D01*
X174482455Y-98237940D01*
X174399116Y-97984047D01*
X173834694Y-97778410D01*
X173234542Y-97804421D01*
X172800884Y-97984047D01*
X172717545Y-98237940D01*
X148327167Y-98237940D01*
X148313232Y-98167888D01*
X147989157Y-97682875D01*
X147687689Y-97481440D01*
X152698165Y-97481440D01*
X152907353Y-97842289D01*
X153844650Y-98219824D01*
X154855077Y-98209933D01*
X155742647Y-97842289D01*
X155951835Y-97481440D01*
X159048165Y-97481440D01*
X159257353Y-97842289D01*
X160194650Y-98219824D01*
X161205077Y-98209933D01*
X162092647Y-97842289D01*
X162301835Y-97481440D01*
X160675000Y-95854605D01*
X159048165Y-97481440D01*
X155951835Y-97481440D01*
X154325000Y-95854605D01*
X152698165Y-97481440D01*
X147687689Y-97481440D01*
X147670567Y-97470000D01*
X147989157Y-97257125D01*
X148313232Y-96772112D01*
X148427032Y-96200000D01*
X148313232Y-95627888D01*
X148023752Y-95194650D01*
X151780176Y-95194650D01*
X151790067Y-96205077D01*
X152157711Y-97092647D01*
X152518560Y-97301835D01*
X154145395Y-95675000D01*
X152518560Y-94048165D01*
X152157711Y-94257353D01*
X151780176Y-95194650D01*
X148023752Y-95194650D01*
X147989157Y-95142875D01*
X147670567Y-94930000D01*
X147989157Y-94717125D01*
X148313232Y-94232112D01*
X148427032Y-93660000D01*
X148313232Y-93087888D01*
X147989157Y-92602875D01*
X147504144Y-92278800D01*
X146932032Y-92165000D01*
X146587968Y-92165000D01*
X146015856Y-92278800D01*
X145530843Y-92602875D01*
X145206768Y-93087888D01*
X145092968Y-93660000D01*
X143161868Y-93660000D01*
X145690428Y-91131440D01*
X152698165Y-91131440D01*
X152907353Y-91492289D01*
X153844650Y-91869824D01*
X154855077Y-91859933D01*
X155214912Y-91710884D01*
X155087420Y-92017919D01*
X155086583Y-92977870D01*
X155218230Y-93296480D01*
X154805350Y-93130176D01*
X153794923Y-93140067D01*
X152907353Y-93507711D01*
X152698165Y-93868560D01*
X154325000Y-95495395D01*
X154339143Y-95481253D01*
X154518748Y-95660858D01*
X154504605Y-95675000D01*
X156131440Y-97301835D01*
X156492289Y-97092647D01*
X156869824Y-96155350D01*
X156859933Y-95144923D01*
X156710884Y-94785088D01*
X157017919Y-94912580D01*
X157977870Y-94913417D01*
X158296480Y-94781770D01*
X158130176Y-95194650D01*
X158140067Y-96205077D01*
X158507711Y-97092647D01*
X158868560Y-97301835D01*
X160495395Y-95675000D01*
X160854605Y-95675000D01*
X162481440Y-97301835D01*
X162842289Y-97092647D01*
X163219824Y-96155350D01*
X163209933Y-95144923D01*
X162842289Y-94257353D01*
X162481440Y-94048165D01*
X160854605Y-95675000D01*
X160495395Y-95675000D01*
X160481253Y-95660858D01*
X160660858Y-95481253D01*
X160675000Y-95495395D01*
X162301835Y-93868560D01*
X162092647Y-93507711D01*
X161155350Y-93130176D01*
X160144923Y-93140067D01*
X159785088Y-93289116D01*
X159912580Y-92982081D01*
X159913417Y-92022130D01*
X159781770Y-91703520D01*
X160194650Y-91869824D01*
X161205077Y-91859933D01*
X162092647Y-91492289D01*
X162301835Y-91131440D01*
X160675000Y-89504605D01*
X160660858Y-89518748D01*
X160481253Y-89339143D01*
X160495395Y-89325000D01*
X160854605Y-89325000D01*
X162481440Y-90951835D01*
X162842289Y-90742647D01*
X163219824Y-89805350D01*
X163209933Y-88794923D01*
X162842289Y-87907353D01*
X162481440Y-87698165D01*
X160854605Y-89325000D01*
X160495395Y-89325000D01*
X158868560Y-87698165D01*
X158507711Y-87907353D01*
X158130176Y-88844650D01*
X158140067Y-89855077D01*
X158289116Y-90214912D01*
X157982081Y-90087420D01*
X157022130Y-90086583D01*
X156703520Y-90218230D01*
X156869824Y-89805350D01*
X156859933Y-88794923D01*
X156492289Y-87907353D01*
X156131440Y-87698165D01*
X154504605Y-89325000D01*
X154518748Y-89339143D01*
X154339143Y-89518748D01*
X154325000Y-89504605D01*
X152698165Y-91131440D01*
X145690428Y-91131440D01*
X147977218Y-88844650D01*
X151780176Y-88844650D01*
X151790067Y-89855077D01*
X152157711Y-90742647D01*
X152518560Y-90951835D01*
X154145395Y-89325000D01*
X152518560Y-87698165D01*
X152157711Y-87907353D01*
X151780176Y-88844650D01*
X147977218Y-88844650D01*
X149303308Y-87518560D01*
X152698165Y-87518560D01*
X154325000Y-89145395D01*
X155951835Y-87518560D01*
X159048165Y-87518560D01*
X160675000Y-89145395D01*
X162301835Y-87518560D01*
X162092647Y-87157711D01*
X161155350Y-86780176D01*
X160144923Y-86790067D01*
X159257353Y-87157711D01*
X159048165Y-87518560D01*
X155951835Y-87518560D01*
X155742647Y-87157711D01*
X154805350Y-86780176D01*
X153794923Y-86790067D01*
X152907353Y-87157711D01*
X152698165Y-87518560D01*
X149303308Y-87518560D01*
X150553068Y-86268800D01*
X164387932Y-86268800D01*
X172098241Y-93979109D01*
X172090262Y-93998325D01*
X172089738Y-94599040D01*
X172319138Y-95154229D01*
X172743537Y-95579370D01*
X173298325Y-95809738D01*
X173899040Y-95810262D01*
X174454229Y-95580862D01*
X174879370Y-95156463D01*
X175109738Y-94601675D01*
X175110262Y-94000960D01*
X174880862Y-93445771D01*
X174456463Y-93020630D01*
X173901675Y-92790262D01*
X173300960Y-92789738D01*
X173279481Y-92798613D01*
X171029245Y-90548377D01*
X177965000Y-90548377D01*
X177965000Y-90651623D01*
X178165577Y-91659994D01*
X178736774Y-92514849D01*
X179591629Y-93086046D01*
X180600000Y-93286623D01*
X181608371Y-93086046D01*
X182463226Y-92514849D01*
X183034423Y-91659994D01*
X183235000Y-90651623D01*
X183235000Y-90548377D01*
X183034423Y-89540006D01*
X182463226Y-88685151D01*
X181608371Y-88113954D01*
X180600000Y-87913377D01*
X179591629Y-88113954D01*
X178736774Y-88685151D01*
X178165577Y-89540006D01*
X177965000Y-90548377D01*
X171029245Y-90548377D01*
X168509040Y-88028172D01*
X170332538Y-88028172D01*
X170737709Y-89008761D01*
X171487293Y-89759655D01*
X172467173Y-90166536D01*
X173528172Y-90167462D01*
X174508761Y-89762291D01*
X175259655Y-89012707D01*
X175666536Y-88032827D01*
X175667462Y-86971828D01*
X175262291Y-85991239D01*
X174512707Y-85240345D01*
X173532827Y-84833464D01*
X172471828Y-84832538D01*
X171491239Y-85237709D01*
X170740345Y-85987293D01*
X170333464Y-86967173D01*
X170332538Y-88028172D01*
X168509040Y-88028172D01*
X165324234Y-84843366D01*
X165166107Y-84737709D01*
X165087223Y-84685000D01*
X189315000Y-84685000D01*
X189315000Y-93379794D01*
X189315000Y-93379794D01*
G37*
X189315000Y-93379794D02*
X188956463Y-93020630D01*
X188401675Y-92790262D01*
X187800960Y-92789738D01*
X187245771Y-93019138D01*
X186820630Y-93443537D01*
X186811718Y-93465000D01*
X182700000Y-93465000D01*
X182380459Y-93528561D01*
X182221162Y-93635000D01*
X182109566Y-93709566D01*
X175654132Y-100165000D01*
X174715237Y-100165000D01*
X174915953Y-100099116D01*
X175121590Y-99534694D01*
X175095579Y-98934542D01*
X174915953Y-98500884D01*
X174662060Y-98417545D01*
X173779605Y-99300000D01*
X173793748Y-99314143D01*
X173614143Y-99493748D01*
X173600000Y-99479605D01*
X173585858Y-99493748D01*
X173406253Y-99314143D01*
X173420395Y-99300000D01*
X172537940Y-98417545D01*
X172284047Y-98500884D01*
X172078410Y-99065306D01*
X172104421Y-99665458D01*
X172284047Y-100099116D01*
X172484763Y-100165000D01*
X170250000Y-100165000D01*
X169930459Y-100228561D01*
X169730664Y-100362060D01*
X169659566Y-100409566D01*
X166909566Y-103159566D01*
X166755071Y-103390784D01*
X166748965Y-103376042D01*
X166482163Y-103277443D01*
X165509605Y-104250000D01*
X165523748Y-104264142D01*
X165344142Y-104443748D01*
X165330000Y-104429605D01*
X164357443Y-105402163D01*
X164456042Y-105668965D01*
X165065582Y-105895401D01*
X165437502Y-105881630D01*
X163904132Y-107415000D01*
X151845868Y-107415000D01*
X149004562Y-104573694D01*
X153535226Y-104573694D01*
X153783538Y-105174655D01*
X154242927Y-105634846D01*
X154843453Y-105884206D01*
X155493694Y-105884774D01*
X156094655Y-105636462D01*
X156554846Y-105177073D01*
X156804206Y-104576547D01*
X156804722Y-103985582D01*
X163684599Y-103985582D01*
X163708659Y-104635377D01*
X163911035Y-105123958D01*
X164177837Y-105222557D01*
X165150395Y-104250000D01*
X164177837Y-103277443D01*
X163911035Y-103376042D01*
X163684599Y-103985582D01*
X156804722Y-103985582D01*
X156804774Y-103926306D01*
X156556462Y-103325345D01*
X156329351Y-103097837D01*
X164357443Y-103097837D01*
X165330000Y-104070395D01*
X166302557Y-103097837D01*
X166203958Y-102831035D01*
X165594418Y-102604599D01*
X164944623Y-102628659D01*
X164456042Y-102831035D01*
X164357443Y-103097837D01*
X156329351Y-103097837D01*
X156097073Y-102865154D01*
X155496547Y-102615794D01*
X154846306Y-102615226D01*
X154245345Y-102863538D01*
X153785154Y-103322927D01*
X153535794Y-103923453D01*
X153535226Y-104573694D01*
X149004562Y-104573694D01*
X148840434Y-104409566D01*
X148771991Y-104363834D01*
X148569541Y-104228561D01*
X148250000Y-104165000D01*
X120500000Y-104165000D01*
X120180459Y-104228561D01*
X119978009Y-104363834D01*
X119909566Y-104409566D01*
X118324132Y-105995000D01*
X118220339Y-105995000D01*
X118106222Y-105824211D01*
X117710801Y-105560000D01*
X118106222Y-105295789D01*
X118414559Y-104834329D01*
X118522833Y-104290000D01*
X118436306Y-103855000D01*
X132621000Y-103855000D01*
X132940541Y-103791439D01*
X133211434Y-103610434D01*
X143161868Y-93660000D01*
X145092968Y-93660000D01*
X145206768Y-94232112D01*
X145530843Y-94717125D01*
X145849433Y-94930000D01*
X145530843Y-95142875D01*
X145206768Y-95627888D01*
X145092968Y-96200000D01*
X145206768Y-96772112D01*
X145530843Y-97257125D01*
X145849433Y-97470000D01*
X145530843Y-97682875D01*
X145206768Y-98167888D01*
X145092968Y-98740000D01*
X145206768Y-99312112D01*
X145530843Y-99797125D01*
X145849433Y-100010000D01*
X145530843Y-100222875D01*
X145206768Y-100707888D01*
X145092968Y-101280000D01*
X145206768Y-101852112D01*
X145530843Y-102337125D01*
X146015856Y-102661200D01*
X146587968Y-102775000D01*
X146932032Y-102775000D01*
X147504144Y-102661200D01*
X147989157Y-102337125D01*
X148313232Y-101852112D01*
X148427032Y-101280000D01*
X148313232Y-100707888D01*
X148170113Y-100493694D01*
X150615226Y-100493694D01*
X150863538Y-101094655D01*
X151322927Y-101554846D01*
X151923453Y-101804206D01*
X152573694Y-101804774D01*
X153174655Y-101556462D01*
X153634846Y-101097073D01*
X153884206Y-100496547D01*
X153884774Y-99846306D01*
X153679705Y-99350000D01*
X160202560Y-99350000D01*
X160202560Y-100650000D01*
X160246838Y-100885317D01*
X160385910Y-101101441D01*
X160598110Y-101246431D01*
X160850000Y-101297440D01*
X162150000Y-101297440D01*
X162385317Y-101253162D01*
X162601441Y-101114090D01*
X162746431Y-100901890D01*
X162797440Y-100650000D01*
X162797440Y-100454540D01*
X162909995Y-100726943D01*
X163271155Y-101088735D01*
X163743276Y-101284777D01*
X164254481Y-101285223D01*
X164726943Y-101090005D01*
X165088735Y-100728845D01*
X165284777Y-100256724D01*
X165285223Y-99745519D01*
X165090005Y-99273057D01*
X164728845Y-98911265D01*
X164256724Y-98715223D01*
X163745519Y-98714777D01*
X163273057Y-98909995D01*
X162911265Y-99271155D01*
X162797440Y-99545276D01*
X162797440Y-99350000D01*
X162753162Y-99114683D01*
X162614090Y-98898559D01*
X162401890Y-98753569D01*
X162150000Y-98702560D01*
X160850000Y-98702560D01*
X160614683Y-98746838D01*
X160398559Y-98885910D01*
X160253569Y-99098110D01*
X160202560Y-99350000D01*
X153679705Y-99350000D01*
X153636462Y-99245345D01*
X153177073Y-98785154D01*
X152576547Y-98535794D01*
X151926306Y-98535226D01*
X151325345Y-98783538D01*
X150865154Y-99242927D01*
X150615794Y-99843453D01*
X150615226Y-100493694D01*
X148170113Y-100493694D01*
X147989157Y-100222875D01*
X147670567Y-100010000D01*
X147989157Y-99797125D01*
X148313232Y-99312112D01*
X148427032Y-98740000D01*
X148327167Y-98237940D01*
X172717545Y-98237940D01*
X173600000Y-99120395D01*
X174482455Y-98237940D01*
X174399116Y-97984047D01*
X173834694Y-97778410D01*
X173234542Y-97804421D01*
X172800884Y-97984047D01*
X172717545Y-98237940D01*
X148327167Y-98237940D01*
X148313232Y-98167888D01*
X147989157Y-97682875D01*
X147687689Y-97481440D01*
X152698165Y-97481440D01*
X152907353Y-97842289D01*
X153844650Y-98219824D01*
X154855077Y-98209933D01*
X155742647Y-97842289D01*
X155951835Y-97481440D01*
X159048165Y-97481440D01*
X159257353Y-97842289D01*
X160194650Y-98219824D01*
X161205077Y-98209933D01*
X162092647Y-97842289D01*
X162301835Y-97481440D01*
X160675000Y-95854605D01*
X159048165Y-97481440D01*
X155951835Y-97481440D01*
X154325000Y-95854605D01*
X152698165Y-97481440D01*
X147687689Y-97481440D01*
X147670567Y-97470000D01*
X147989157Y-97257125D01*
X148313232Y-96772112D01*
X148427032Y-96200000D01*
X148313232Y-95627888D01*
X148023752Y-95194650D01*
X151780176Y-95194650D01*
X151790067Y-96205077D01*
X152157711Y-97092647D01*
X152518560Y-97301835D01*
X154145395Y-95675000D01*
X152518560Y-94048165D01*
X152157711Y-94257353D01*
X151780176Y-95194650D01*
X148023752Y-95194650D01*
X147989157Y-95142875D01*
X147670567Y-94930000D01*
X147989157Y-94717125D01*
X148313232Y-94232112D01*
X148427032Y-93660000D01*
X148313232Y-93087888D01*
X147989157Y-92602875D01*
X147504144Y-92278800D01*
X146932032Y-92165000D01*
X146587968Y-92165000D01*
X146015856Y-92278800D01*
X145530843Y-92602875D01*
X145206768Y-93087888D01*
X145092968Y-93660000D01*
X143161868Y-93660000D01*
X145690428Y-91131440D01*
X152698165Y-91131440D01*
X152907353Y-91492289D01*
X153844650Y-91869824D01*
X154855077Y-91859933D01*
X155214912Y-91710884D01*
X155087420Y-92017919D01*
X155086583Y-92977870D01*
X155218230Y-93296480D01*
X154805350Y-93130176D01*
X153794923Y-93140067D01*
X152907353Y-93507711D01*
X152698165Y-93868560D01*
X154325000Y-95495395D01*
X154339143Y-95481253D01*
X154518748Y-95660858D01*
X154504605Y-95675000D01*
X156131440Y-97301835D01*
X156492289Y-97092647D01*
X156869824Y-96155350D01*
X156859933Y-95144923D01*
X156710884Y-94785088D01*
X157017919Y-94912580D01*
X157977870Y-94913417D01*
X158296480Y-94781770D01*
X158130176Y-95194650D01*
X158140067Y-96205077D01*
X158507711Y-97092647D01*
X158868560Y-97301835D01*
X160495395Y-95675000D01*
X160854605Y-95675000D01*
X162481440Y-97301835D01*
X162842289Y-97092647D01*
X163219824Y-96155350D01*
X163209933Y-95144923D01*
X162842289Y-94257353D01*
X162481440Y-94048165D01*
X160854605Y-95675000D01*
X160495395Y-95675000D01*
X160481253Y-95660858D01*
X160660858Y-95481253D01*
X160675000Y-95495395D01*
X162301835Y-93868560D01*
X162092647Y-93507711D01*
X161155350Y-93130176D01*
X160144923Y-93140067D01*
X159785088Y-93289116D01*
X159912580Y-92982081D01*
X159913417Y-92022130D01*
X159781770Y-91703520D01*
X160194650Y-91869824D01*
X161205077Y-91859933D01*
X162092647Y-91492289D01*
X162301835Y-91131440D01*
X160675000Y-89504605D01*
X160660858Y-89518748D01*
X160481253Y-89339143D01*
X160495395Y-89325000D01*
X160854605Y-89325000D01*
X162481440Y-90951835D01*
X162842289Y-90742647D01*
X163219824Y-89805350D01*
X163209933Y-88794923D01*
X162842289Y-87907353D01*
X162481440Y-87698165D01*
X160854605Y-89325000D01*
X160495395Y-89325000D01*
X158868560Y-87698165D01*
X158507711Y-87907353D01*
X158130176Y-88844650D01*
X158140067Y-89855077D01*
X158289116Y-90214912D01*
X157982081Y-90087420D01*
X157022130Y-90086583D01*
X156703520Y-90218230D01*
X156869824Y-89805350D01*
X156859933Y-88794923D01*
X156492289Y-87907353D01*
X156131440Y-87698165D01*
X154504605Y-89325000D01*
X154518748Y-89339143D01*
X154339143Y-89518748D01*
X154325000Y-89504605D01*
X152698165Y-91131440D01*
X145690428Y-91131440D01*
X147977218Y-88844650D01*
X151780176Y-88844650D01*
X151790067Y-89855077D01*
X152157711Y-90742647D01*
X152518560Y-90951835D01*
X154145395Y-89325000D01*
X152518560Y-87698165D01*
X152157711Y-87907353D01*
X151780176Y-88844650D01*
X147977218Y-88844650D01*
X149303308Y-87518560D01*
X152698165Y-87518560D01*
X154325000Y-89145395D01*
X155951835Y-87518560D01*
X159048165Y-87518560D01*
X160675000Y-89145395D01*
X162301835Y-87518560D01*
X162092647Y-87157711D01*
X161155350Y-86780176D01*
X160144923Y-86790067D01*
X159257353Y-87157711D01*
X159048165Y-87518560D01*
X155951835Y-87518560D01*
X155742647Y-87157711D01*
X154805350Y-86780176D01*
X153794923Y-86790067D01*
X152907353Y-87157711D01*
X152698165Y-87518560D01*
X149303308Y-87518560D01*
X150553068Y-86268800D01*
X164387932Y-86268800D01*
X172098241Y-93979109D01*
X172090262Y-93998325D01*
X172089738Y-94599040D01*
X172319138Y-95154229D01*
X172743537Y-95579370D01*
X173298325Y-95809738D01*
X173899040Y-95810262D01*
X174454229Y-95580862D01*
X174879370Y-95156463D01*
X175109738Y-94601675D01*
X175110262Y-94000960D01*
X174880862Y-93445771D01*
X174456463Y-93020630D01*
X173901675Y-92790262D01*
X173300960Y-92789738D01*
X173279481Y-92798613D01*
X171029245Y-90548377D01*
X177965000Y-90548377D01*
X177965000Y-90651623D01*
X178165577Y-91659994D01*
X178736774Y-92514849D01*
X179591629Y-93086046D01*
X180600000Y-93286623D01*
X181608371Y-93086046D01*
X182463226Y-92514849D01*
X183034423Y-91659994D01*
X183235000Y-90651623D01*
X183235000Y-90548377D01*
X183034423Y-89540006D01*
X182463226Y-88685151D01*
X181608371Y-88113954D01*
X180600000Y-87913377D01*
X179591629Y-88113954D01*
X178736774Y-88685151D01*
X178165577Y-89540006D01*
X177965000Y-90548377D01*
X171029245Y-90548377D01*
X168509040Y-88028172D01*
X170332538Y-88028172D01*
X170737709Y-89008761D01*
X171487293Y-89759655D01*
X172467173Y-90166536D01*
X173528172Y-90167462D01*
X174508761Y-89762291D01*
X175259655Y-89012707D01*
X175666536Y-88032827D01*
X175667462Y-86971828D01*
X175262291Y-85991239D01*
X174512707Y-85240345D01*
X173532827Y-84833464D01*
X172471828Y-84832538D01*
X171491239Y-85237709D01*
X170740345Y-85987293D01*
X170333464Y-86967173D01*
X170332538Y-88028172D01*
X168509040Y-88028172D01*
X165324234Y-84843366D01*
X165166107Y-84737709D01*
X165087223Y-84685000D01*
X189315000Y-84685000D01*
X189315000Y-93379794D01*
G36*
X92227000Y-95213000D02*
X92247000Y-95213000D01*
X92247000Y-95467000D01*
X92227000Y-95467000D01*
X92227000Y-95487000D01*
X91973000Y-95487000D01*
X91973000Y-95467000D01*
X91953000Y-95467000D01*
X91953000Y-95213000D01*
X91973000Y-95213000D01*
X91973000Y-95193000D01*
X92227000Y-95193000D01*
X92227000Y-95213000D01*
X92227000Y-95213000D01*
G37*
X92227000Y-95213000D02*
X92247000Y-95213000D01*
X92247000Y-95467000D01*
X92227000Y-95467000D01*
X92227000Y-95487000D01*
X91973000Y-95487000D01*
X91973000Y-95467000D01*
X91953000Y-95467000D01*
X91953000Y-95213000D01*
X91973000Y-95213000D01*
X91973000Y-95193000D01*
X92227000Y-95193000D01*
X92227000Y-95213000D01*
M02*
