M48
;DRILL file {KiCad 4.0.7} date 2018 March 08, Thursday 20:32:04
;FORMAT={-:-/ absolute / metric / decimal}
FMAT,2
METRIC,TZ
T1C0.500
T2C0.550
T3C0.800
T4C0.800
T5C0.813
T6C1.000
T7C1.001
T8C1.016
T9C1.100
T10C1.270
T11C1.524
T12C2.500
T13C3.048
%
G90
G05
M71
T3
X119.5Y-127.5
X154.Y-119.5
X154.Y-122.04
X154.Y-124.58
X154.Y-127.12
X156.75Y-124.5
X159.25Y-124.5
X161.5Y-100.
X161.62Y-119.5
X161.62Y-122.04
X161.62Y-124.58
X161.62Y-127.12
X184.75Y-112.75
T4
X122.Y-127.5
X135.7Y-120.7
X138.24Y-120.7
X156.75Y-127.
X159.25Y-127.
X164.Y-100.
X184.75Y-110.25
T5
X101.47Y-94.13
X101.47Y-96.67
X101.47Y-99.21
X101.47Y-101.75
X101.47Y-104.29
X101.47Y-106.83
X101.47Y-109.37
X101.47Y-111.91
X101.47Y-114.45
X101.47Y-116.99
X101.47Y-119.53
X101.47Y-122.07
X116.71Y-94.13
X116.71Y-96.67
X116.71Y-99.21
X116.71Y-101.75
X116.71Y-104.29
X116.71Y-106.83
X116.71Y-109.37
X116.71Y-111.91
X116.71Y-114.45
X116.71Y-116.99
X116.71Y-119.53
X116.71Y-122.07
T6
X126.44Y-93.66
X126.44Y-96.2
X126.44Y-98.74
X126.44Y-101.28
X126.44Y-106.36
X126.44Y-111.44
X126.44Y-113.98
X126.44Y-116.52
X146.76Y-93.66
X146.76Y-96.2
X146.76Y-98.74
X146.76Y-101.28
X146.76Y-106.36
X146.76Y-108.9
X146.76Y-111.44
X146.76Y-113.98
X146.76Y-116.52
T7
X150.92Y-115.
X150.92Y-131.5
X151.Y-117.92
X151.Y-128.08
X152.25Y-100.17
X152.25Y-110.33
X155.17Y-104.25
X161.08Y-115.
X161.08Y-131.5
X165.33Y-104.25
X166.8Y-118.12
X166.8Y-128.28
X169.42Y-123.25
X169.747Y-114.25
X172.747Y-114.25
X175.92Y-107.
X176.Y-109.92
X176.Y-120.08
X179.5Y-109.92
X179.5Y-120.08
X179.58Y-123.25
X184.75Y-115.42
X184.75Y-125.58
X186.08Y-107.
T8
X92.1Y-92.8
X92.1Y-95.34
X92.1Y-97.88
X92.1Y-100.42
X92.1Y-102.96
X92.1Y-105.5
X92.1Y-108.04
X92.1Y-110.58
X92.1Y-113.12
X92.1Y-115.66
X92.1Y-118.2
X92.1Y-120.74
X92.1Y-123.28
X92.1Y-125.82
X120.6Y-114.48
X120.6Y-117.02
X120.6Y-119.56
X120.6Y-122.1
T9
X173.6Y-94.3
X173.6Y-99.3
X188.1Y-94.3
X188.1Y-96.8
X188.1Y-99.3
T10
X157.5Y-92.5
X169.747Y-104.09
X172.747Y-104.09
T11
X154.325Y-89.325
X154.325Y-95.675
X160.675Y-89.325
X160.675Y-95.675
T12
X180.6Y-90.6
X180.6Y-103.
T13
X97.Y-87.
X97.Y-130.5
X173.Y-87.5
X173.Y-130.5
T1
X103.101Y-130.462G85X103.101Y-129.812
G05
X110.101Y-130.462G85X110.101Y-129.812
G05
T2
X103.951Y-127.437G85X104.251Y-127.437
G05
X108.951Y-127.437G85X109.251Y-127.437
G05
T0
M30
